<?xml version="1.0" encoding="UTF-8" standalone="no"?>
<!-- Created with Inkscape (http://www.inkscape.org/) -->

<svg
   xmlns:dc="http://purl.org/dc/elements/1.1/"
   xmlns:cc="http://creativecommons.org/ns#"
   xmlns:rdf="http://www.w3.org/1999/02/22-rdf-syntax-ns#"
   xmlns:svg="http://www.w3.org/2000/svg"
   xmlns="http://www.w3.org/2000/svg"
   xmlns:inkscape="http://www.inkscape.org/namespaces/inkscape"
   version="1.1"
   width="1214.1304"
   height="323.56763"
   id="svg2"
   xml:space="preserve"><metadata
     id="metadata8"><rdf:RDF><cc:Work
         rdf:about=""><dc:format>image/svg+xml</dc:format><dc:type
           rdf:resource="http://purl.org/dc/dcmitype/StillImage" /></cc:Work></rdf:RDF></metadata><defs
     id="defs6"><clipPath
       id="clipPath12"><path
         d="m 0,0 1024,0 0,768 L 0,768 0,0 z"
         inkscape:connector-curvature="0"
         id="path14" /></clipPath><clipPath
       id="clipPath22"><path
         d="m 0,0 1024,0 0,768 L 0,768 0,0 z"
         inkscape:connector-curvature="0"
         id="path24" /></clipPath><clipPath
       id="clipPath78"><path
         d="m 181.985,324.3086 819.3717,0 0,33 -819.3717,0 0,-33 z"
         inkscape:connector-curvature="0"
         id="path80" /></clipPath><clipPath
       id="clipPath92"><path
         d="m 0,0 1024,0 0,768 L 0,768 0,0 z"
         inkscape:connector-curvature="0"
         id="path94" /></clipPath><clipPath
       id="clipPath116"><path
         d="m 154.865,117.5 14.12,0 0,26 -14.12,0 0,-26 z"
         inkscape:connector-curvature="0"
         id="path118" /></clipPath><clipPath
       id="clipPath130"><path
         d="m 54.785,160.2021 114.2,0 0,26 -114.2,0 0,-26 z"
         inkscape:connector-curvature="0"
         id="path132" /></clipPath><clipPath
       id="clipPath144"><path
         d="m 54.785,202.9043 114.2,0 0,26 -114.2,0 0,-26 z"
         inkscape:connector-curvature="0"
         id="path146" /></clipPath><clipPath
       id="clipPath158"><path
         d="m 54.785,245.6064 114.2,0 0,26 -114.2,0 0,-26 z"
         inkscape:connector-curvature="0"
         id="path160" /></clipPath><clipPath
       id="clipPath172"><path
         d="m 38.105,288.3086 130.88,0 0,26 -130.88,0 0,-26 z"
         inkscape:connector-curvature="0"
         id="path174" /></clipPath><clipPath
       id="clipPath186"><path
         d="m 0,0 1024,0 0,768 L 0,768 0,0 z"
         inkscape:connector-curvature="0"
         id="path188" /></clipPath><clipPath
       id="clipPath198"><path
         d="m 142.565,97 80.84,0 0,26 -80.84,0 0,-26 z"
         inkscape:connector-curvature="0"
         id="path200" /></clipPath><clipPath
       id="clipPath212"><path
         d="m 249.1787,97 80.84,0 0,26 -80.84,0 0,-26 z"
         inkscape:connector-curvature="0"
         id="path214" /></clipPath><clipPath
       id="clipPath226"><path
         d="m 350.2324,97 91.96,0 0,26 -91.96,0 0,-26 z"
         inkscape:connector-curvature="0"
         id="path228" /></clipPath><clipPath
       id="clipPath240"><path
         d="m 462.4061,97 80.84,0 0,26 -80.84,0 0,-26 z"
         inkscape:connector-curvature="0"
         id="path242" /></clipPath><clipPath
       id="clipPath254"><path
         d="m 569.0198,97 80.84,0 0,26 -80.84,0 0,-26 z"
         inkscape:connector-curvature="0"
         id="path256" /></clipPath><clipPath
       id="clipPath268"><path
         d="m 670.0735,97 91.96,0 0,26 -91.96,0 0,-26 z"
         inkscape:connector-curvature="0"
         id="path270" /></clipPath><clipPath
       id="clipPath282"><path
         d="m 782.2472,97 80.84,0 0,26 -80.84,0 0,-26 z"
         inkscape:connector-curvature="0"
         id="path284" /></clipPath><clipPath
       id="clipPath296"><path
         d="m 888.8609,97 80.84,0 0,26 -80.84,0 0,-26 z"
         inkscape:connector-curvature="0"
         id="path298" /></clipPath><clipPath
       id="clipPath310"><path
         d="m 183,130.7847 35.5217,0.0712 35.5218,1.0675 35.5217,0.7117 35.5218,0.427 35.5217,1.7081 35.5217,1.4234 35.5218,2.1351 35.5217,2.8468 35.5218,15.5152 35.5217,-1.8505 35.5217,1.4234 35.5218,25.479 35.5217,55.5128 35.5217,64.0532 35.5218,-106.7554 35.5217,14.2341 35.5218,32.7383 35.5217,-11.3873 35.5217,-8.2557 35.5218,8.8251 35.5217,-6.5477 35.5218,40.1401 35.5217,9.9638 0,-143.7639 -817,0 0,0.2847"
         inkscape:connector-curvature="0"
         id="path312" /></clipPath><linearGradient
       x1="0"
       y1="0"
       x2="100"
       y2="0"
       id="linearGradient322"
       gradientUnits="userSpaceOnUse"
       gradientTransform="matrix(0,-1.728086,-8.189991,0,591.5,302.3086)"
       spreadMethod="pad"><stop
         id="stop324"
         style="stop-color:#51a7f9;stop-opacity:1"
         offset="0" /><stop
         id="stop326"
         style="stop-color:#0365c0;stop-opacity:1"
         offset="1" /></linearGradient><clipPath
       id="clipPath334"><path
         d="m 0,0 1024,0 0,768 L 0,768 0,0 z"
         inkscape:connector-curvature="0"
         id="path336" /></clipPath></defs><g
     transform="matrix(1.25,0,0,-1.25,-43.554562,445.61987)"
     clip-path="url(#clipPath12)"
     id="g10"><g
       id="g16" /><g
       id="g18"><g
         clip-path="url(#clipPath22)"
         id="g20"><path
           d="m 0,0 1024,0 0,768 L 0,768 0,0 z"
           inkscape:connector-curvature="0"
           id="path26"
           style="fill:#ffffff;fill-opacity:1;fill-rule:nonzero;stroke:none" /><path
           d="M 0,768 1024,768 1024,0 0,0 0,768 z"
           inkscape:connector-curvature="0"
           id="path28"
           style="fill:#ffffff;fill-opacity:1;fill-rule:nonzero;stroke:none" /><g
           transform="translate(260.8,618.3997)"
           id="g30"><text
             transform="scale(1,-1)"
             id="text32"><tspan
               x="0 71.120003 115.6 160.08 182.32001 204.56 222.32001 262.32001 284.56 337.92001 360.16 377.92001 422.39999 462.39999"
               y="0"
               id="tspan34"
               style="font-size:80px;font-variant:normal;font-weight:300;writing-mode:lr-tb;fill:#000000;fill-opacity:1;fill-rule:nonzero;stroke:none;font-family:Helvetica;-inkscape-font-specification:Helvetica-Light">What is Atlas?</tspan></text>
</g><g
           transform="translate(79,532.2163)"
           id="g36"><text
             transform="scale(1,-1)"
             id="text38"><tspan
               x="0"
               y="0"
               id="tspan40"
               style="font-size:22.68000031px;font-variant:normal;font-weight:300;writing-mode:lr-tb;fill:#000000;fill-opacity:1;fill-rule:nonzero;stroke:none;font-family:Helvetica;-inkscape-font-specification:Helvetica-Light">•</tspan></text>
</g><g
           transform="translate(108.4,528.9551)"
           id="g42"><text
             transform="scale(1,-1)"
             id="text44"><tspan
               x="0 20.17008 28.576799 35.290081 52.103519 67.223518 75.630241 82.343521 97.463516 105.87024 114.27696 131.09039 147.90384 156.31056 171.43056 186.55057 201.67056 210.07729 226.89072 252.08064 260.48737 282.32065 299.13409 307.5408 322.6608 329.37408 344.49408 352.90079 369.71423 384.83423 401.64767 416.76767 425.17441 433.58112 450.39456 458.80127 483.99121 500.80463 517.6181 534.43152 552.90814 569.72162 578.1283 596.60498 603.31824 628.50818 645.32159 662.13501 677.25507 683.96832 700.78174 717.59521 734.40863 741.12195 749.52863 757.93536 764.64862 789.83856 806.65198"
               y="0"
               id="tspan46"
               style="font-size:30.23999977px;font-variant:normal;font-weight:300;writing-mode:lr-tb;fill:#000000;fill-opacity:1;fill-rule:nonzero;stroke:none;font-family:Helvetica;-inkscape-font-specification:Helvetica-Light">Atlas is the system Netfix uses to manage dimensional time </tspan></text>
</g><g
           transform="translate(108.4,492.9551)"
           id="g48"><text
             transform="scale(1,-1)"
             id="text50"><tspan
               x="0 15.12 31.933439 42.003361 48.71664 65.530083 80.650078 89.056801 107.53344 124.34688 132.7536 149.56705 157.97375 166.38048 183.19392 193.26384 201.67056 218.48399 235.29744 252.11089 262.18079 270.58752 280.11313 296.92657 313.73999 320.45328 330.52319 338.92993 345.64319 370.83313 387.64655 396.05328 412.86673 431.34335 448.1568 458.22672 475.04016 483.44687 490.16016 506.9736 523.78705 540.60046 547.31378 555.72046 562.43378 579.24719 594.36719 601.08051 619.55713 636.37054 644.77728"
               y="0"
               id="tspan52"
               style="font-size:30.23999977px;font-variant:normal;font-weight:300;writing-mode:lr-tb;fill:#000000;fill-opacity:1;fill-rule:nonzero;stroke:none;font-family:Helvetica;-inkscape-font-specification:Helvetica-Light">series data for near real-time operational insight.</tspan></text>
</g><g
           transform="translate(108.4,492.9551)"
           id="g54" /><g
           transform="translate(79,424.9363)"
           id="g56"><text
             transform="scale(1,-1)"
             id="text58"><tspan
               x="0"
               y="0"
               id="tspan60"
               style="font-size:22.68000031px;font-variant:normal;font-weight:300;writing-mode:lr-tb;fill:#000000;fill-opacity:1;fill-rule:nonzero;stroke:none;font-family:Helvetica;-inkscape-font-specification:Helvetica-Light">•</tspan></text>
</g><g
           transform="translate(108.4,421.6751)"
           id="g62"><text
             transform="scale(1,-1)"
             id="text64"><tspan
               x="0 25.18992 42.003361 50.41008 60.48 67.193283 84.006721 92.413437 107.53344 124.34688 131.06017 147.8736 173.06352 189.87695 198.28368 215.09712 231.91055 247.03056 255.43729 273.91391 290.72736 307.5408 326.01743 332.73071 349.54416 368.02081 376.42752 393.24097 399.95425 425.14417 441.95761 457.07761 465.48431 473.89105 490.70447 505.82449 522.63794 533.25214 548.37213 556.77887 575.25549 592.06897 608.88239 619.49664 627.90338 644.7168 654.78674 663.19342 678.31342 685.02673 701.84015 718.65363 735.46704 743.87378 752.28046"
               y="0"
               id="tspan66"
               style="font-size:30.23999977px;font-variant:normal;font-weight:300;writing-mode:lr-tb;fill:#000000;fill-opacity:1;fill-rule:nonzero;stroke:none;font-family:Helvetica;-inkscape-font-specification:Helvetica-Light">Metric volume has doubled almost every quarter since I </tspan></text>
</g><g
           transform="translate(108.4,385.6751)"
           id="g68"><text
             transform="scale(1,-1)"
             id="text70"><tspan
               x="0 15.12 23.52672 40.34016 50.954399 59.361118 76.174561 94.651199 103.05792 111.46464 137.80368 154.61713 163.02383 179.83728 196.65073 211.77072 228.58417 236.99088 255.46751 264.99313 281.80655 303.63983 320.45328 328.85999 337.26672 346.79233 363.60577 388.79568 397.20239 414.01584 439.20575 447.61249 456.0192 472.83264 481.23935 498.0528 506.45953 523.27295 543.44305 551.84973"
               y="0"
               id="tspan72"
               style="font-size:30.23999977px;font-variant:normal;font-weight:300;writing-mode:lr-tb;fill:#000000;fill-opacity:1;fill-rule:nonzero;stroke:none;font-family:Helvetica;-inkscape-font-specification:Helvetica-Light">started. We have grown from 2M to 1.2B. </tspan></text>
</g></g></g><g
       id="g74"><g
         clip-path="url(#clipPath78)"
         id="g76"><g
           transform="translate(484.0439,331.2885)"
           id="g82"><text
             transform="scale(1,-1)"
             id="text84"><tspan
               x="0 18.771999 33.228001 54.886002 70.772003 85.227997 93.886002 101.114 115.57 122.798 130.026 151.68401 166.14 173.368 182.026 187.798 202.254"
               y="0"
               id="tspan86"
               style="font-size:26px;font-variant:normal;font-weight:300;writing-mode:lr-tb;fill:#000000;fill-opacity:1;fill-rule:nonzero;stroke:none;font-family:Helvetica;-inkscape-font-specification:Helvetica-Light">Number of Metrics</tspan></text>
</g></g></g><g
       id="g88"><g
         clip-path="url(#clipPath92)"
         id="g90"><g
           transform="matrix(1,0,0,-1,39.105,356.3086)"
           id="g96"><path
             d="m 143.895,182.8086 817,0"
             inkscape:connector-curvature="0"
             id="path98"
             style="fill:none;stroke:#929292;stroke-width:1;stroke-linecap:butt;stroke-linejoin:miter;stroke-miterlimit:4;stroke-opacity:1;stroke-dasharray:2, 2;stroke-dashoffset:0" /></g><g
           transform="matrix(1,0,0,-1,39.105,356.3086)"
           id="g100"><path
             d="m 143.895,140.8086 817,0"
             inkscape:connector-curvature="0"
             id="path102"
             style="fill:none;stroke:#929292;stroke-width:1;stroke-linecap:butt;stroke-linejoin:miter;stroke-miterlimit:4;stroke-opacity:1;stroke-dasharray:2, 2;stroke-dashoffset:0" /></g><g
           transform="matrix(1,0,0,-1,39.105,356.3086)"
           id="g104"><path
             d="m 143.895,97.80859 817,0"
             inkscape:connector-curvature="0"
             id="path106"
             style="fill:none;stroke:#929292;stroke-width:1;stroke-linecap:butt;stroke-linejoin:miter;stroke-miterlimit:4;stroke-opacity:1;stroke-dasharray:2, 2;stroke-dashoffset:0" /></g><g
           transform="matrix(1,0,0,-1,39.105,356.3086)"
           id="g108"><path
             d="m 143.895,54.80859 817,0"
             inkscape:connector-curvature="0"
             id="path110"
             style="fill:none;stroke:#929292;stroke-width:1;stroke-linecap:butt;stroke-linejoin:miter;stroke-miterlimit:4;stroke-opacity:1;stroke-dasharray:2, 2;stroke-dashoffset:0" /></g></g></g><g
       id="g112"><g
         clip-path="url(#clipPath116)"
         id="g114"><g
           transform="translate(156.365,123.0999)"
           id="g120"><text
             transform="scale(1,-1)"
             id="text122"><tspan
               x="0"
               y="0"
               id="tspan124"
               style="font-size:20px;font-variant:normal;font-weight:300;writing-mode:lr-tb;fill:#000000;fill-opacity:1;fill-rule:nonzero;stroke:none;font-family:Helvetica;-inkscape-font-specification:Helvetica-Light">0</tspan></text>
</g></g></g><g
       id="g126"><g
         clip-path="url(#clipPath130)"
         id="g128"><g
           transform="translate(56.285,165.8021)"
           id="g134"><text
             transform="scale(1,-1)"
             id="text136"><tspan
               x="0 11.12 22.24 33.360001 38.919998 50.040001 61.16 72.279999 77.839996 88.959999 100.08"
               y="0"
               id="tspan138"
               style="font-size:20px;font-variant:normal;font-weight:300;writing-mode:lr-tb;fill:#000000;fill-opacity:1;fill-rule:nonzero;stroke:none;font-family:Helvetica;-inkscape-font-specification:Helvetica-Light">300,000,000</tspan></text>
</g></g></g><g
       id="g140"><g
         clip-path="url(#clipPath144)"
         id="g142"><g
           transform="translate(56.285,208.5042)"
           id="g148"><text
             transform="scale(1,-1)"
             id="text150"><tspan
               x="0 11.12 22.24 33.360001 38.919998 50.040001 61.16 72.279999 77.839996 88.959999 100.08"
               y="0"
               id="tspan152"
               style="font-size:20px;font-variant:normal;font-weight:300;writing-mode:lr-tb;fill:#000000;fill-opacity:1;fill-rule:nonzero;stroke:none;font-family:Helvetica;-inkscape-font-specification:Helvetica-Light">600,000,000</tspan></text>
</g></g></g><g
       id="g154"><g
         clip-path="url(#clipPath158)"
         id="g156"><g
           transform="translate(56.285,251.2064)"
           id="g162"><text
             transform="scale(1,-1)"
             id="text164"><tspan
               x="0 11.12 22.24 33.360001 38.919998 50.040001 61.16 72.279999 77.839996 88.959999 100.08"
               y="0"
               id="tspan166"
               style="font-size:20px;font-variant:normal;font-weight:300;writing-mode:lr-tb;fill:#000000;fill-opacity:1;fill-rule:nonzero;stroke:none;font-family:Helvetica;-inkscape-font-specification:Helvetica-Light">900,000,000</tspan></text>
</g></g></g><g
       id="g168"><g
         clip-path="url(#clipPath172)"
         id="g170"><g
           transform="translate(39.605,293.9085)"
           id="g176"><text
             transform="scale(1,-1)"
             id="text178"><tspan
               x="0 11.12 16.68 27.799999 38.919998 50.040001 55.599998 66.720001 77.839996 88.959999 94.519997 105.64 116.76"
               y="0"
               id="tspan180"
               style="font-size:20px;font-variant:normal;font-weight:300;writing-mode:lr-tb;fill:#000000;fill-opacity:1;fill-rule:nonzero;stroke:none;font-family:Helvetica;-inkscape-font-specification:Helvetica-Light">1,200,000,000</tspan></text>
</g></g></g><g
       id="g182"><g
         clip-path="url(#clipPath186)"
         id="g184"><g
           transform="matrix(1,0,0,-1,39.105,356.3086)"
           id="g190"><path
             d="m 143.395,225.8086 818,0"
             inkscape:connector-curvature="0"
             id="path192"
             style="fill:none;stroke:#000000;stroke-width:1;stroke-linecap:square;stroke-linejoin:miter;stroke-miterlimit:4;stroke-opacity:1;stroke-dasharray:none" /></g></g></g><g
       id="g194"><g
         clip-path="url(#clipPath198)"
         id="g196"><g
           transform="translate(144.065,102.5999)"
           id="g202"><text
             transform="scale(1,-1)"
             id="text204"><tspan
               x="0 11.12 16.68 27.799999 33.360001 44.48 55.599998 66.720001"
               y="0"
               id="tspan206"
               style="font-size:20px;font-variant:normal;font-weight:300;writing-mode:lr-tb;fill:#000000;fill-opacity:1;fill-rule:nonzero;stroke:none;font-family:Helvetica;-inkscape-font-specification:Helvetica-Light">5/1/2011</tspan></text>
</g></g></g><g
       id="g208"><g
         clip-path="url(#clipPath212)"
         id="g210"><g
           transform="translate(250.6787,102.5999)"
           id="g216"><text
             transform="scale(1,-1)"
             id="text218"><tspan
               x="0 11.12 16.68 27.799999 33.360001 44.48 55.599998 66.720001"
               y="0"
               id="tspan220"
               style="font-size:20px;font-variant:normal;font-weight:300;writing-mode:lr-tb;fill:#000000;fill-opacity:1;fill-rule:nonzero;stroke:none;font-family:Helvetica;-inkscape-font-specification:Helvetica-Light">1/1/2012</tspan></text>
</g></g></g><g
       id="g222"><g
         clip-path="url(#clipPath226)"
         id="g224"><g
           transform="translate(351.7324,102.5999)"
           id="g230"><text
             transform="scale(1,-1)"
             id="text232"><tspan
               x="0 11.12 22.24 27.799999 38.919998 44.48 55.599998 66.720001 77.839996"
               y="0"
               id="tspan234"
               style="font-size:20px;font-variant:normal;font-weight:300;writing-mode:lr-tb;fill:#000000;fill-opacity:1;fill-rule:nonzero;stroke:none;font-family:Helvetica;-inkscape-font-specification:Helvetica-Light">10/1/2012</tspan></text>
</g></g></g><g
       id="g236"><g
         clip-path="url(#clipPath240)"
         id="g238"><g
           transform="translate(463.9061,102.5999)"
           id="g244"><text
             transform="scale(1,-1)"
             id="text246"><tspan
               x="0 11.12 16.68 27.799999 33.360001 44.48 55.599998 66.720001"
               y="0"
               id="tspan248"
               style="font-size:20px;font-variant:normal;font-weight:300;writing-mode:lr-tb;fill:#000000;fill-opacity:1;fill-rule:nonzero;stroke:none;font-family:Helvetica;-inkscape-font-specification:Helvetica-Light">2/1/2013</tspan></text>
</g></g></g><g
       id="g250"><g
         clip-path="url(#clipPath254)"
         id="g252"><g
           transform="translate(570.5198,102.5999)"
           id="g258"><text
             transform="scale(1,-1)"
             id="text260"><tspan
               x="0 11.12 16.68 27.799999 33.360001 44.48 55.599998 66.720001"
               y="0"
               id="tspan262"
               style="font-size:20px;font-variant:normal;font-weight:300;writing-mode:lr-tb;fill:#000000;fill-opacity:1;fill-rule:nonzero;stroke:none;font-family:Helvetica;-inkscape-font-specification:Helvetica-Light">7/1/2013</tspan></text>
</g></g></g><g
       id="g264"><g
         clip-path="url(#clipPath268)"
         id="g266"><g
           transform="translate(671.5735,102.5999)"
           id="g272"><text
             transform="scale(1,-1)"
             id="text274"><tspan
               x="0 11.12 22.24 27.799999 38.919998 44.48 55.599998 66.720001 77.839996"
               y="0"
               id="tspan276"
               style="font-size:20px;font-variant:normal;font-weight:300;writing-mode:lr-tb;fill:#000000;fill-opacity:1;fill-rule:nonzero;stroke:none;font-family:Helvetica;-inkscape-font-specification:Helvetica-Light">12/1/2013</tspan></text>
</g></g></g><g
       id="g278"><g
         clip-path="url(#clipPath282)"
         id="g280"><g
           transform="translate(783.7472,102.5999)"
           id="g286"><text
             transform="scale(1,-1)"
             id="text288"><tspan
               x="0 11.12 16.68 27.799999 33.360001 44.48 55.599998 66.720001"
               y="0"
               id="tspan290"
               style="font-size:20px;font-variant:normal;font-weight:300;writing-mode:lr-tb;fill:#000000;fill-opacity:1;fill-rule:nonzero;stroke:none;font-family:Helvetica;-inkscape-font-specification:Helvetica-Light">3/1/2014</tspan></text>
</g></g></g><g
       id="g292"><g
         clip-path="url(#clipPath296)"
         id="g294"><g
           transform="translate(890.3609,102.5999)"
           id="g300"><text
             transform="scale(1,-1)"
             id="text302"><tspan
               x="0 11.12 16.68 27.799999 33.360001 44.48 55.599998 66.720001"
               y="0"
               id="tspan304"
               style="font-size:20px;font-variant:normal;font-weight:300;writing-mode:lr-tb;fill:#000000;fill-opacity:1;fill-rule:nonzero;stroke:none;font-family:Helvetica;-inkscape-font-specification:Helvetica-Light">6/1/2014</tspan></text>
</g></g></g><g
       id="g306"><g
         clip-path="url(#clipPath310)"
         id="g308"><g
           id="g314"><g
             id="g320"><path
               d="m 183,131 817,0 0,170 -817,0 0,-170 z"
               inkscape:connector-curvature="0"
               id="path328"
               style="fill:url(#linearGradient322);stroke:none" /></g></g></g></g><g
       id="g330"><g
         clip-path="url(#clipPath334)"
         id="g332"><g
           transform="matrix(0,-1,-1,0,288.6445,223.6151)"
           id="g338"><path
             d="m -0.384903,-0.3554688 69.756913,0 1.24309,0"
             inkscape:connector-curvature="0"
             id="path340"
             style="fill:none;stroke:#c82506;stroke-width:2;stroke-linecap:butt;stroke-linejoin:miter;stroke-miterlimit:4;stroke-opacity:1;stroke-dasharray:none" /></g><path
           d="m 284.2,154 4.8,-9.6 4.8,9.6 -9.6,0 z"
           inkscape:connector-curvature="0"
           id="path342"
           style="fill:#c82506;fill-opacity:1;fill-rule:nonzero;stroke:none" /><g
           transform="translate(227.2915,234.1399)"
           id="g344"><text
             transform="scale(1,-1)"
             id="text346"><tspan
               x="0 12.006 17.01 21.006001 31.014 40.014 45.018002"
               y="0"
               id="tspan348"
               style="font-size:18px;font-variant:normal;font-weight:300;writing-mode:lr-tb;fill:#c82506;fill-opacity:1;fill-rule:nonzero;stroke:none;font-family:Helvetica;-inkscape-font-specification:Helvetica-Light">Atlas p</tspan></text>
</g><g
           transform="translate(227.2915,234.1399)"
           id="g350"><text
             transform="matrix(1,0,0,-1,56.016,0)"
             id="text352"><tspan
               x="0 5.6700001 15.678 26.676001 36.683998 45.683998 55.692001"
               y="0"
               id="tspan354"
               style="font-size:18px;font-variant:normal;font-weight:300;writing-mode:lr-tb;fill:#c82506;fill-opacity:1;fill-rule:nonzero;stroke:none;font-family:Helvetica;-inkscape-font-specification:Helvetica-Light">roposed</tspan></text>
</g><g
           transform="translate(392.5679,234.1399)"
           id="g356"><text
             transform="scale(1,-1)"
             id="text358"><tspan
               x="0 12.006 17.01 21.006001 31.014 40.014 45.018002 49.014 58.014 63.018002 74.015999 80.010002 84.005997 99 109.008 115.326"
               y="0"
               id="tspan360"
               style="font-size:18px;font-variant:normal;font-weight:300;writing-mode:lr-tb;fill:#c82506;fill-opacity:1;fill-rule:nonzero;stroke:none;font-family:Helvetica;-inkscape-font-specification:Helvetica-Light">Atlas is primary</tspan></text>
</g><g
           transform="matrix(0,-1,-1,0,454.7309,223.6151)"
           id="g362"><path
             d="m -0.384903,-0.2691498 69.756913,0 1.24309,0"
             inkscape:connector-curvature="0"
             id="path364"
             style="fill:none;stroke:#c82506;stroke-width:2;stroke-linecap:butt;stroke-linejoin:miter;stroke-miterlimit:4;stroke-opacity:1;stroke-dasharray:none" /></g><path
           d="m 450.2,154 4.8,-9.6 4.8,9.6 -9.6,0 z"
           inkscape:connector-curvature="0"
           id="path366"
           style="fill:#c82506;fill-opacity:1;fill-rule:nonzero;stroke:none" /><path
           d="m 0.125,0.125 1023.75,0 0,767.75 -1023.75,0 0,-767.75 z"
           inkscape:connector-curvature="0"
           id="path368"
           style="fill:none;stroke:#000000;stroke-width:0.25;stroke-linecap:butt;stroke-linejoin:miter;stroke-miterlimit:4;stroke-opacity:1;stroke-dasharray:none" /></g></g></g></svg>