<?xml version="1.0" encoding="UTF-8" standalone="no"?><svg xmlns="http://www.w3.org/2000/svg" xmlns:xlink="http://www.w3.org/1999/xlink" clip-rule="evenodd" stroke-miterlimit="10" viewBox="0 0 1024 768"><desc>SVG generated by Keynote</desc><defs></defs><g transform="matrix(1.00, 0.00, -0.00, -1.00, 0.0, 768.0)"><path d="M 0.0 768.0 L 1024.0 768.0 L 1024.0 0.0 L 0.0 0.0 Z M 0.0 768.0 " fill="#FEFFFF"></path><text xml:space="preserve" font-family="Helvetica-Light,Helvetica" font-size="80.0" fill="#000000" transform="matrix(1.00, 0.00, -0.00, -1.00, 157.8, 618.4)">G</text><text xml:space="preserve" font-family="Helvetica-Light,Helvetica" font-size="80.0" fill="#000000" transform="matrix(1.00, 0.00, -0.00, -1.00, 220.1, 618.4)">e</text><text xml:space="preserve" font-family="Helvetica-Light,Helvetica" font-size="80.0" fill="#000000" transform="matrix(1.00, 0.00, -0.00, -1.00, 264.6, 618.4)">n</text><text xml:space="preserve" font-family="Helvetica-Light,Helvetica" font-size="80.0" fill="#000000" transform="matrix(1.00, 0.00, -0.00, -1.00, 309.0, 618.4)">e</text><text xml:space="preserve" font-family="Helvetica-Light,Helvetica" font-size="80.0" fill="#000000" transform="matrix(1.00, 0.00, -0.00, -1.00, 353.5, 618.4)">r</text><text xml:space="preserve" font-family="Helvetica-Light,Helvetica" font-size="80.0" fill="#000000" transform="matrix(1.00, 0.00, -0.00, -1.00, 380.2, 618.4)">a</text><text xml:space="preserve" font-family="Helvetica-Light,Helvetica" font-size="80.0" fill="#000000" transform="matrix(1.00, 0.00, -0.00, -1.00, 424.6, 618.4)">l</text><text xml:space="preserve" font-family="Helvetica-Light,Helvetica" font-size="80.0" fill="#000000" transform="matrix(1.00, 0.00, -0.00, -1.00, 442.4, 618.4)"> </text><text xml:space="preserve" font-family="Helvetica-Light,Helvetica" font-size="80.0" fill="#000000" transform="matrix(1.00, 0.00, -0.00, -1.00, 464.6, 618.4)">q</text><text xml:space="preserve" font-family="Helvetica-Light,Helvetica" font-size="80.0" fill="#000000" transform="matrix(1.00, 0.00, -0.00, -1.00, 513.5, 618.4)">u</text><text xml:space="preserve" font-family="Helvetica-Light,Helvetica" font-size="80.0" fill="#000000" transform="matrix(1.00, 0.00, -0.00, -1.00, 558.0, 618.4)">e</text><text xml:space="preserve" font-family="Helvetica-Light,Helvetica" font-size="80.0" fill="#000000" transform="matrix(1.00, 0.00, -0.00, -1.00, 602.5, 618.4)">r</text><text xml:space="preserve" font-family="Helvetica-Light,Helvetica" font-size="80.0" fill="#000000" transform="matrix(1.00, 0.00, -0.00, -1.00, 630.6, 618.4)">y</text><text xml:space="preserve" font-family="Helvetica-Light,Helvetica" font-size="80.0" fill="#000000" transform="matrix(1.00, 0.00, -0.00, -1.00, 670.6, 618.4)"> </text><text xml:space="preserve" font-family="Helvetica-Light,Helvetica" font-size="80.0" fill="#000000" transform="matrix(1.00, 0.00, -0.00, -1.00, 692.8, 618.4)">l</text><text xml:space="preserve" font-family="Helvetica-Light,Helvetica" font-size="80.0" fill="#000000" transform="matrix(1.00, 0.00, -0.00, -1.00, 710.6, 618.4)">a</text><text xml:space="preserve" font-family="Helvetica-Light,Helvetica" font-size="80.0" fill="#000000" transform="matrix(1.00, 0.00, -0.00, -1.00, 755.0, 618.4)">y</text><text xml:space="preserve" font-family="Helvetica-Light,Helvetica" font-size="80.0" fill="#000000" transform="matrix(1.00, 0.00, -0.00, -1.00, 795.0, 618.4)">e</text><text xml:space="preserve" font-family="Helvetica-Light,Helvetica" font-size="80.0" fill="#000000" transform="matrix(1.00, 0.00, -0.00, -1.00, 839.5, 618.4)">r</text><image xlink:href="19426BDC8A2D4C55782C710062BFEDF1.png" width="173.00" height="68.00" transform="matrix(1.00, 0.00, -0.00, -1.00, 307.0, 447.5)" opacity="0.50"></image><g><clipPath id="clip0x7f86a48a9940"><path d="M 310.0 446.0 L 477.0 446.0 L 477.0 385.0 L 310.0 385.0 Z M 310.0 446.5 "></path></clipPath><g clip-path="url(#clip0x7f86a48a9940)"><image xlink:href="C3C0FC898C94653CAF8AD846D6CCD108.png" width="600.00" height="600.00" transform="matrix(0.50, 0.00, -0.00, -0.50, 310.0, 446.0)"></image></g></g><g><clipPath id="clip0x7f86a4a07c30"><path d="M 308.0 384.6 L 478.6 384.6 L 478.6 446.5 L 308.0 446.5 Z M 308.0 384.6 "></path></clipPath><g clip-path="url(#clip0x7f86a4a07c30)"><text xml:space="preserve" font-family="Helvetica-Light,Helvetica" font-size="24.0" fill="#FEFFFE" transform="matrix(1.00, 0.00, -0.00, -1.00, 367.3, 406.0)">M</text><text xml:space="preserve" font-family="Helvetica-Light,Helvetica" font-size="24.0" fill="#FEFFFE" transform="matrix(1.00, 0.00, -0.00, -1.00, 387.3, 406.0)">a</text><text xml:space="preserve" font-family="Helvetica-Light,Helvetica" font-size="24.0" fill="#FEFFFE" transform="matrix(1.00, 0.00, -0.00, -1.00, 400.6, 406.0)">i</text><text xml:space="preserve" font-family="Helvetica-Light,Helvetica" font-size="24.0" fill="#FEFFFE" transform="matrix(1.00, 0.00, -0.00, -1.00, 406.0, 406.0)">n</text></g></g><image xlink:href="DC8FB7C2EF41200136DBDF5565A17F65.png" width="173.00" height="68.00" transform="matrix(1.00, 0.00, -0.00, -1.00, 42.0, 288.4)" opacity="0.50"></image><g><clipPath id="clip0x7f86a452aea0"><path d="M 45.0 287.0 L 212.0 287.0 L 212.0 226.0 L 45.0 226.0 Z M 45.0 287.4 "></path></clipPath><g clip-path="url(#clip0x7f86a452aea0)"><image xlink:href="../../8E13025A-BA4C-440B-AB91-D97B4A335F07/assets/C3C0FC898C94653CAF8AD846D6CCD108.png" width="600.00" height="600.00" transform="matrix(0.50, 0.00, -0.00, -0.50, 45.0, 287.0)"></image></g></g><g><clipPath id="clip0x7f86a4a0b470"><path d="M 43.0 225.5 L 213.6 225.5 L 213.6 287.4 L 43.0 287.4 Z M 43.0 225.5 "></path></clipPath><g clip-path="url(#clip0x7f86a4a0b470)"><text xml:space="preserve" font-family="Helvetica-Light,Helvetica" font-size="24.0" fill="#FEFFFE" transform="matrix(1.00, 0.00, -0.00, -1.00, 62.7, 246.9)">C</text><text xml:space="preserve" font-family="Helvetica-Light,Helvetica" font-size="24.0" fill="#FEFFFE" transform="matrix(1.00, 0.00, -0.00, -1.00, 80.1, 246.9)">l</text><text xml:space="preserve" font-family="Helvetica-Light,Helvetica" font-size="24.0" fill="#FEFFFE" transform="matrix(1.00, 0.00, -0.00, -1.00, 85.4, 246.9)">o</text><text xml:space="preserve" font-family="Helvetica-Light,Helvetica" font-size="24.0" fill="#FEFFFE" transform="matrix(1.00, 0.00, -0.00, -1.00, 98.7, 246.9)">u</text><text xml:space="preserve" font-family="Helvetica-Light,Helvetica" font-size="24.0" fill="#FEFFFE" transform="matrix(1.00, 0.00, -0.00, -1.00, 112.1, 246.9)">d</text><text xml:space="preserve" font-family="Helvetica-Light,Helvetica" font-size="24.0" fill="#FEFFFE" transform="matrix(1.00, 0.00, -0.00, -1.00, 126.7, 246.9)">W</text><text xml:space="preserve" font-family="Helvetica-Light,Helvetica" font-size="24.0" fill="#FEFFFE" transform="matrix(1.00, 0.00, -0.00, -1.00, 147.2, 246.9)">a</text><text xml:space="preserve" font-family="Helvetica-Light,Helvetica" font-size="24.0" fill="#FEFFFE" transform="matrix(1.00, 0.00, -0.00, -1.00, 160.5, 246.9)">t</text><text xml:space="preserve" font-family="Helvetica-Light,Helvetica" font-size="24.0" fill="#FEFFFE" transform="matrix(1.00, 0.00, -0.00, -1.00, 167.2, 246.9)">c</text><text xml:space="preserve" font-family="Helvetica-Light,Helvetica" font-size="24.0" fill="#FEFFFE" transform="matrix(1.00, 0.00, -0.00, -1.00, 180.6, 246.9)">h</text></g></g><image xlink:href="../../8E13025A-BA4C-440B-AB91-D97B4A335F07/assets/DC8FB7C2EF41200136DBDF5565A17F65.png" width="173.00" height="68.00" transform="matrix(1.00, 0.00, -0.00, -1.00, 228.0, 288.4)" opacity="0.50"></image><g><clipPath id="clip0x7f86a494fa70"><path d="M 231.0 287.0 L 398.0 287.0 L 398.0 226.0 L 231.0 226.0 Z M 231.0 287.4 "></path></clipPath><g clip-path="url(#clip0x7f86a494fa70)"><image xlink:href="../../8E13025A-BA4C-440B-AB91-D97B4A335F07/assets/C3C0FC898C94653CAF8AD846D6CCD108.png" width="600.00" height="600.00" transform="matrix(0.50, 0.00, -0.00, -0.50, 231.0, 287.0)"></image></g></g><g><clipPath id="clip0x7f86a4a13510"><path d="M 229.0 225.5 L 399.6 225.5 L 399.6 287.4 L 229.0 287.4 Z M 229.0 225.5 "></path></clipPath><g clip-path="url(#clip0x7f86a4a13510)"><text xml:space="preserve" font-family="Helvetica-Light,Helvetica" font-size="24.0" fill="#FEFFFE" transform="matrix(1.00, 0.00, -0.00, -1.00, 290.3, 246.9)">E</text><text xml:space="preserve" font-family="Helvetica-Light,Helvetica" font-size="24.0" fill="#FEFFFE" transform="matrix(1.00, 0.00, -0.00, -1.00, 305.0, 246.9)">p</text><text xml:space="preserve" font-family="Helvetica-Light,Helvetica" font-size="24.0" fill="#FEFFFE" transform="matrix(1.00, 0.00, -0.00, -1.00, 319.6, 246.9)">i</text><text xml:space="preserve" font-family="Helvetica-Light,Helvetica" font-size="24.0" fill="#FEFFFE" transform="matrix(1.00, 0.00, -0.00, -1.00, 325.0, 246.9)">c</text></g></g><image xlink:href="../../8E13025A-BA4C-440B-AB91-D97B4A335F07/assets/DC8FB7C2EF41200136DBDF5565A17F65.png" width="173.00" height="68.00" transform="matrix(1.00, 0.00, -0.00, -1.00, 414.0, 288.4)" opacity="0.50"></image><g><clipPath id="clip0x7f86a452e060"><path d="M 417.0 287.0 L 584.0 287.0 L 584.0 226.0 L 417.0 226.0 Z M 417.0 287.4 "></path></clipPath><g clip-path="url(#clip0x7f86a452e060)"><image xlink:href="../../8E13025A-BA4C-440B-AB91-D97B4A335F07/assets/C3C0FC898C94653CAF8AD846D6CCD108.png" width="600.00" height="600.00" transform="matrix(0.50, 0.00, -0.00, -0.50, 417.0, 287.0)"></image></g></g><g><clipPath id="clip0x7f86a452edc0"><path d="M 415.0 225.5 L 585.6 225.5 L 585.6 287.4 L 415.0 287.4 Z M 415.0 225.5 "></path></clipPath><g clip-path="url(#clip0x7f86a452edc0)"><text xml:space="preserve" font-family="Helvetica-Light,Helvetica" font-size="24.0" fill="#FEFFFE" transform="matrix(1.00, 0.00, -0.00, -1.00, 459.0, 246.9)">C</text><text xml:space="preserve" font-family="Helvetica-Light,Helvetica" font-size="24.0" fill="#FEFFFE" transform="matrix(1.00, 0.00, -0.00, -1.00, 476.3, 246.9)">u</text><text xml:space="preserve" font-family="Helvetica-Light,Helvetica" font-size="24.0" fill="#FEFFFE" transform="matrix(1.00, 0.00, -0.00, -1.00, 489.6, 246.9)">s</text><text xml:space="preserve" font-family="Helvetica-Light,Helvetica" font-size="24.0" fill="#FEFFFE" transform="matrix(1.00, 0.00, -0.00, -1.00, 501.6, 246.9)">t</text><text xml:space="preserve" font-family="Helvetica-Light,Helvetica" font-size="24.0" fill="#FEFFFE" transform="matrix(1.00, 0.00, -0.00, -1.00, 508.3, 246.9)">o</text><text xml:space="preserve" font-family="Helvetica-Light,Helvetica" font-size="24.0" fill="#FEFFFE" transform="matrix(1.00, 0.00, -0.00, -1.00, 521.7, 246.9)">m</text></g></g><image xlink:href="../../8E13025A-BA4C-440B-AB91-D97B4A335F07/assets/DC8FB7C2EF41200136DBDF5565A17F65.png" width="173.00" height="68.00" transform="matrix(1.00, 0.00, -0.00, -1.00, 600.0, 288.4)" opacity="0.50"></image><g><clipPath id="clip0x7f86a45343f0"><path d="M 603.0 287.0 L 770.0 287.0 L 770.0 226.0 L 603.0 226.0 Z M 603.0 287.4 "></path></clipPath><g clip-path="url(#clip0x7f86a45343f0)"><image xlink:href="../../8E13025A-BA4C-440B-AB91-D97B4A335F07/assets/C3C0FC898C94653CAF8AD846D6CCD108.png" width="600.00" height="600.00" transform="matrix(0.50, 0.00, -0.00, -0.50, 603.0, 287.0)"></image></g></g><g><clipPath id="clip0x7f86a45331d0"><path d="M 601.0 225.5 L 771.6 225.5 L 771.6 287.4 L 601.0 287.4 Z M 601.0 225.5 "></path></clipPath><g clip-path="url(#clip0x7f86a45331d0)"><text xml:space="preserve" font-family="Helvetica-Light,Helvetica" font-size="24.0" fill="#FEFFFE" transform="matrix(1.00, 0.00, -0.00, -1.00, 674.3, 246.9)">…</text></g></g><path d="M -0.3 -0.4 L -0.3 46.6 L 292.7 46.6 L 292.7 87.5 L 292.7 88.6 " fill="none" stroke="#000000" stroke-width="2.00" transform="matrix(1.00, 0.00, 0.00, -1.00, 393.3, 384.6)"></path><path d="M 681.2 297.0 L 686.0 287.4 L 690.8 297.0 Z M 681.2 297.0 " fill="#000000"></path><path d="M 0.3 0.5 L 0.3 45.5 L 106.3 45.5 L 106.3 86.4 L 106.3 87.5 " fill="none" stroke="#000000" stroke-width="2.00" transform="matrix(1.00, 0.00, 0.00, -1.00, 393.7, 383.5)"></path><path d="M 495.2 297.0 L 500.0 287.4 L 504.8 297.0 Z M 495.2 297.0 " fill="#000000"></path><path d="M 79.7 -0.1 L 79.7 42.9 L -0.3 42.9 L -0.3 83.8 L -0.3 84.9 " fill="none" stroke="#000000" stroke-width="2.00" transform="matrix(1.00, 0.00, 0.00, -1.00, 314.3, 380.9)"></path><path d="M 309.2 297.0 L 314.0 287.4 L 318.8 297.0 Z M 309.2 297.0 " fill="#000000"></path><path d="M 264.7 -0.4 L 264.7 46.6 L -0.3 46.6 L -0.3 87.5 L -0.3 88.6 " fill="none" stroke="#000000" stroke-width="2.00" transform="matrix(1.00, 0.00, 0.00, -1.00, 128.3, 384.6)"></path><path d="M 123.2 297.0 L 128.0 287.4 L 132.8 297.0 Z M 123.2 297.0 " fill="#000000"></path></g></svg>