<?xml version="1.0" encoding="UTF-8" standalone="no"?><svg xmlns="http://www.w3.org/2000/svg" xmlns:xlink="http://www.w3.org/1999/xlink" clip-rule="evenodd" stroke-miterlimit="10" viewBox="0 0 1024 768"><desc>SVG generated by Keynote</desc><defs></defs><g transform="matrix(1.00, 0.00, -0.00, -1.00, 0.0, 768.0)"><path d="M 0.0 768.0 L 1024.0 768.0 L 1024.0 0.0 L 0.0 0.0 Z M 0.0 768.0 " fill="#FEFFFF"></path><text xml:space="preserve" font-family="Helvetica-Light,Helvetica" font-size="80.0" fill="#000000" transform="matrix(1.00, 0.00, -0.00, -1.00, 272.0, 618.4)">S</text><text xml:space="preserve" font-family="Helvetica-Light,Helvetica" font-size="80.0" fill="#000000" transform="matrix(1.00, 0.00, -0.00, -1.00, 320.9, 618.4)">i</text><text xml:space="preserve" font-family="Helvetica-Light,Helvetica" font-size="80.0" fill="#000000" transform="matrix(1.00, 0.00, -0.00, -1.00, 338.6, 618.4)">m</text><text xml:space="preserve" font-family="Helvetica-Light,Helvetica" font-size="80.0" fill="#000000" transform="matrix(1.00, 0.00, -0.00, -1.00, 405.3, 618.4)">p</text><text xml:space="preserve" font-family="Helvetica-Light,Helvetica" font-size="80.0" fill="#000000" transform="matrix(1.00, 0.00, -0.00, -1.00, 454.2, 618.4)">l</text><text xml:space="preserve" font-family="Helvetica-Light,Helvetica" font-size="80.0" fill="#000000" transform="matrix(1.00, 0.00, -0.00, -1.00, 471.9, 618.4)">e</text><text xml:space="preserve" font-family="Helvetica-Light,Helvetica" font-size="80.0" fill="#000000" transform="matrix(1.00, 0.00, -0.00, -1.00, 516.4, 618.4)"> </text><text xml:space="preserve" font-family="Helvetica-Light,Helvetica" font-size="80.0" fill="#000000" transform="matrix(1.00, 0.00, -0.00, -1.00, 538.6, 618.4)">g</text><text xml:space="preserve" font-family="Helvetica-Light,Helvetica" font-size="80.0" fill="#000000" transform="matrix(1.00, 0.00, -0.00, -1.00, 587.5, 618.4)">r</text><text xml:space="preserve" font-family="Helvetica-Light,Helvetica" font-size="80.0" fill="#000000" transform="matrix(1.00, 0.00, -0.00, -1.00, 614.2, 618.4)">a</text><text xml:space="preserve" font-family="Helvetica-Light,Helvetica" font-size="80.0" fill="#000000" transform="matrix(1.00, 0.00, -0.00, -1.00, 658.6, 618.4)">p</text><text xml:space="preserve" font-family="Helvetica-Light,Helvetica" font-size="80.0" fill="#000000" transform="matrix(1.00, 0.00, -0.00, -1.00, 707.5, 618.4)">h</text><g><clipPath id="clip0x7f86a5b08e60"><path d="M 129.5 61.9 L 867.4 61.9 L 867.4 446.5 L 129.5 446.5 Z M 129.5 61.9 "></path></clipPath><g clip-path="url(#clip0x7f86a5b08e60)"><path d="M 129.5 446.5 L 867.4 446.5 L 867.4 61.9 L 129.5 61.9 Z M 129.5 446.5 " fill="#FEFFFF" fill-opacity="0.00"></path></g></g><g><clipPath id="clip0x7f86a5b0a0b0"><path d="M 130.7 445.2 L 866.7 445.2 L 866.7 62.2 L 130.7 62.2 Z M 130.7 445.2 "></path></clipPath><g clip-path="url(#clip0x7f86a5b0a0b0)"><g><clipPath id="clip0x7f86a5b0a800"><path d="M 130.7 62.2 L 866.7 62.2 L 866.7 445.2 L 130.7 445.2 Z M 130.7 62.2 "></path></clipPath><g clip-path="url(#clip0x7f86a5b0a800)"><image xlink:href="E84682398718F84F2299A11D07EAD870.png" width="780.00" height="406.00" transform="matrix(0.94, 0.00, -0.00, -0.94, 130.7, 445.2)"></image></g></g></g></g><text xml:space="preserve" font-family="Calibri,Calibri" font-size="24.0" fill="#000000" transform="matrix(1.00, 0.00, -0.00, -1.00, 80.0, 545.4)">/</text><text xml:space="preserve" font-family="Calibri,Calibri" font-size="24.0" fill="#000000" transform="matrix(1.00, 0.00, -0.00, -1.00, 88.8, 545.4)">a</text><text xml:space="preserve" font-family="Calibri,Calibri" font-size="24.0" fill="#000000" transform="matrix(1.00, 0.00, -0.00, -1.00, 100.3, 545.4)">p</text><text xml:space="preserve" font-family="Calibri,Calibri" font-size="24.0" fill="#000000" transform="matrix(1.00, 0.00, -0.00, -1.00, 113.0, 545.4)">i</text><text xml:space="preserve" font-family="Calibri,Calibri" font-size="24.0" fill="#000000" transform="matrix(1.00, 0.00, -0.00, -1.00, 118.5, 545.4)">/</text><text xml:space="preserve" font-family="Calibri,Calibri" font-size="24.0" fill="#000000" transform="matrix(1.00, 0.00, -0.00, -1.00, 127.8, 545.4)">v</text><text xml:space="preserve" font-family="Calibri,Calibri" font-size="24.0" fill="#000000" transform="matrix(1.00, 0.00, -0.00, -1.00, 138.6, 545.4)">1</text><text xml:space="preserve" font-family="Calibri,Calibri" font-size="24.0" fill="#000000" transform="matrix(1.00, 0.00, -0.00, -1.00, 150.7, 545.4)">/</text><text xml:space="preserve" font-family="Calibri,Calibri" font-size="24.0" fill="#000000" transform="matrix(1.00, 0.00, -0.00, -1.00, 159.6, 545.4)">g</text><text xml:space="preserve" font-family="Calibri,Calibri" font-size="24.0" fill="#000000" transform="matrix(1.00, 0.00, -0.00, -1.00, 170.9, 545.4)">r</text><text xml:space="preserve" font-family="Calibri,Calibri" font-size="24.0" fill="#000000" transform="matrix(1.00, 0.00, -0.00, -1.00, 178.8, 545.4)">a</text><text xml:space="preserve" font-family="Calibri,Calibri" font-size="24.0" fill="#000000" transform="matrix(1.00, 0.00, -0.00, -1.00, 190.3, 545.4)">p</text><text xml:space="preserve" font-family="Calibri,Calibri" font-size="24.0" fill="#000000" transform="matrix(1.00, 0.00, -0.00, -1.00, 202.9, 545.4)">h</text><text xml:space="preserve" font-family="Calibri,Calibri" font-size="24.0" fill="#000000" transform="matrix(1.00, 0.00, -0.00, -1.00, 215.5, 545.4)">?</text><text xml:space="preserve" font-family="Calibri,Calibri" font-size="24.0" fill="#000000" transform="matrix(1.00, 0.00, -0.00, -1.00, 226.6, 545.4)">	</text><text xml:space="preserve" font-family="Calibri,Calibri" font-size="24.0" fill="#000000" transform="matrix(1.00, 0.00, -0.00, -1.00, 254.6, 545.4)"></text><text xml:space="preserve" font-family="Calibri,Calibri" font-size="24.0" fill="#000000" transform="matrix(1.00, 0.00, -0.00, -1.00, 254.6, 545.4)"> </text><text xml:space="preserve" font-family="Calibri,Calibri" font-size="24.0" fill="#000000" transform="matrix(1.00, 0.00, -0.00, -1.00, 260.1, 545.4)"> </text><text xml:space="preserve" font-family="Calibri,Calibri" font-size="24.0" fill="#000000" transform="matrix(1.00, 0.00, -0.00, -1.00, 80.0, 516.4)">	</text><text xml:space="preserve" font-family="Calibri,Calibri" font-size="24.0" fill="#000000" transform="matrix(1.00, 0.00, -0.00, -1.00, 108.0, 516.4)"></text><text xml:space="preserve" font-family="Calibri,Calibri" font-size="24.0" fill="#000000" transform="matrix(1.00, 0.00, -0.00, -1.00, 108.0, 516.4)"> </text><text xml:space="preserve" font-family="Calibri,Calibri" font-size="24.0" fill="#000000" transform="matrix(1.00, 0.00, -0.00, -1.00, 113.4, 516.4)"> </text><text xml:space="preserve" font-family="Calibri,Calibri" font-size="24.0" fill="#000000" transform="matrix(1.00, 0.00, -0.00, -1.00, 118.9, 516.4)">	</text><text xml:space="preserve" font-family="Calibri,Calibri" font-size="24.0" fill="#000000" transform="matrix(1.00, 0.00, -0.00, -1.00, 146.9, 516.4)"></text><text xml:space="preserve" font-family="Calibri,Calibri" font-size="24.0" fill="#000000" transform="matrix(1.00, 0.00, -0.00, -1.00, 146.9, 516.4)"> </text><text xml:space="preserve" font-family="Calibri,Calibri" font-size="24.0" fill="#000000" transform="matrix(1.00, 0.00, -0.00, -1.00, 152.3, 516.4)"> </text><text xml:space="preserve" font-family="Calibri,Calibri" font-size="24.0" fill="#000000" transform="matrix(1.00, 0.00, -0.00, -1.00, 157.7, 516.4)">e</text><text xml:space="preserve" font-family="Calibri,Calibri" font-size="24.0" fill="#000000" transform="matrix(1.00, 0.00, -0.00, -1.00, 169.6, 516.4)">=</text><text xml:space="preserve" font-family="Calibri,Calibri" font-size="24.0" fill="#000000" transform="matrix(1.00, 0.00, -0.00, -1.00, 181.6, 516.4)">2</text><text xml:space="preserve" font-family="Calibri,Calibri" font-size="24.0" fill="#000000" transform="matrix(1.00, 0.00, -0.00, -1.00, 193.8, 516.4)">0</text><text xml:space="preserve" font-family="Calibri,Calibri" font-size="24.0" fill="#000000" transform="matrix(1.00, 0.00, -0.00, -1.00, 205.9, 516.4)">1</text><text xml:space="preserve" font-family="Calibri,Calibri" font-size="24.0" fill="#000000" transform="matrix(1.00, 0.00, -0.00, -1.00, 218.1, 516.4)">2</text><text xml:space="preserve" font-family="Calibri,Calibri" font-size="24.0" fill="#000000" transform="matrix(1.00, 0.00, -0.00, -1.00, 230.2, 516.4)">-</text><text xml:space="preserve" font-family="Calibri,Calibri" font-size="24.0" fill="#000000" transform="matrix(1.00, 0.00, -0.00, -1.00, 237.6, 516.4)">­</text><text xml:space="preserve" font-family="Calibri,Calibri" font-size="24.0" fill="#000000" transform="matrix(1.00, 0.00, -0.00, -1.00, 237.6, 516.4)">‐</text><text xml:space="preserve" font-family="Calibri,Calibri" font-size="24.0" fill="#000000" transform="matrix(1.00, 0.00, -0.00, -1.00, 244.9, 516.4)">0</text><text xml:space="preserve" font-family="Calibri,Calibri" font-size="24.0" fill="#000000" transform="matrix(1.00, 0.00, -0.00, -1.00, 257.1, 516.4)">1</text><text xml:space="preserve" font-family="Calibri,Calibri" font-size="24.0" fill="#000000" transform="matrix(1.00, 0.00, -0.00, -1.00, 269.2, 516.4)">-</text><text xml:space="preserve" font-family="Calibri,Calibri" font-size="24.0" fill="#000000" transform="matrix(1.00, 0.00, -0.00, -1.00, 276.6, 516.4)">­</text><text xml:space="preserve" font-family="Calibri,Calibri" font-size="24.0" fill="#000000" transform="matrix(1.00, 0.00, -0.00, -1.00, 276.6, 516.4)">‐</text><text xml:space="preserve" font-family="Calibri,Calibri" font-size="24.0" fill="#000000" transform="matrix(1.00, 0.00, -0.00, -1.00, 283.9, 516.4)">0</text><text xml:space="preserve" font-family="Calibri,Calibri" font-size="24.0" fill="#000000" transform="matrix(1.00, 0.00, -0.00, -1.00, 296.1, 516.4)">1</text><text xml:space="preserve" font-family="Calibri,Calibri" font-size="24.0" fill="#000000" transform="matrix(1.00, 0.00, -0.00, -1.00, 308.3, 516.4)">T</text><text xml:space="preserve" font-family="Calibri,Calibri" font-size="24.0" fill="#000000" transform="matrix(1.00, 0.00, -0.00, -1.00, 320.0, 516.4)">0</text><text xml:space="preserve" font-family="Calibri,Calibri" font-size="24.0" fill="#000000" transform="matrix(1.00, 0.00, -0.00, -1.00, 332.1, 516.4)">0</text><text xml:space="preserve" font-family="Calibri,Calibri" font-size="24.0" fill="#000000" transform="matrix(1.00, 0.00, -0.00, -1.00, 344.3, 516.4)">:</text><text xml:space="preserve" font-family="Calibri,Calibri" font-size="24.0" fill="#000000" transform="matrix(1.00, 0.00, -0.00, -1.00, 350.7, 516.4)">0</text><text xml:space="preserve" font-family="Calibri,Calibri" font-size="24.0" fill="#000000" transform="matrix(1.00, 0.00, -0.00, -1.00, 362.9, 516.4)">0</text><text xml:space="preserve" font-family="Calibri,Calibri" font-size="24.0" fill="#000000" transform="matrix(1.00, 0.00, -0.00, -1.00, 375.0, 516.4)">&amp;</text><text xml:space="preserve" font-family="Calibri,Calibri" font-size="24.0" fill="#000000" transform="matrix(1.00, 0.00, -0.00, -1.00, 391.4, 516.4)">	</text><text xml:space="preserve" font-family="Calibri,Calibri" font-size="24.0" fill="#000000" transform="matrix(1.00, 0.00, -0.00, -1.00, 419.4, 516.4)"></text><text xml:space="preserve" font-family="Calibri,Calibri" font-size="24.0" fill="#000000" transform="matrix(1.00, 0.00, -0.00, -1.00, 419.4, 516.4)"> </text><text xml:space="preserve" font-family="Calibri,Calibri" font-size="24.0" fill="#000000" transform="matrix(1.00, 0.00, -0.00, -1.00, 424.8, 516.4)"> </text><text xml:space="preserve" font-family="Calibri,Calibri" font-size="24.0" fill="#000000" transform="matrix(1.00, 0.00, -0.00, -1.00, 80.0, 487.4)">	</text><text xml:space="preserve" font-family="Calibri,Calibri" font-size="24.0" fill="#000000" transform="matrix(1.00, 0.00, -0.00, -1.00, 108.0, 487.4)"></text><text xml:space="preserve" font-family="Calibri,Calibri" font-size="24.0" fill="#000000" transform="matrix(1.00, 0.00, -0.00, -1.00, 108.0, 487.4)"> </text><text xml:space="preserve" font-family="Calibri,Calibri" font-size="24.0" fill="#000000" transform="matrix(1.00, 0.00, -0.00, -1.00, 113.4, 487.4)"> </text><text xml:space="preserve" font-family="Calibri,Calibri" font-size="24.0" fill="#000000" transform="matrix(1.00, 0.00, -0.00, -1.00, 118.9, 487.4)">	</text><text xml:space="preserve" font-family="Calibri,Calibri" font-size="24.0" fill="#000000" transform="matrix(1.00, 0.00, -0.00, -1.00, 146.9, 487.4)"></text><text xml:space="preserve" font-family="Calibri,Calibri" font-size="24.0" fill="#000000" transform="matrix(1.00, 0.00, -0.00, -1.00, 146.9, 487.4)"> </text><text xml:space="preserve" font-family="Calibri,Calibri" font-size="24.0" fill="#000000" transform="matrix(1.00, 0.00, -0.00, -1.00, 152.3, 487.4)"> </text><text xml:space="preserve" font-family="Calibri,Calibri" font-size="24.0" fill="#000000" transform="matrix(1.00, 0.00, -0.00, -1.00, 157.7, 487.4)">q</text><text xml:space="preserve" font-family="Calibri,Calibri" font-size="24.0" fill="#000000" transform="matrix(1.00, 0.00, -0.00, -1.00, 170.3, 487.4)">=</text><text xml:space="preserve" font-family="Calibri,Calibri" font-size="24.0" fill="#000000" transform="matrix(1.00, 0.00, -0.00, -1.00, 182.3, 487.4)">n</text><text xml:space="preserve" font-family="Calibri,Calibri" font-size="24.0" fill="#000000" transform="matrix(1.00, 0.00, -0.00, -1.00, 194.9, 487.4)">a</text><text xml:space="preserve" font-family="Calibri,Calibri" font-size="24.0" fill="#000000" transform="matrix(1.00, 0.00, -0.00, -1.00, 206.4, 487.4)">m</text><text xml:space="preserve" font-family="Calibri,Calibri" font-size="24.0" fill="#000000" transform="matrix(1.00, 0.00, -0.00, -1.00, 225.6, 487.4)">e</text><text xml:space="preserve" font-family="Calibri,Calibri" font-size="24.0" fill="#000000" transform="matrix(1.00, 0.00, -0.00, -1.00, 237.5, 487.4)">,</text><text xml:space="preserve" font-family="Calibri,Calibri" font-size="24.0" fill="#000000" transform="matrix(1.00, 0.00, -0.00, -1.00, 243.5, 487.4)">s</text><text xml:space="preserve" font-family="Calibri,Calibri" font-size="24.0" fill="#000000" transform="matrix(1.00, 0.00, -0.00, -1.00, 252.9, 487.4)">p</text><text xml:space="preserve" font-family="Calibri,Calibri" font-size="24.0" fill="#000000" transform="matrix(1.00, 0.00, -0.00, -1.00, 265.4, 487.4)">s</text><text xml:space="preserve" font-family="Calibri,Calibri" font-size="24.0" fill="#000000" transform="matrix(1.00, 0.00, -0.00, -1.00, 274.7, 487.4)">,</text><text xml:space="preserve" font-family="Calibri,Calibri" font-size="24.0" fill="#000000" transform="matrix(1.00, 0.00, -0.00, -1.00, 280.7, 487.4)">:</text><text xml:space="preserve" font-family="Calibri,Calibri" font-size="24.0" fill="#000000" transform="matrix(1.00, 0.00, -0.00, -1.00, 287.1, 487.4)">e</text><text xml:space="preserve" font-family="Calibri,Calibri" font-size="24.0" fill="#000000" transform="matrix(1.00, 0.00, -0.00, -1.00, 299.1, 487.4)">q</text><text xml:space="preserve" font-family="Calibri,Calibri" font-size="24.0" fill="#000000" transform="matrix(1.00, 0.00, -0.00, -1.00, 311.7, 487.4)">,</text><text xml:space="preserve" font-family="Calibri,Calibri" font-size="24.0" fill="#000000" transform="matrix(1.00, 0.00, -0.00, -1.00, 317.7, 487.4)">n</text><text xml:space="preserve" font-family="Calibri,Calibri" font-size="24.0" fill="#000000" transform="matrix(1.00, 0.00, -0.00, -1.00, 330.1, 487.4)">f</text><text xml:space="preserve" font-family="Calibri,Calibri" font-size="24.0" fill="#000000" transform="matrix(1.00, 0.00, -0.00, -1.00, 335.9, 487.4)">.</text><text xml:space="preserve" font-family="Calibri,Calibri" font-size="24.0" fill="#000000" transform="matrix(1.00, 0.00, -0.00, -1.00, 341.9, 487.4)">c</text><text xml:space="preserve" font-family="Calibri,Calibri" font-size="24.0" fill="#000000" transform="matrix(1.00, 0.00, -0.00, -1.00, 352.1, 487.4)">l</text><text xml:space="preserve" font-family="Calibri,Calibri" font-size="24.0" fill="#000000" transform="matrix(1.00, 0.00, -0.00, -1.00, 357.6, 487.4)">u</text><text xml:space="preserve" font-family="Calibri,Calibri" font-size="24.0" fill="#000000" transform="matrix(1.00, 0.00, -0.00, -1.00, 370.2, 487.4)">s</text><text xml:space="preserve" font-family="Calibri,Calibri" font-size="24.0" fill="#000000" transform="matrix(1.00, 0.00, -0.00, -1.00, 379.4, 487.4)">t</text><text xml:space="preserve" font-family="Calibri,Calibri" font-size="24.0" fill="#000000" transform="matrix(1.00, 0.00, -0.00, -1.00, 387.1, 487.4)">e</text><text xml:space="preserve" font-family="Calibri,Calibri" font-size="24.0" fill="#000000" transform="matrix(1.00, 0.00, -0.00, -1.00, 399.1, 487.4)">r</text><text xml:space="preserve" font-family="Calibri,Calibri" font-size="24.0" fill="#000000" transform="matrix(1.00, 0.00, -0.00, -1.00, 405.4, 487.4)">,</text><text xml:space="preserve" font-family="Calibri,Calibri" font-size="24.0" fill="#000000" transform="matrix(1.00, 0.00, -0.00, -1.00, 411.3, 487.4)">n</text><text xml:space="preserve" font-family="Calibri,Calibri" font-size="24.0" fill="#000000" transform="matrix(1.00, 0.00, -0.00, -1.00, 424.0, 487.4)">c</text><text xml:space="preserve" font-family="Calibri,Calibri" font-size="24.0" fill="#000000" transform="matrix(1.00, 0.00, -0.00, -1.00, 434.1, 487.4)">c</text><text xml:space="preserve" font-family="Calibri,Calibri" font-size="24.0" fill="#000000" transform="matrix(1.00, 0.00, -0.00, -1.00, 444.2, 487.4)">p</text><text xml:space="preserve" font-family="Calibri,Calibri" font-size="24.0" fill="#000000" transform="matrix(1.00, 0.00, -0.00, -1.00, 456.9, 487.4)">-</text><text xml:space="preserve" font-family="Calibri,Calibri" font-size="24.0" fill="#000000" transform="matrix(1.00, 0.00, -0.00, -1.00, 464.2, 487.4)">­</text><text xml:space="preserve" font-family="Calibri,Calibri" font-size="24.0" fill="#000000" transform="matrix(1.00, 0.00, -0.00, -1.00, 464.2, 487.4)">‐</text><text xml:space="preserve" font-family="Calibri,Calibri" font-size="24.0" fill="#000000" transform="matrix(1.00, 0.00, -0.00, -1.00, 471.6, 487.4)">s</text><text xml:space="preserve" font-family="Calibri,Calibri" font-size="24.0" fill="#000000" transform="matrix(1.00, 0.00, -0.00, -1.00, 481.0, 487.4)">i</text><text xml:space="preserve" font-family="Calibri,Calibri" font-size="24.0" fill="#000000" transform="matrix(1.00, 0.00, -0.00, -1.00, 486.5, 487.4)">l</text><text xml:space="preserve" font-family="Calibri,Calibri" font-size="24.0" fill="#000000" transform="matrix(1.00, 0.00, -0.00, -1.00, 492.0, 487.4)">v</text><text xml:space="preserve" font-family="Calibri,Calibri" font-size="24.0" fill="#000000" transform="matrix(1.00, 0.00, -0.00, -1.00, 502.6, 487.4)">e</text><text xml:space="preserve" font-family="Calibri,Calibri" font-size="24.0" fill="#000000" transform="matrix(1.00, 0.00, -0.00, -1.00, 514.5, 487.4)">r</text><text xml:space="preserve" font-family="Calibri,Calibri" font-size="24.0" fill="#000000" transform="matrix(1.00, 0.00, -0.00, -1.00, 522.9, 487.4)">l</text><text xml:space="preserve" font-family="Calibri,Calibri" font-size="24.0" fill="#000000" transform="matrix(1.00, 0.00, -0.00, -1.00, 528.4, 487.4)">i</text><text xml:space="preserve" font-family="Calibri,Calibri" font-size="24.0" fill="#000000" transform="matrix(1.00, 0.00, -0.00, -1.00, 533.9, 487.4)">g</text><text xml:space="preserve" font-family="Calibri,Calibri" font-size="24.0" fill="#000000" transform="matrix(1.00, 0.00, -0.00, -1.00, 545.2, 487.4)">h</text><text xml:space="preserve" font-family="Calibri,Calibri" font-size="24.0" fill="#000000" transform="matrix(1.00, 0.00, -0.00, -1.00, 557.6, 487.4)">t</text><text xml:space="preserve" font-family="Calibri,Calibri" font-size="24.0" fill="#000000" transform="matrix(1.00, 0.00, -0.00, -1.00, 565.6, 487.4)">,</text><text xml:space="preserve" font-family="Calibri,Calibri" font-size="24.0" fill="#000000" transform="matrix(1.00, 0.00, -0.00, -1.00, 571.6, 487.4)">:</text><text xml:space="preserve" font-family="Calibri,Calibri" font-size="24.0" fill="#000000" transform="matrix(1.00, 0.00, -0.00, -1.00, 578.0, 487.4)">e</text><text xml:space="preserve" font-family="Calibri,Calibri" font-size="24.0" fill="#000000" transform="matrix(1.00, 0.00, -0.00, -1.00, 590.0, 487.4)">q</text><text xml:space="preserve" font-family="Calibri,Calibri" font-size="24.0" fill="#000000" transform="matrix(1.00, 0.00, -0.00, -1.00, 602.6, 487.4)">,</text><text xml:space="preserve" font-family="Calibri,Calibri" font-size="24.0" fill="#000000" transform="matrix(1.00, 0.00, -0.00, -1.00, 608.6, 487.4)">:</text><text xml:space="preserve" font-family="Calibri,Calibri" font-size="24.0" fill="#000000" transform="matrix(1.00, 0.00, -0.00, -1.00, 615.0, 487.4)">a</text><text xml:space="preserve" font-family="Calibri,Calibri" font-size="24.0" fill="#000000" transform="matrix(1.00, 0.00, -0.00, -1.00, 626.5, 487.4)">n</text><text xml:space="preserve" font-family="Calibri,Calibri" font-size="24.0" fill="#000000" transform="matrix(1.00, 0.00, -0.00, -1.00, 639.1, 487.4)">d</text><text xml:space="preserve" font-family="Calibri,Calibri" font-size="24.0" fill="#000000" transform="matrix(1.00, 0.00, -0.00, -1.00, 651.7, 487.4)">,</text><text xml:space="preserve" font-family="Calibri,Calibri" font-size="24.0" fill="#000000" transform="matrix(1.00, 0.00, -0.00, -1.00, 657.7, 487.4)">:</text><text xml:space="preserve" font-family="Calibri,Calibri" font-size="24.0" fill="#000000" transform="matrix(1.00, 0.00, -0.00, -1.00, 664.1, 487.4)">s</text><text xml:space="preserve" font-family="Calibri,Calibri" font-size="24.0" fill="#000000" transform="matrix(1.00, 0.00, -0.00, -1.00, 673.5, 487.4)">u</text><text xml:space="preserve" font-family="Calibri,Calibri" font-size="24.0" fill="#000000" transform="matrix(1.00, 0.00, -0.00, -1.00, 686.1, 487.4)">m</text><text xml:space="preserve" font-family="Calibri,Calibri" font-size="24.0" fill="#000000" transform="matrix(1.00, 0.00, -0.00, -1.00, 705.3, 487.4)">	</text><text xml:space="preserve" font-family="Calibri,Calibri" font-size="24.0" fill="#000000" transform="matrix(1.00, 0.00, -0.00, -1.00, 733.3, 487.4)"></text><text xml:space="preserve" font-family="Calibri,Calibri" font-size="24.0" fill="#000000" transform="matrix(1.00, 0.00, -0.00, -1.00, 733.3, 487.4)"> </text><text xml:space="preserve" font-family="Calibri,Calibri" font-size="24.0" fill="#000000" transform="matrix(1.00, 0.00, -0.00, -1.00, 738.7, 487.4)"> </text></g></svg>