<?xml version="1.0" encoding="UTF-8" standalone="no"?><svg xmlns="http://www.w3.org/2000/svg" xmlns:xlink="http://www.w3.org/1999/xlink" clip-rule="evenodd" stroke-miterlimit="10" viewBox="0 0 1024 768"><desc>SVG generated by Keynote</desc><defs><linearGradient id="gradSh2.2" x1="0.0" y1="0.0" x2="100.0" y2="0.0" gradientUnits="userSpaceOnUse" gradientTransform="matrix(0.00, -1.73, -0.34, 0.00, 253.0, 459.0)"><stop offset="0.00000" stop-color="#70BF41"></stop><stop offset="0.00293" stop-color="#6FBF41"></stop><stop offset="0.05718" stop-color="#69BC3F"></stop><stop offset="0.06525" stop-color="#68BC3F"></stop><stop offset="1.00000" stop-color="#00882B"></stop></linearGradient><linearGradient id="gradSh1.3" x1="0.0" y1="0.0" x2="100.0" y2="0.0" gradientUnits="userSpaceOnUse" gradientTransform="matrix(0.00, -3.44, -3.44, 0.00, 269.0, 459.0)"><stop offset="0.00000" stop-color="#51A7F9"></stop><stop offset="0.01100" stop-color="#51A6F9"></stop><stop offset="0.22874" stop-color="#3F98EC"></stop><stop offset="0.23754" stop-color="#3F97EC"></stop><stop offset="0.63636" stop-color="#1F7DD5"></stop><stop offset="0.64516" stop-color="#1F7CD5"></stop><stop offset="0.83944" stop-color="#0F70C9"></stop><stop offset="0.84091" stop-color="#0F6FC9"></stop><stop offset="0.94135" stop-color="#0769C4"></stop><stop offset="0.94282" stop-color="#0769C3"></stop><stop offset="0.99194" stop-color="#0365C1"></stop><stop offset="0.99560" stop-color="#0365C0"></stop><stop offset="1.00000" stop-color="#0365C0"></stop></linearGradient><linearGradient id="gradSh1.4" x1="0.0" y1="0.0" x2="100.0" y2="0.0" gradientUnits="userSpaceOnUse" gradientTransform="matrix(0.00, -0.19, -0.19, 0.00, 160.5, 108.0)"><stop offset="0.00000" stop-color="#51A7F9"></stop><stop offset="0.01100" stop-color="#51A6F9"></stop><stop offset="0.22874" stop-color="#3F98EC"></stop><stop offset="0.23754" stop-color="#3F97EC"></stop><stop offset="0.63636" stop-color="#1F7DD5"></stop><stop offset="0.64516" stop-color="#1F7CD5"></stop><stop offset="0.83944" stop-color="#0F70C9"></stop><stop offset="0.84091" stop-color="#0F6FC9"></stop><stop offset="0.94135" stop-color="#0769C4"></stop><stop offset="0.94282" stop-color="#0769C3"></stop><stop offset="0.99194" stop-color="#0365C1"></stop><stop offset="0.99560" stop-color="#0365C0"></stop><stop offset="1.00000" stop-color="#0365C0"></stop></linearGradient><linearGradient id="gradSh2.5" x1="0.0" y1="0.0" x2="100.0" y2="0.0" gradientUnits="userSpaceOnUse" gradientTransform="matrix(0.00, -0.19, -0.19, 0.00, 310.5, 108.0)"><stop offset="0.00000" stop-color="#70BF41"></stop><stop offset="0.00293" stop-color="#6FBF41"></stop><stop offset="0.05718" stop-color="#69BC3F"></stop><stop offset="0.06525" stop-color="#68BC3F"></stop><stop offset="1.00000" stop-color="#00882B"></stop></linearGradient><linearGradient id="gradSh3.6" x1="0.0" y1="0.0" x2="100.0" y2="0.0" gradientUnits="userSpaceOnUse" gradientTransform="matrix(0.00, -2.46, -1.73, 0.00, 654.5, 459.0)"><stop offset="0.00000" stop-color="#FBE12B"></stop><stop offset="0.00513" stop-color="#FBE02B"></stop><stop offset="0.68842" stop-color="#D1B01F"></stop><stop offset="0.69721" stop-color="#D1AF1F"></stop><stop offset="1.00000" stop-color="#BE9A1A"></stop></linearGradient><linearGradient id="gradSh2.7" x1="0.0" y1="0.0" x2="100.0" y2="0.0" gradientUnits="userSpaceOnUse" gradientTransform="matrix(0.00, -1.73, -2.48, 0.00, 708.5, 288.0)"><stop offset="0.00000" stop-color="#70BF41"></stop><stop offset="0.00293" stop-color="#6FBF41"></stop><stop offset="0.05718" stop-color="#69BC3F"></stop><stop offset="0.06525" stop-color="#68BC3F"></stop><stop offset="1.00000" stop-color="#00882B"></stop></linearGradient><linearGradient id="gradSh1.8" x1="0.0" y1="0.0" x2="100.0" y2="0.0" gradientUnits="userSpaceOnUse" gradientTransform="matrix(0.00, -3.17, -1.73, 0.00, 825.5, 459.0)"><stop offset="0.00000" stop-color="#51A7F9"></stop><stop offset="0.01100" stop-color="#51A6F9"></stop><stop offset="0.22874" stop-color="#3F98EC"></stop><stop offset="0.23754" stop-color="#3F97EC"></stop><stop offset="0.63636" stop-color="#1F7DD5"></stop><stop offset="0.64516" stop-color="#1F7CD5"></stop><stop offset="0.83944" stop-color="#0F70C9"></stop><stop offset="0.84091" stop-color="#0F6FC9"></stop><stop offset="0.94135" stop-color="#0769C4"></stop><stop offset="0.94282" stop-color="#0769C3"></stop><stop offset="0.99194" stop-color="#0365C1"></stop><stop offset="0.99560" stop-color="#0365C0"></stop><stop offset="1.00000" stop-color="#0365C0"></stop></linearGradient><linearGradient id="gradSh1.9" x1="0.0" y1="0.0" x2="100.0" y2="0.0" gradientUnits="userSpaceOnUse" gradientTransform="matrix(0.00, -0.19, -0.19, 0.00, 570.5, 108.0)"><stop offset="0.00000" stop-color="#51A7F9"></stop><stop offset="0.01100" stop-color="#51A6F9"></stop><stop offset="0.22874" stop-color="#3F98EC"></stop><stop offset="0.23754" stop-color="#3F97EC"></stop><stop offset="0.63636" stop-color="#1F7DD5"></stop><stop offset="0.64516" stop-color="#1F7CD5"></stop><stop offset="0.83944" stop-color="#0F70C9"></stop><stop offset="0.84091" stop-color="#0F6FC9"></stop><stop offset="0.94135" stop-color="#0769C4"></stop><stop offset="0.94282" stop-color="#0769C3"></stop><stop offset="0.99194" stop-color="#0365C1"></stop><stop offset="0.99560" stop-color="#0365C0"></stop><stop offset="1.00000" stop-color="#0365C0"></stop></linearGradient><linearGradient id="gradSh2.10" x1="0.0" y1="0.0" x2="100.0" y2="0.0" gradientUnits="userSpaceOnUse" gradientTransform="matrix(0.00, -0.19, -0.19, 0.00, 684.5, 108.0)"><stop offset="0.00000" stop-color="#70BF41"></stop><stop offset="0.00293" stop-color="#6FBF41"></stop><stop offset="0.05718" stop-color="#69BC3F"></stop><stop offset="0.06525" stop-color="#68BC3F"></stop><stop offset="1.00000" stop-color="#00882B"></stop></linearGradient><linearGradient id="gradSh3.11" x1="0.0" y1="0.0" x2="100.0" y2="0.0" gradientUnits="userSpaceOnUse" gradientTransform="matrix(0.00, -0.19, -0.19, 0.00, 808.5, 108.0)"><stop offset="0.00000" stop-color="#FBE12B"></stop><stop offset="0.00513" stop-color="#FBE02B"></stop><stop offset="0.68842" stop-color="#D1B01F"></stop><stop offset="0.69721" stop-color="#D1AF1F"></stop><stop offset="1.00000" stop-color="#BE9A1A"></stop></linearGradient></defs><g transform="matrix(1.00, 0.00, -0.00, -1.00, 0.0, 768.0)"><path d="M 0.0 768.0 L 1024.0 768.0 L 1024.0 0.0 L 0.0 0.0 Z M 0.0 768.0 " fill="#FEFFFF"></path><text xml:space="preserve" font-family="Helvetica-Light,Helvetica" font-size="80.0" fill="#000000" transform="matrix(1.00, 0.00, -0.00, -1.00, 243.0, 618.4)">A</text><text xml:space="preserve" font-family="Helvetica-Light,Helvetica" font-size="80.0" fill="#000000" transform="matrix(1.00, 0.00, -0.00, -1.00, 296.4, 618.4)">m</text><text xml:space="preserve" font-family="Helvetica-Light,Helvetica" font-size="80.0" fill="#000000" transform="matrix(1.00, 0.00, -0.00, -1.00, 363.0, 618.4)">o</text><text xml:space="preserve" font-family="Helvetica-Light,Helvetica" font-size="80.0" fill="#000000" transform="matrix(1.00, 0.00, -0.00, -1.00, 407.5, 618.4)">u</text><text xml:space="preserve" font-family="Helvetica-Light,Helvetica" font-size="80.0" fill="#000000" transform="matrix(1.00, 0.00, -0.00, -1.00, 452.0, 618.4)">n</text><text xml:space="preserve" font-family="Helvetica-Light,Helvetica" font-size="80.0" fill="#000000" transform="matrix(1.00, 0.00, -0.00, -1.00, 496.4, 618.4)">t</text><text xml:space="preserve" font-family="Helvetica-Light,Helvetica" font-size="80.0" fill="#000000" transform="matrix(1.00, 0.00, -0.00, -1.00, 518.7, 618.4)"> </text><text xml:space="preserve" font-family="Helvetica-Light,Helvetica" font-size="80.0" fill="#000000" transform="matrix(1.00, 0.00, -0.00, -1.00, 540.9, 618.4)">o</text><text xml:space="preserve" font-family="Helvetica-Light,Helvetica" font-size="80.0" fill="#000000" transform="matrix(1.00, 0.00, -0.00, -1.00, 585.4, 618.4)">f</text><text xml:space="preserve" font-family="Helvetica-Light,Helvetica" font-size="80.0" fill="#000000" transform="matrix(1.00, 0.00, -0.00, -1.00, 607.6, 618.4)"> </text><text xml:space="preserve" font-family="Helvetica-Light,Helvetica" font-size="80.0" fill="#000000" transform="matrix(1.00, 0.00, -0.00, -1.00, 629.9, 618.4)">t</text><text xml:space="preserve" font-family="Helvetica-Light,Helvetica" font-size="80.0" fill="#000000" transform="matrix(1.00, 0.00, -0.00, -1.00, 652.1, 618.4)">i</text><text xml:space="preserve" font-family="Helvetica-Light,Helvetica" font-size="80.0" fill="#000000" transform="matrix(1.00, 0.00, -0.00, -1.00, 669.9, 618.4)">m</text><text xml:space="preserve" font-family="Helvetica-Light,Helvetica" font-size="80.0" fill="#000000" transform="matrix(1.00, 0.00, -0.00, -1.00, 736.5, 618.4)">e</text><path d="M 75.0 544.0 L 453.0 544.0 L 453.0 86.0 L 75.0 86.0 Z M 75.0 544.0 " fill="#000000" fill-opacity="0.00"></path><g><clipPath id="clip0x7f86a0692500"><path d="M 96.5 481.1 L 441.5 481.1 L 441.5 545.1 L 96.5 545.1 Z M 96.5 481.1 "></path></clipPath><g clip-path="url(#clip0x7f86a0692500)"><text xml:space="preserve" font-family="Helvetica-Light,Helvetica" font-size="26.0" fill="#000000" transform="matrix(1.00, 0.00, -0.00, -1.00, 146.2, 519.1)">T</text><text xml:space="preserve" font-family="Helvetica-Light,Helvetica" font-size="26.0" fill="#000000" transform="matrix(1.00, 0.00, -0.00, -1.00, 160.6, 519.1)">i</text><text xml:space="preserve" font-family="Helvetica-Light,Helvetica" font-size="26.0" fill="#000000" transform="matrix(1.00, 0.00, -0.00, -1.00, 166.4, 519.1)">m</text><text xml:space="preserve" font-family="Helvetica-Light,Helvetica" font-size="26.0" fill="#000000" transform="matrix(1.00, 0.00, -0.00, -1.00, 188.1, 519.1)">e</text><text xml:space="preserve" font-family="Helvetica-Light,Helvetica" font-size="26.0" fill="#000000" transform="matrix(1.00, 0.00, -0.00, -1.00, 202.5, 519.1)"> </text><text xml:space="preserve" font-family="Helvetica-Light,Helvetica" font-size="26.0" fill="#000000" transform="matrix(1.00, 0.00, -0.00, -1.00, 209.8, 519.1)">r</text><text xml:space="preserve" font-family="Helvetica-Light,Helvetica" font-size="26.0" fill="#000000" transform="matrix(1.00, 0.00, -0.00, -1.00, 218.4, 519.1)">a</text><text xml:space="preserve" font-family="Helvetica-Light,Helvetica" font-size="26.0" fill="#000000" transform="matrix(1.00, 0.00, -0.00, -1.00, 232.9, 519.1)">n</text><text xml:space="preserve" font-family="Helvetica-Light,Helvetica" font-size="26.0" fill="#000000" transform="matrix(1.00, 0.00, -0.00, -1.00, 247.3, 519.1)">g</text><text xml:space="preserve" font-family="Helvetica-Light,Helvetica" font-size="26.0" fill="#000000" transform="matrix(1.00, 0.00, -0.00, -1.00, 263.2, 519.1)">e</text><text xml:space="preserve" font-family="Helvetica-Light,Helvetica" font-size="26.0" fill="#000000" transform="matrix(1.00, 0.00, -0.00, -1.00, 277.7, 519.1)"> </text><text xml:space="preserve" font-family="Helvetica-Light,Helvetica" font-size="26.0" fill="#000000" transform="matrix(1.00, 0.00, -0.00, -1.00, 284.9, 519.1)">f</text><text xml:space="preserve" font-family="Helvetica-Light,Helvetica" font-size="26.0" fill="#000000" transform="matrix(1.00, 0.00, -0.00, -1.00, 292.1, 519.1)">o</text><text xml:space="preserve" font-family="Helvetica-Light,Helvetica" font-size="26.0" fill="#000000" transform="matrix(1.00, 0.00, -0.00, -1.00, 306.6, 519.1)">r</text><text xml:space="preserve" font-family="Helvetica-Light,Helvetica" font-size="26.0" fill="#000000" transform="matrix(1.00, 0.00, -0.00, -1.00, 315.2, 519.1)"> </text><text xml:space="preserve" font-family="Helvetica-Light,Helvetica" font-size="26.0" fill="#000000" transform="matrix(1.00, 0.00, -0.00, -1.00, 322.5, 519.1)">g</text><text xml:space="preserve" font-family="Helvetica-Light,Helvetica" font-size="26.0" fill="#000000" transform="matrix(1.00, 0.00, -0.00, -1.00, 338.4, 519.1)">r</text><text xml:space="preserve" font-family="Helvetica-Light,Helvetica" font-size="26.0" fill="#000000" transform="matrix(1.00, 0.00, -0.00, -1.00, 347.0, 519.1)">a</text><text xml:space="preserve" font-family="Helvetica-Light,Helvetica" font-size="26.0" fill="#000000" transform="matrix(1.00, 0.00, -0.00, -1.00, 361.5, 519.1)">p</text><text xml:space="preserve" font-family="Helvetica-Light,Helvetica" font-size="26.0" fill="#000000" transform="matrix(1.00, 0.00, -0.00, -1.00, 377.4, 519.1)">h</text><text xml:space="preserve" font-family="Helvetica-Light,Helvetica" font-size="26.0" fill="#000000" transform="matrix(1.00, 0.00, -0.00, -1.00, 391.8, 519.1)"> </text><text xml:space="preserve" font-family="Helvetica-Light,Helvetica" font-size="26.0" fill="#000000" transform="matrix(1.00, 0.00, -0.00, -1.00, 218.7, 488.1)">r</text><text xml:space="preserve" font-family="Helvetica-Light,Helvetica" font-size="26.0" fill="#000000" transform="matrix(1.00, 0.00, -0.00, -1.00, 226.9, 488.1)">e</text><text xml:space="preserve" font-family="Helvetica-Light,Helvetica" font-size="26.0" fill="#000000" transform="matrix(1.00, 0.00, -0.00, -1.00, 241.3, 488.1)">q</text><text xml:space="preserve" font-family="Helvetica-Light,Helvetica" font-size="26.0" fill="#000000" transform="matrix(1.00, 0.00, -0.00, -1.00, 257.2, 488.1)">u</text><text xml:space="preserve" font-family="Helvetica-Light,Helvetica" font-size="26.0" fill="#000000" transform="matrix(1.00, 0.00, -0.00, -1.00, 271.7, 488.1)">e</text><text xml:space="preserve" font-family="Helvetica-Light,Helvetica" font-size="26.0" fill="#000000" transform="matrix(1.00, 0.00, -0.00, -1.00, 286.1, 488.1)">s</text><text xml:space="preserve" font-family="Helvetica-Light,Helvetica" font-size="26.0" fill="#000000" transform="matrix(1.00, 0.00, -0.00, -1.00, 299.1, 488.1)">t</text><text xml:space="preserve" font-family="Helvetica-Light,Helvetica" font-size="26.0" fill="#000000" transform="matrix(1.00, 0.00, -0.00, -1.00, 306.3, 488.1)">s</text></g></g><g><g><clipPath id="clip0x7f86a317f540"><path d="M 0.0 0.0 L 1024.0 0.0 L 1024.0 768.0 L 0.0 768.0 Z M 0.0 0.0 "></path></clipPath><g clip-path="url(#clip0x7f86a317f540)"><g><g><clipPath id="clip0x7f86a3180fc0"><path d="M 269.0 287.0 L 269.0 458.0 C 258.2 458.0 247.5 457.0 237.0 455.0 Z M 269.0 287.0 "></path></clipPath><g clip-path="url(#clip0x7f86a3180fc0)"><g><clipPath id="clip0x7f86a31816f0"><path d="M 0.0 0.0 L 1024.0 0.0 L 1024.0 768.0 L 0.0 768.0 Z M 0.0 0.0 "></path></clipPath><g clip-path="url(#clip0x7f86a31816f0)"><path d="M 0.0 0.0 L 1024.0 0.0 L 1024.0 768.0 L 0.0 768.0 Z M 0.0 0.0 " fill="url(#gradSh2.2)"></path></g></g></g></g></g></g></g><g><clipPath id="clip0x7f86a31803a0"><path d="M 0.0 0.0 L 1024.0 0.0 L 1024.0 768.0 L 0.0 768.0 Z M 0.0 0.0 "></path></clipPath><g clip-path="url(#clip0x7f86a31803a0)"><g><g><clipPath id="clip0x7f86a31cf7a0"><path d="M 269.0 287.0 L 237.0 455.0 C 144.2 437.3 83.3 347.7 101.0 255.0 C 118.7 162.2 208.3 101.3 301.0 119.0 C 393.8 136.7 454.7 226.3 437.0 319.0 C 421.6 399.7 351.1 458.0 269.0 458.0 Z M 269.0 287.0 "></path></clipPath><g clip-path="url(#clip0x7f86a31cf7a0)"><g><clipPath id="clip0x7f86a31cffd0"><path d="M 0.0 0.0 L 1024.0 0.0 L 1024.0 768.0 L 0.0 768.0 Z M 0.0 0.0 "></path></clipPath><g clip-path="url(#clip0x7f86a31cffd0)"><path d="M 0.0 0.0 L 1024.0 0.0 L 1024.0 768.0 L 0.0 768.0 Z M 0.0 0.0 " fill="url(#gradSh1.3)"></path></g></g></g></g></g></g></g></g><g><image xlink:href="BEF61C23E756B7ED2BA01C5D1F8C97F5.png" width="40.00" height="24.00" transform="matrix(1.00, 0.00, -0.00, -1.00, 237.0, 410.0)"></image><g><clipPath id="clip0x7f86a269de70"><path d="M 236.0 381.0 L 280.0 381.0 L 280.0 417.0 L 236.0 417.0 Z M 236.0 381.0 "></path></clipPath><g clip-path="url(#clip0x7f86a269de70)"><text xml:space="preserve" font-family="Helvetica-Light,Helvetica" font-size="26.0" fill="#FEFFFE" transform="matrix(1.00, 0.00, -0.00, -1.00, 239.4, 391.1)">3</text><text xml:space="preserve" font-family="Helvetica-Light,Helvetica" font-size="26.0" fill="#FEFFFE" transform="matrix(1.00, 0.00, -0.00, -1.00, 253.9, 391.1)">%</text></g></g></g><g><image xlink:href="90E0FF4C51763185303FD47A6F0D2C01.png" width="54.00" height="24.00" transform="matrix(1.00, 0.00, -0.00, -1.00, 252.0, 182.0)"></image><g><clipPath id="clip0x7f86a26a5ff0"><path d="M 251.0 153.0 L 309.0 153.0 L 309.0 189.0 L 251.0 189.0 Z M 251.0 153.0 "></path></clipPath><g clip-path="url(#clip0x7f86a26a5ff0)"><text xml:space="preserve" font-family="Helvetica-Light,Helvetica" font-size="26.0" fill="#FEFFFE" transform="matrix(1.00, 0.00, -0.00, -1.00, 253.8, 163.0)">9</text><text xml:space="preserve" font-family="Helvetica-Light,Helvetica" font-size="26.0" fill="#FEFFFE" transform="matrix(1.00, 0.00, -0.00, -1.00, 268.2, 163.0)">7</text><text xml:space="preserve" font-family="Helvetica-Light,Helvetica" font-size="26.0" fill="#FEFFFE" transform="matrix(1.00, 0.00, -0.00, -1.00, 282.7, 163.0)">%</text></g></g></g><g><clipPath id="clip0x7f86a26a32e0"><path d="M 169.0 98.5 C 169.0 93.8 165.2 90.0 160.5 90.0 C 155.8 90.0 152.0 93.8 152.0 98.5 C 152.0 103.2 155.8 107.0 160.5 107.0 C 165.2 107.0 169.0 103.2 169.0 98.5 Z M 169.0 98.5 "></path></clipPath><g clip-path="url(#clip0x7f86a26a32e0)"><g><clipPath id="clip0x7f86a26a85a0"><path d="M 169.0 98.5 C 169.0 93.8 165.2 90.0 160.5 90.0 C 155.8 90.0 152.0 93.8 152.0 98.5 C 152.0 103.2 155.8 107.0 160.5 107.0 C 165.2 107.0 169.0 103.2 169.0 98.5 Z M 169.0 98.5 "></path></clipPath><g clip-path="url(#clip0x7f86a26a85a0)"><path d="M 169.0 98.5 C 169.0 93.8 165.2 90.0 160.5 90.0 C 155.8 90.0 152.0 93.8 152.0 98.5 C 152.0 103.2 155.8 107.0 160.5 107.0 C 165.2 107.0 169.0 103.2 169.0 98.5 Z M 169.0 98.5 " fill="url(#gradSh1.4)"></path></g></g></g></g><text xml:space="preserve" font-family="Helvetica-Light,Helvetica" font-size="22.0" fill="#000000" transform="matrix(1.00, 0.00, -0.00, -1.00, 181.9, 91.0)">&lt;</text><text xml:space="preserve" font-family="Helvetica-Light,Helvetica" font-size="22.0" fill="#000000" transform="matrix(1.00, 0.00, -0.00, -1.00, 196.5, 91.0)">1</text><text xml:space="preserve" font-family="Helvetica-Light,Helvetica" font-size="22.0" fill="#000000" transform="matrix(1.00, 0.00, -0.00, -1.00, 208.7, 91.0)">w</text><g><clipPath id="clip0x7f86a26fabd0"><path d="M 319.0 98.5 C 319.0 93.8 315.2 90.0 310.5 90.0 C 305.8 90.0 302.0 93.8 302.0 98.5 C 302.0 103.2 305.8 107.0 310.5 107.0 C 315.2 107.0 319.0 103.2 319.0 98.5 Z M 319.0 98.5 "></path></clipPath><g clip-path="url(#clip0x7f86a26fabd0)"><g><clipPath id="clip0x7f86a26fb480"><path d="M 319.0 98.5 C 319.0 93.8 315.2 90.0 310.5 90.0 C 305.8 90.0 302.0 93.8 302.0 98.5 C 302.0 103.2 305.8 107.0 310.5 107.0 C 315.2 107.0 319.0 103.2 319.0 98.5 Z M 319.0 98.5 "></path></clipPath><g clip-path="url(#clip0x7f86a26fb480)"><path d="M 319.0 98.5 C 319.0 93.8 315.2 90.0 310.5 90.0 C 305.8 90.0 302.0 93.8 302.0 98.5 C 302.0 103.2 305.8 107.0 310.5 107.0 C 315.2 107.0 319.0 103.2 319.0 98.5 Z M 319.0 98.5 " fill="url(#gradSh2.5)"></path></g></g></g></g><text xml:space="preserve" font-family="Helvetica-Light,Helvetica" font-size="22.0" fill="#000000" transform="matrix(1.00, 0.00, -0.00, -1.00, 332.3, 91.0)">&gt;</text><text xml:space="preserve" font-family="Helvetica-Light,Helvetica" font-size="22.0" fill="#000000" transform="matrix(1.00, 0.00, -0.00, -1.00, 346.8, 91.0)">1</text><text xml:space="preserve" font-family="Helvetica-Light,Helvetica" font-size="22.0" fill="#000000" transform="matrix(1.00, 0.00, -0.00, -1.00, 359.0, 91.0)">w</text><path d="M 546.0 544.0 L 924.0 544.0 L 924.0 86.0 L 546.0 86.0 Z M 546.0 544.0 " fill="#000000" fill-opacity="0.00"></path><g><clipPath id="clip0x7f86a3352c90"><path d="M 567.5 481.1 L 912.5 481.1 L 912.5 545.1 L 567.5 545.1 Z M 567.5 481.1 "></path></clipPath><g clip-path="url(#clip0x7f86a3352c90)"><text xml:space="preserve" font-family="Helvetica-Light,Helvetica" font-size="26.0" fill="#000000" transform="matrix(1.00, 0.00, -0.00, -1.00, 617.2, 519.1)">T</text><text xml:space="preserve" font-family="Helvetica-Light,Helvetica" font-size="26.0" fill="#000000" transform="matrix(1.00, 0.00, -0.00, -1.00, 631.6, 519.1)">i</text><text xml:space="preserve" font-family="Helvetica-Light,Helvetica" font-size="26.0" fill="#000000" transform="matrix(1.00, 0.00, -0.00, -1.00, 637.4, 519.1)">m</text><text xml:space="preserve" font-family="Helvetica-Light,Helvetica" font-size="26.0" fill="#000000" transform="matrix(1.00, 0.00, -0.00, -1.00, 659.1, 519.1)">e</text><text xml:space="preserve" font-family="Helvetica-Light,Helvetica" font-size="26.0" fill="#000000" transform="matrix(1.00, 0.00, -0.00, -1.00, 673.5, 519.1)"> </text><text xml:space="preserve" font-family="Helvetica-Light,Helvetica" font-size="26.0" fill="#000000" transform="matrix(1.00, 0.00, -0.00, -1.00, 680.8, 519.1)">r</text><text xml:space="preserve" font-family="Helvetica-Light,Helvetica" font-size="26.0" fill="#000000" transform="matrix(1.00, 0.00, -0.00, -1.00, 689.4, 519.1)">a</text><text xml:space="preserve" font-family="Helvetica-Light,Helvetica" font-size="26.0" fill="#000000" transform="matrix(1.00, 0.00, -0.00, -1.00, 703.9, 519.1)">n</text><text xml:space="preserve" font-family="Helvetica-Light,Helvetica" font-size="26.0" fill="#000000" transform="matrix(1.00, 0.00, -0.00, -1.00, 718.3, 519.1)">g</text><text xml:space="preserve" font-family="Helvetica-Light,Helvetica" font-size="26.0" fill="#000000" transform="matrix(1.00, 0.00, -0.00, -1.00, 734.2, 519.1)">e</text><text xml:space="preserve" font-family="Helvetica-Light,Helvetica" font-size="26.0" fill="#000000" transform="matrix(1.00, 0.00, -0.00, -1.00, 748.7, 519.1)"> </text><text xml:space="preserve" font-family="Helvetica-Light,Helvetica" font-size="26.0" fill="#000000" transform="matrix(1.00, 0.00, -0.00, -1.00, 755.9, 519.1)">f</text><text xml:space="preserve" font-family="Helvetica-Light,Helvetica" font-size="26.0" fill="#000000" transform="matrix(1.00, 0.00, -0.00, -1.00, 763.1, 519.1)">o</text><text xml:space="preserve" font-family="Helvetica-Light,Helvetica" font-size="26.0" fill="#000000" transform="matrix(1.00, 0.00, -0.00, -1.00, 777.6, 519.1)">r</text><text xml:space="preserve" font-family="Helvetica-Light,Helvetica" font-size="26.0" fill="#000000" transform="matrix(1.00, 0.00, -0.00, -1.00, 786.2, 519.1)"> </text><text xml:space="preserve" font-family="Helvetica-Light,Helvetica" font-size="26.0" fill="#000000" transform="matrix(1.00, 0.00, -0.00, -1.00, 793.5, 519.1)">g</text><text xml:space="preserve" font-family="Helvetica-Light,Helvetica" font-size="26.0" fill="#000000" transform="matrix(1.00, 0.00, -0.00, -1.00, 809.4, 519.1)">r</text><text xml:space="preserve" font-family="Helvetica-Light,Helvetica" font-size="26.0" fill="#000000" transform="matrix(1.00, 0.00, -0.00, -1.00, 818.0, 519.1)">a</text><text xml:space="preserve" font-family="Helvetica-Light,Helvetica" font-size="26.0" fill="#000000" transform="matrix(1.00, 0.00, -0.00, -1.00, 832.5, 519.1)">p</text><text xml:space="preserve" font-family="Helvetica-Light,Helvetica" font-size="26.0" fill="#000000" transform="matrix(1.00, 0.00, -0.00, -1.00, 848.4, 519.1)">h</text><text xml:space="preserve" font-family="Helvetica-Light,Helvetica" font-size="26.0" fill="#000000" transform="matrix(1.00, 0.00, -0.00, -1.00, 862.8, 519.1)"> </text><text xml:space="preserve" font-family="Helvetica-Light,Helvetica" font-size="26.0" fill="#000000" transform="matrix(1.00, 0.00, -0.00, -1.00, 629.0, 488.1)">r</text><text xml:space="preserve" font-family="Helvetica-Light,Helvetica" font-size="26.0" fill="#000000" transform="matrix(1.00, 0.00, -0.00, -1.00, 637.2, 488.1)">e</text><text xml:space="preserve" font-family="Helvetica-Light,Helvetica" font-size="26.0" fill="#000000" transform="matrix(1.00, 0.00, -0.00, -1.00, 651.6, 488.1)">q</text><text xml:space="preserve" font-family="Helvetica-Light,Helvetica" font-size="26.0" fill="#000000" transform="matrix(1.00, 0.00, -0.00, -1.00, 667.5, 488.1)">u</text><text xml:space="preserve" font-family="Helvetica-Light,Helvetica" font-size="26.0" fill="#000000" transform="matrix(1.00, 0.00, -0.00, -1.00, 682.0, 488.1)">e</text><text xml:space="preserve" font-family="Helvetica-Light,Helvetica" font-size="26.0" fill="#000000" transform="matrix(1.00, 0.00, -0.00, -1.00, 696.4, 488.1)">s</text><text xml:space="preserve" font-family="Helvetica-Light,Helvetica" font-size="26.0" fill="#000000" transform="matrix(1.00, 0.00, -0.00, -1.00, 709.4, 488.1)">t</text><text xml:space="preserve" font-family="Helvetica-Light,Helvetica" font-size="26.0" fill="#000000" transform="matrix(1.00, 0.00, -0.00, -1.00, 716.7, 488.1)">s</text><text xml:space="preserve" font-family="Helvetica-Light,Helvetica" font-size="26.0" fill="#000000" transform="matrix(1.00, 0.00, -0.00, -1.00, 729.7, 488.1)"> </text><text xml:space="preserve" font-family="Helvetica-Light,Helvetica" font-size="26.0" fill="#000000" transform="matrix(1.00, 0.00, -0.00, -1.00, 736.9, 488.1)">w</text><text xml:space="preserve" font-family="Helvetica-Light,Helvetica" font-size="26.0" fill="#000000" transform="matrix(1.00, 0.00, -0.00, -1.00, 755.7, 488.1)">i</text><text xml:space="preserve" font-family="Helvetica-Light,Helvetica" font-size="26.0" fill="#000000" transform="matrix(1.00, 0.00, -0.00, -1.00, 761.4, 488.1)">t</text><text xml:space="preserve" font-family="Helvetica-Light,Helvetica" font-size="26.0" fill="#000000" transform="matrix(1.00, 0.00, -0.00, -1.00, 768.7, 488.1)">h</text><text xml:space="preserve" font-family="Helvetica-Light,Helvetica" font-size="26.0" fill="#000000" transform="matrix(1.00, 0.00, -0.00, -1.00, 783.1, 488.1)"> </text><text xml:space="preserve" font-family="Helvetica-Light,Helvetica" font-size="26.0" fill="#000000" transform="matrix(1.00, 0.00, -0.00, -1.00, 790.3, 488.1)">s</text><text xml:space="preserve" font-family="Helvetica-Light,Helvetica" font-size="26.0" fill="#000000" transform="matrix(1.00, 0.00, -0.00, -1.00, 803.3, 488.1)">h</text><text xml:space="preserve" font-family="Helvetica-Light,Helvetica" font-size="26.0" fill="#000000" transform="matrix(1.00, 0.00, -0.00, -1.00, 817.8, 488.1)">i</text><text xml:space="preserve" font-family="Helvetica-Light,Helvetica" font-size="26.0" fill="#000000" transform="matrix(1.00, 0.00, -0.00, -1.00, 823.6, 488.1)">f</text><text xml:space="preserve" font-family="Helvetica-Light,Helvetica" font-size="26.0" fill="#000000" transform="matrix(1.00, 0.00, -0.00, -1.00, 830.8, 488.1)">t</text><text xml:space="preserve" font-family="Helvetica-Light,Helvetica" font-size="26.0" fill="#000000" transform="matrix(1.00, 0.00, -0.00, -1.00, 838.0, 488.1)">s</text></g></g><g><g><clipPath id="clip0x7f86a33653e0"><path d="M 0.0 0.0 L 1024.0 0.0 L 1024.0 768.0 L 0.0 768.0 Z M 0.0 0.0 "></path></clipPath><g clip-path="url(#clip0x7f86a33653e0)"><g><g><clipPath id="clip0x7f86a3366ed0"><path d="M 740.0 287.0 L 740.0 458.0 C 645.6 458.0 569.0 381.4 569.0 287.0 C 569.0 261.8 574.6 237.0 585.3 214.2 Z M 740.0 287.0 "></path></clipPath><g clip-path="url(#clip0x7f86a3366ed0)"><g><clipPath id="clip0x7f86a33675d0"><path d="M 0.0 0.0 L 1024.0 0.0 L 1024.0 768.0 L 0.0 768.0 Z M 0.0 0.0 "></path></clipPath><g clip-path="url(#clip0x7f86a33675d0)"><path d="M 0.0 0.0 L 1024.0 0.0 L 1024.0 768.0 L 0.0 768.0 Z M 0.0 0.0 " fill="url(#gradSh3.6)"></path></g></g></g></g></g></g></g><g><clipPath id="clip0x7f86a3366260"><path d="M 0.0 0.0 L 1024.0 0.0 L 1024.0 768.0 L 0.0 768.0 Z M 0.0 0.0 "></path></clipPath><g clip-path="url(#clip0x7f86a3366260)"><g><g><clipPath id="clip0x7f86a33ba4b0"><path d="M 740.0 287.0 L 585.3 214.2 C 625.5 128.7 727.4 92.1 812.8 132.3 C 819.3 135.3 825.6 138.8 831.6 142.6 Z M 740.0 287.0 "></path></clipPath><g clip-path="url(#clip0x7f86a33ba4b0)"><g><clipPath id="clip0x7f86a33babb0"><path d="M 0.0 0.0 L 1024.0 0.0 L 1024.0 768.0 L 0.0 768.0 Z M 0.0 0.0 "></path></clipPath><g clip-path="url(#clip0x7f86a33babb0)"><path d="M 0.0 0.0 L 1024.0 0.0 L 1024.0 768.0 L 0.0 768.0 Z M 0.0 0.0 " fill="url(#gradSh2.7)"></path></g></g></g></g></g></g></g><g><clipPath id="clip0x7f86a33b9800"><path d="M 0.0 0.0 L 1024.0 0.0 L 1024.0 768.0 L 0.0 768.0 Z M 0.0 0.0 "></path></clipPath><g clip-path="url(#clip0x7f86a33b9800)"><g><g><clipPath id="clip0x7f86a34115d0"><path d="M 740.0 287.0 L 831.6 142.6 C 911.4 193.2 935.0 298.9 884.4 378.6 C 853.0 428.1 798.5 458.0 740.0 458.0 Z M 740.0 287.0 "></path></clipPath><g clip-path="url(#clip0x7f86a34115d0)"><g><clipPath id="clip0x7f86a3411cd0"><path d="M 0.0 0.0 L 1024.0 0.0 L 1024.0 768.0 L 0.0 768.0 Z M 0.0 0.0 "></path></clipPath><g clip-path="url(#clip0x7f86a3411cd0)"><path d="M 0.0 0.0 L 1024.0 0.0 L 1024.0 768.0 L 0.0 768.0 Z M 0.0 0.0 " fill="url(#gradSh1.8)"></path></g></g></g></g></g></g></g></g><g><image xlink:href="1BE9B479C92FA766CD3A1783F2912A56.png" width="55.00" height="24.00" transform="matrix(1.00, 0.00, -0.00, -1.00, 615.0, 357.0)"></image><g><clipPath id="clip0x7f86a34655c0"><path d="M 614.0 328.0 L 672.0 328.0 L 672.0 364.0 L 614.0 364.0 Z M 614.0 328.0 "></path></clipPath><g clip-path="url(#clip0x7f86a34655c0)"><text xml:space="preserve" font-family="Helvetica-Light,Helvetica" font-size="26.0" fill="#FEFFFE" transform="matrix(1.00, 0.00, -0.00, -1.00, 617.3, 338.5)">3</text><text xml:space="preserve" font-family="Helvetica-Light,Helvetica" font-size="26.0" fill="#FEFFFE" transform="matrix(1.00, 0.00, -0.00, -1.00, 631.7, 338.5)">2</text><text xml:space="preserve" font-family="Helvetica-Light,Helvetica" font-size="26.0" fill="#FEFFFE" transform="matrix(1.00, 0.00, -0.00, -1.00, 646.2, 338.5)">%</text></g></g></g><g><image xlink:href="922AE4EE721D11767F18014FA7C8F63B.png" width="53.00" height="24.00" transform="matrix(1.00, 0.00, -0.00, -1.00, 681.0, 186.0)"></image><g><clipPath id="clip0x7f86a3469780"><path d="M 679.0 157.0 L 737.0 157.0 L 737.0 193.0 L 679.0 193.0 Z M 679.0 157.0 "></path></clipPath><g clip-path="url(#clip0x7f86a3469780)"><text xml:space="preserve" font-family="Helvetica-Light,Helvetica" font-size="26.0" fill="#FEFFFE" transform="matrix(1.00, 0.00, -0.00, -1.00, 682.0, 167.1)">2</text><text xml:space="preserve" font-family="Helvetica-Light,Helvetica" font-size="26.0" fill="#FEFFFE" transform="matrix(1.00, 0.00, -0.00, -1.00, 696.5, 167.1)">7</text><text xml:space="preserve" font-family="Helvetica-Light,Helvetica" font-size="26.0" fill="#FEFFFE" transform="matrix(1.00, 0.00, -0.00, -1.00, 710.9, 167.1)">%</text></g></g></g><g><image xlink:href="2A4FA342D9167E90E4B99CAFD8B65474.png" width="54.00" height="24.00" transform="matrix(1.00, 0.00, -0.00, -1.00, 822.0, 328.0)"></image><g><clipPath id="clip0x7f86a346d8c0"><path d="M 821.0 299.0 L 879.0 299.0 L 879.0 335.0 L 821.0 335.0 Z M 821.0 299.0 "></path></clipPath><g clip-path="url(#clip0x7f86a346d8c0)"><text xml:space="preserve" font-family="Helvetica-Light,Helvetica" font-size="26.0" fill="#FEFFFE" transform="matrix(1.00, 0.00, -0.00, -1.00, 824.0, 309.0)">4</text><text xml:space="preserve" font-family="Helvetica-Light,Helvetica" font-size="26.0" fill="#FEFFFE" transform="matrix(1.00, 0.00, -0.00, -1.00, 838.5, 309.0)">1</text><text xml:space="preserve" font-family="Helvetica-Light,Helvetica" font-size="26.0" fill="#FEFFFE" transform="matrix(1.00, 0.00, -0.00, -1.00, 852.9, 309.0)">%</text></g></g></g><g><clipPath id="clip0x7f86a346c580"><path d="M 579.0 98.5 C 579.0 93.8 575.2 90.0 570.5 90.0 C 565.8 90.0 562.0 93.8 562.0 98.5 C 562.0 103.2 565.8 107.0 570.5 107.0 C 575.2 107.0 579.0 103.2 579.0 98.5 Z M 579.0 98.5 "></path></clipPath><g clip-path="url(#clip0x7f86a346c580)"><g><clipPath id="clip0x7f86a34702c0"><path d="M 579.0 98.5 C 579.0 93.8 575.2 90.0 570.5 90.0 C 565.8 90.0 562.0 93.8 562.0 98.5 C 562.0 103.2 565.8 107.0 570.5 107.0 C 575.2 107.0 579.0 103.2 579.0 98.5 Z M 579.0 98.5 "></path></clipPath><g clip-path="url(#clip0x7f86a34702c0)"><path d="M 579.0 98.5 C 579.0 93.8 575.2 90.0 570.5 90.0 C 565.8 90.0 562.0 93.8 562.0 98.5 C 562.0 103.2 565.8 107.0 570.5 107.0 C 575.2 107.0 579.0 103.2 579.0 98.5 Z M 579.0 98.5 " fill="url(#gradSh1.9)"></path></g></g></g></g><text xml:space="preserve" font-family="Helvetica-Light,Helvetica" font-size="22.0" fill="#000000" transform="matrix(1.00, 0.00, -0.00, -1.00, 592.3, 91.0)">O</text><text xml:space="preserve" font-family="Helvetica-Light,Helvetica" font-size="22.0" fill="#000000" transform="matrix(1.00, 0.00, -0.00, -1.00, 609.4, 91.0)">t</text><text xml:space="preserve" font-family="Helvetica-Light,Helvetica" font-size="22.0" fill="#000000" transform="matrix(1.00, 0.00, -0.00, -1.00, 615.5, 91.0)">h</text><text xml:space="preserve" font-family="Helvetica-Light,Helvetica" font-size="22.0" fill="#000000" transform="matrix(1.00, 0.00, -0.00, -1.00, 627.8, 91.0)">e</text><text xml:space="preserve" font-family="Helvetica-Light,Helvetica" font-size="22.0" fill="#000000" transform="matrix(1.00, 0.00, -0.00, -1.00, 640.0, 91.0)">r</text><text xml:space="preserve" font-family="Helvetica-Light,Helvetica" font-size="22.0" fill="#000000" transform="matrix(1.00, 0.00, -0.00, -1.00, 647.3, 91.0)">s</text><g><clipPath id="clip0x7f86a34c5450"><path d="M 693.0 98.5 C 693.0 93.8 689.2 90.0 684.5 90.0 C 679.8 90.0 676.0 93.8 676.0 98.5 C 676.0 103.2 679.8 107.0 684.5 107.0 C 689.2 107.0 693.0 103.2 693.0 98.5 Z M 693.0 98.5 "></path></clipPath><g clip-path="url(#clip0x7f86a34c5450)"><g><clipPath id="clip0x7f86a34c5d00"><path d="M 693.0 98.5 C 693.0 93.8 689.2 90.0 684.5 90.0 C 679.8 90.0 676.0 93.8 676.0 98.5 C 676.0 103.2 679.8 107.0 684.5 107.0 C 689.2 107.0 693.0 103.2 693.0 98.5 Z M 693.0 98.5 "></path></clipPath><g clip-path="url(#clip0x7f86a34c5d00)"><path d="M 693.0 98.5 C 693.0 93.8 689.2 90.0 684.5 90.0 C 679.8 90.0 676.0 93.8 676.0 98.5 C 676.0 103.2 679.8 107.0 684.5 107.0 C 689.2 107.0 693.0 103.2 693.0 98.5 Z M 693.0 98.5 " fill="url(#gradSh2.10)"></path></g></g></g></g><text xml:space="preserve" font-family="Helvetica-Light,Helvetica" font-size="22.0" fill="#000000" transform="matrix(1.00, 0.00, -0.00, -1.00, 705.4, 91.0)">S</text><text xml:space="preserve" font-family="Helvetica-Light,Helvetica" font-size="22.0" fill="#000000" transform="matrix(1.00, 0.00, -0.00, -1.00, 718.8, 91.0)">h</text><text xml:space="preserve" font-family="Helvetica-Light,Helvetica" font-size="22.0" fill="#000000" transform="matrix(1.00, 0.00, -0.00, -1.00, 731.1, 91.0)">i</text><text xml:space="preserve" font-family="Helvetica-Light,Helvetica" font-size="22.0" fill="#000000" transform="matrix(1.00, 0.00, -0.00, -1.00, 736.0, 91.0)">f</text><text xml:space="preserve" font-family="Helvetica-Light,Helvetica" font-size="22.0" fill="#000000" transform="matrix(1.00, 0.00, -0.00, -1.00, 742.1, 91.0)">t</text><text xml:space="preserve" font-family="Helvetica-Light,Helvetica" font-size="22.0" fill="#000000" transform="matrix(1.00, 0.00, -0.00, -1.00, 748.2, 91.0)"> </text><text xml:space="preserve" font-family="Helvetica-Light,Helvetica" font-size="22.0" fill="#000000" transform="matrix(1.00, 0.00, -0.00, -1.00, 754.3, 91.0)">1</text><text xml:space="preserve" font-family="Helvetica-Light,Helvetica" font-size="22.0" fill="#000000" transform="matrix(1.00, 0.00, -0.00, -1.00, 766.5, 91.0)">w</text><g><clipPath id="clip0x7f86a351ee50"><path d="M 817.0 98.5 C 817.0 93.8 813.2 90.0 808.5 90.0 C 803.8 90.0 800.0 93.8 800.0 98.5 C 800.0 103.2 803.8 107.0 808.5 107.0 C 813.2 107.0 817.0 103.2 817.0 98.5 Z M 817.0 98.5 "></path></clipPath><g clip-path="url(#clip0x7f86a351ee50)"><g><clipPath id="clip0x7f86a351f6f0"><path d="M 817.0 98.5 C 817.0 93.8 813.2 90.0 808.5 90.0 C 803.8 90.0 800.0 93.8 800.0 98.5 C 800.0 103.2 803.8 107.0 808.5 107.0 C 813.2 107.0 817.0 103.2 817.0 98.5 Z M 817.0 98.5 "></path></clipPath><g clip-path="url(#clip0x7f86a351f6f0)"><path d="M 817.0 98.5 C 817.0 93.8 813.2 90.0 808.5 90.0 C 803.8 90.0 800.0 93.8 800.0 98.5 C 800.0 103.2 803.8 107.0 808.5 107.0 C 813.2 107.0 817.0 103.2 817.0 98.5 Z M 817.0 98.5 " fill="url(#gradSh3.11)"></path></g></g></g></g><text xml:space="preserve" font-family="Helvetica-Light,Helvetica" font-size="22.0" fill="#000000" transform="matrix(1.00, 0.00, -0.00, -1.00, 829.5, 91.0)">S</text><text xml:space="preserve" font-family="Helvetica-Light,Helvetica" font-size="22.0" fill="#000000" transform="matrix(1.00, 0.00, -0.00, -1.00, 842.9, 91.0)">h</text><text xml:space="preserve" font-family="Helvetica-Light,Helvetica" font-size="22.0" fill="#000000" transform="matrix(1.00, 0.00, -0.00, -1.00, 855.2, 91.0)">i</text><text xml:space="preserve" font-family="Helvetica-Light,Helvetica" font-size="22.0" fill="#000000" transform="matrix(1.00, 0.00, -0.00, -1.00, 860.0, 91.0)">f</text><text xml:space="preserve" font-family="Helvetica-Light,Helvetica" font-size="22.0" fill="#000000" transform="matrix(1.00, 0.00, -0.00, -1.00, 866.2, 91.0)">t</text><text xml:space="preserve" font-family="Helvetica-Light,Helvetica" font-size="22.0" fill="#000000" transform="matrix(1.00, 0.00, -0.00, -1.00, 872.3, 91.0)"> </text><text xml:space="preserve" font-family="Helvetica-Light,Helvetica" font-size="22.0" fill="#000000" transform="matrix(1.00, 0.00, -0.00, -1.00, 878.4, 91.0)">2</text><text xml:space="preserve" font-family="Helvetica-Light,Helvetica" font-size="22.0" fill="#000000" transform="matrix(1.00, 0.00, -0.00, -1.00, 890.6, 91.0)">w</text></g></svg>