<?xml version="1.0" encoding="UTF-8" standalone="no"?><svg xmlns="http://www.w3.org/2000/svg" xmlns:xlink="http://www.w3.org/1999/xlink" clip-rule="evenodd" stroke-miterlimit="10" viewBox="0 0 1024 768"><desc>SVG generated by Keynote</desc><defs></defs><g transform="matrix(1.00, 0.00, -0.00, -1.00, 0.0, 768.0)"><path d="M 0.0 768.0 L 1024.0 768.0 L 1024.0 0.0 L 0.0 0.0 Z M 0.0 768.0 " fill="#FEFFFF"></path><text xml:space="preserve" font-family="Helvetica-Light,Helvetica" font-size="76.8" fill="#000000" transform="matrix(1.00, 0.00, -0.00, -1.00, 79.4, 619.7)">W</text><text xml:space="preserve" font-family="Helvetica-Light,Helvetica" font-size="76.8" fill="#000000" transform="matrix(1.00, 0.00, -0.00, -1.00, 147.7, 619.7)">h</text><text xml:space="preserve" font-family="Helvetica-Light,Helvetica" font-size="76.8" fill="#000000" transform="matrix(1.00, 0.00, -0.00, -1.00, 190.4, 619.7)">a</text><text xml:space="preserve" font-family="Helvetica-Light,Helvetica" font-size="76.8" fill="#000000" transform="matrix(1.00, 0.00, -0.00, -1.00, 233.1, 619.7)">t</text><text xml:space="preserve" font-family="Helvetica-Light,Helvetica" font-size="76.8" fill="#000000" transform="matrix(1.00, 0.00, -0.00, -1.00, 254.5, 619.7)"> </text><text xml:space="preserve" font-family="Helvetica-Light,Helvetica" font-size="76.8" fill="#000000" transform="matrix(1.00, 0.00, -0.00, -1.00, 275.8, 619.7)">a</text><text xml:space="preserve" font-family="Helvetica-Light,Helvetica" font-size="76.8" fill="#000000" transform="matrix(1.00, 0.00, -0.00, -1.00, 318.5, 619.7)">b</text><text xml:space="preserve" font-family="Helvetica-Light,Helvetica" font-size="76.8" fill="#000000" transform="matrix(1.00, 0.00, -0.00, -1.00, 365.4, 619.7)">o</text><text xml:space="preserve" font-family="Helvetica-Light,Helvetica" font-size="76.8" fill="#000000" transform="matrix(1.00, 0.00, -0.00, -1.00, 408.1, 619.7)">u</text><text xml:space="preserve" font-family="Helvetica-Light,Helvetica" font-size="76.8" fill="#000000" transform="matrix(1.00, 0.00, -0.00, -1.00, 450.8, 619.7)">t</text><text xml:space="preserve" font-family="Helvetica-Light,Helvetica" font-size="76.8" fill="#000000" transform="matrix(1.00, 0.00, -0.00, -1.00, 472.2, 619.7)"> </text><text xml:space="preserve" font-family="Helvetica-Light,Helvetica" font-size="76.8" fill="#000000" transform="matrix(1.00, 0.00, -0.00, -1.00, 493.5, 619.7)">r</text><text xml:space="preserve" font-family="Helvetica-Light,Helvetica" font-size="76.8" fill="#000000" transform="matrix(1.00, 0.00, -0.00, -1.00, 517.7, 619.7)">e</text><text xml:space="preserve" font-family="Helvetica-Light,Helvetica" font-size="76.8" fill="#000000" transform="matrix(1.00, 0.00, -0.00, -1.00, 560.4, 619.7)">d</text><text xml:space="preserve" font-family="Helvetica-Light,Helvetica" font-size="76.8" fill="#000000" transform="matrix(1.00, 0.00, -0.00, -1.00, 607.3, 619.7)">u</text><text xml:space="preserve" font-family="Helvetica-Light,Helvetica" font-size="76.8" fill="#000000" transform="matrix(1.00, 0.00, -0.00, -1.00, 650.0, 619.7)">n</text><text xml:space="preserve" font-family="Helvetica-Light,Helvetica" font-size="76.8" fill="#000000" transform="matrix(1.00, 0.00, -0.00, -1.00, 692.7, 619.7)">d</text><text xml:space="preserve" font-family="Helvetica-Light,Helvetica" font-size="76.8" fill="#000000" transform="matrix(1.00, 0.00, -0.00, -1.00, 739.7, 619.7)">a</text><text xml:space="preserve" font-family="Helvetica-Light,Helvetica" font-size="76.8" fill="#000000" transform="matrix(1.00, 0.00, -0.00, -1.00, 782.4, 619.7)">n</text><text xml:space="preserve" font-family="Helvetica-Light,Helvetica" font-size="76.8" fill="#000000" transform="matrix(1.00, 0.00, -0.00, -1.00, 825.1, 619.7)">c</text><text xml:space="preserve" font-family="Helvetica-Light,Helvetica" font-size="76.8" fill="#000000" transform="matrix(1.00, 0.00, -0.00, -1.00, 867.8, 619.7)">y</text><text xml:space="preserve" font-family="Helvetica-Light,Helvetica" font-size="76.8" fill="#000000" transform="matrix(1.00, 0.00, -0.00, -1.00, 906.2, 619.7)">?</text><image xlink:href="../../8E13025A-BA4C-440B-AB91-D97B4A335F07/assets/19426BDC8A2D4C55782C710062BFEDF1.png" width="173.00" height="68.00" transform="matrix(1.00, 0.00, -0.00, -1.00, 307.0, 447.5)" opacity="0.50"></image><g><clipPath id="clip0x7f86a8149960"><path d="M 310.0 446.0 L 477.0 446.0 L 477.0 385.0 L 310.0 385.0 Z M 310.0 446.5 "></path></clipPath><g clip-path="url(#clip0x7f86a8149960)"><image xlink:href="../../8E13025A-BA4C-440B-AB91-D97B4A335F07/assets/C3C0FC898C94653CAF8AD846D6CCD108.png" width="600.00" height="600.00" transform="matrix(0.50, 0.00, -0.00, -0.50, 310.0, 446.0)"></image></g></g><g><clipPath id="clip0x7f86a814ad30"><path d="M 308.0 384.6 L 478.6 384.6 L 478.6 446.5 L 308.0 446.5 Z M 308.0 384.6 "></path></clipPath><g clip-path="url(#clip0x7f86a814ad30)"><text xml:space="preserve" font-family="Helvetica-Light,Helvetica" font-size="24.0" fill="#FEFFFE" transform="matrix(1.00, 0.00, -0.00, -1.00, 367.3, 406.0)">M</text><text xml:space="preserve" font-family="Helvetica-Light,Helvetica" font-size="24.0" fill="#FEFFFE" transform="matrix(1.00, 0.00, -0.00, -1.00, 387.3, 406.0)">a</text><text xml:space="preserve" font-family="Helvetica-Light,Helvetica" font-size="24.0" fill="#FEFFFE" transform="matrix(1.00, 0.00, -0.00, -1.00, 400.6, 406.0)">i</text><text xml:space="preserve" font-family="Helvetica-Light,Helvetica" font-size="24.0" fill="#FEFFFE" transform="matrix(1.00, 0.00, -0.00, -1.00, 406.0, 406.0)">n</text></g></g><image xlink:href="../../8E13025A-BA4C-440B-AB91-D97B4A335F07/assets/DC8FB7C2EF41200136DBDF5565A17F65.png" width="173.00" height="68.00" transform="matrix(1.00, 0.00, -0.00, -1.00, 42.0, 288.4)" opacity="0.50"></image><g><clipPath id="clip0x7f86a807e760"><path d="M 45.0 287.0 L 212.0 287.0 L 212.0 226.0 L 45.0 226.0 Z M 45.0 287.4 "></path></clipPath><g clip-path="url(#clip0x7f86a807e760)"><image xlink:href="../../8E13025A-BA4C-440B-AB91-D97B4A335F07/assets/C3C0FC898C94653CAF8AD846D6CCD108.png" width="600.00" height="600.00" transform="matrix(0.50, 0.00, -0.00, -0.50, 45.0, 287.0)"></image></g></g><g><clipPath id="clip0x7f86a814e470"><path d="M 43.0 225.5 L 213.6 225.5 L 213.6 287.4 L 43.0 287.4 Z M 43.0 225.5 "></path></clipPath><g clip-path="url(#clip0x7f86a814e470)"><text xml:space="preserve" font-family="Helvetica-Light,Helvetica" font-size="24.0" fill="#FEFFFE" transform="matrix(1.00, 0.00, -0.00, -1.00, 92.3, 246.9)">O</text><text xml:space="preserve" font-family="Helvetica-Light,Helvetica" font-size="24.0" fill="#FEFFFE" transform="matrix(1.00, 0.00, -0.00, -1.00, 111.0, 246.9)">t</text><text xml:space="preserve" font-family="Helvetica-Light,Helvetica" font-size="24.0" fill="#FEFFFE" transform="matrix(1.00, 0.00, -0.00, -1.00, 117.6, 246.9)">h</text><text xml:space="preserve" font-family="Helvetica-Light,Helvetica" font-size="24.0" fill="#FEFFFE" transform="matrix(1.00, 0.00, -0.00, -1.00, 131.0, 246.9)">e</text><text xml:space="preserve" font-family="Helvetica-Light,Helvetica" font-size="24.0" fill="#FEFFFE" transform="matrix(1.00, 0.00, -0.00, -1.00, 144.3, 246.9)">r</text><text xml:space="preserve" font-family="Helvetica-Light,Helvetica" font-size="24.0" fill="#FEFFFE" transform="matrix(1.00, 0.00, -0.00, -1.00, 152.3, 246.9)">s</text></g></g><image xlink:href="../../8E13025A-BA4C-440B-AB91-D97B4A335F07/assets/DC8FB7C2EF41200136DBDF5565A17F65.png" width="173.00" height="68.00" transform="matrix(1.00, 0.00, -0.00, -1.00, 228.0, 288.4)" opacity="0.50"></image><g><clipPath id="clip0x7f86a7ea2c30"><path d="M 231.0 287.0 L 398.0 287.0 L 398.0 226.0 L 231.0 226.0 Z M 231.0 287.4 "></path></clipPath><g clip-path="url(#clip0x7f86a7ea2c30)"><image xlink:href="../../662AC196-CE4B-4699-8C48-22019129027B/assets/ADFEDB07BA590A41659D8979D96483E7.png" width="600.00" height="600.00" transform="matrix(0.50, 0.00, -0.00, -0.50, 231.0, 287.0)"></image></g></g><g><clipPath id="clip0x7f86a7ea3d00"><path d="M 229.0 225.5 L 399.6 225.5 L 399.6 287.4 L 229.0 287.4 Z M 229.0 225.5 "></path></clipPath><g clip-path="url(#clip0x7f86a7ea3d00)"><text xml:space="preserve" font-family="Helvetica-Light,Helvetica" font-size="24.0" fill="#FEFFFE" transform="matrix(1.00, 0.00, -0.00, -1.00, 247.9, 246.9)">S</text><text xml:space="preserve" font-family="Helvetica-Light,Helvetica" font-size="24.0" fill="#FEFFFE" transform="matrix(1.00, 0.00, -0.00, -1.00, 262.5, 246.9)">h</text><text xml:space="preserve" font-family="Helvetica-Light,Helvetica" font-size="24.0" fill="#FEFFFE" transform="matrix(1.00, 0.00, -0.00, -1.00, 275.9, 246.9)">o</text><text xml:space="preserve" font-family="Helvetica-Light,Helvetica" font-size="24.0" fill="#FEFFFE" transform="matrix(1.00, 0.00, -0.00, -1.00, 289.2, 246.9)">r</text><text xml:space="preserve" font-family="Helvetica-Light,Helvetica" font-size="24.0" fill="#FEFFFE" transform="matrix(1.00, 0.00, -0.00, -1.00, 297.6, 246.9)">t</text><text xml:space="preserve" font-family="Helvetica-Light,Helvetica" font-size="24.0" fill="#FEFFFE" transform="matrix(1.00, 0.00, -0.00, -1.00, 304.3, 246.9)">-</text><text xml:space="preserve" font-family="Helvetica-Light,Helvetica" font-size="24.0" fill="#FEFFFE" transform="matrix(1.00, 0.00, -0.00, -1.00, 312.3, 246.9)">t</text><text xml:space="preserve" font-family="Helvetica-Light,Helvetica" font-size="24.0" fill="#FEFFFE" transform="matrix(1.00, 0.00, -0.00, -1.00, 319.0, 246.9)">e</text><text xml:space="preserve" font-family="Helvetica-Light,Helvetica" font-size="24.0" fill="#FEFFFE" transform="matrix(1.00, 0.00, -0.00, -1.00, 332.3, 246.9)">r</text><text xml:space="preserve" font-family="Helvetica-Light,Helvetica" font-size="24.0" fill="#FEFFFE" transform="matrix(1.00, 0.00, -0.00, -1.00, 340.8, 246.9)">m</text><text xml:space="preserve" font-family="Helvetica-Light,Helvetica" font-size="24.0" fill="#FEFFFE" transform="matrix(1.00, 0.00, -0.00, -1.00, 360.7, 246.9)"> </text><text xml:space="preserve" font-family="Helvetica-Light,Helvetica" font-size="24.0" fill="#FEFFFE" transform="matrix(1.00, 0.00, -0.00, -1.00, 367.4, 246.9)">1</text></g></g><image xlink:href="../../8E13025A-BA4C-440B-AB91-D97B4A335F07/assets/DC8FB7C2EF41200136DBDF5565A17F65.png" width="173.00" height="68.00" transform="matrix(1.00, 0.00, -0.00, -1.00, 414.0, 288.4)" opacity="0.50"></image><g><clipPath id="clip0x7f86a8152630"><path d="M 417.0 287.0 L 584.0 287.0 L 584.0 226.0 L 417.0 226.0 Z M 417.0 287.4 "></path></clipPath><g clip-path="url(#clip0x7f86a8152630)"><image xlink:href="../../662AC196-CE4B-4699-8C48-22019129027B/assets/ADFEDB07BA590A41659D8979D96483E7.png" width="600.00" height="600.00" transform="matrix(0.50, 0.00, -0.00, -0.50, 417.0, 287.0)"></image></g></g><g><clipPath id="clip0x7f86a7eaaae0"><path d="M 415.0 225.5 L 585.6 225.5 L 585.6 287.4 L 415.0 287.4 Z M 415.0 225.5 "></path></clipPath><g clip-path="url(#clip0x7f86a7eaaae0)"><text xml:space="preserve" font-family="Helvetica-Light,Helvetica" font-size="24.0" fill="#FEFFFE" transform="matrix(1.00, 0.00, -0.00, -1.00, 433.9, 246.9)">S</text><text xml:space="preserve" font-family="Helvetica-Light,Helvetica" font-size="24.0" fill="#FEFFFE" transform="matrix(1.00, 0.00, -0.00, -1.00, 448.5, 246.9)">h</text><text xml:space="preserve" font-family="Helvetica-Light,Helvetica" font-size="24.0" fill="#FEFFFE" transform="matrix(1.00, 0.00, -0.00, -1.00, 461.9, 246.9)">o</text><text xml:space="preserve" font-family="Helvetica-Light,Helvetica" font-size="24.0" fill="#FEFFFE" transform="matrix(1.00, 0.00, -0.00, -1.00, 475.2, 246.9)">r</text><text xml:space="preserve" font-family="Helvetica-Light,Helvetica" font-size="24.0" fill="#FEFFFE" transform="matrix(1.00, 0.00, -0.00, -1.00, 483.6, 246.9)">t</text><text xml:space="preserve" font-family="Helvetica-Light,Helvetica" font-size="24.0" fill="#FEFFFE" transform="matrix(1.00, 0.00, -0.00, -1.00, 490.3, 246.9)">-</text><text xml:space="preserve" font-family="Helvetica-Light,Helvetica" font-size="24.0" fill="#FEFFFE" transform="matrix(1.00, 0.00, -0.00, -1.00, 498.3, 246.9)">t</text><text xml:space="preserve" font-family="Helvetica-Light,Helvetica" font-size="24.0" fill="#FEFFFE" transform="matrix(1.00, 0.00, -0.00, -1.00, 505.0, 246.9)">e</text><text xml:space="preserve" font-family="Helvetica-Light,Helvetica" font-size="24.0" fill="#FEFFFE" transform="matrix(1.00, 0.00, -0.00, -1.00, 518.3, 246.9)">r</text><text xml:space="preserve" font-family="Helvetica-Light,Helvetica" font-size="24.0" fill="#FEFFFE" transform="matrix(1.00, 0.00, -0.00, -1.00, 526.8, 246.9)">m</text><text xml:space="preserve" font-family="Helvetica-Light,Helvetica" font-size="24.0" fill="#FEFFFE" transform="matrix(1.00, 0.00, -0.00, -1.00, 546.7, 246.9)"> </text><text xml:space="preserve" font-family="Helvetica-Light,Helvetica" font-size="24.0" fill="#FEFFFE" transform="matrix(1.00, 0.00, -0.00, -1.00, 553.4, 246.9)">2</text></g></g><image xlink:href="../../8E13025A-BA4C-440B-AB91-D97B4A335F07/assets/DC8FB7C2EF41200136DBDF5565A17F65.png" width="173.00" height="68.00" transform="matrix(1.00, 0.00, -0.00, -1.00, 600.0, 288.4)" opacity="0.50"></image><g><clipPath id="clip0x7f86a7c9e660"><path d="M 603.0 287.0 L 770.0 287.0 L 770.0 226.0 L 603.0 226.0 Z M 603.0 287.4 "></path></clipPath><g clip-path="url(#clip0x7f86a7c9e660)"><image xlink:href="../../662AC196-CE4B-4699-8C48-22019129027B/assets/ADFEDB07BA590A41659D8979D96483E7.png" width="600.00" height="600.00" transform="matrix(0.50, 0.00, -0.00, -0.50, 603.0, 287.0)"></image></g></g><g><clipPath id="clip0x7f86a8084250"><path d="M 601.0 225.5 L 771.6 225.5 L 771.6 287.4 L 601.0 287.4 Z M 601.0 225.5 "></path></clipPath><g clip-path="url(#clip0x7f86a8084250)"><text xml:space="preserve" font-family="Helvetica-Light,Helvetica" font-size="24.0" fill="#FEFFFE" transform="matrix(1.00, 0.00, -0.00, -1.00, 630.8, 246.9)">L</text><text xml:space="preserve" font-family="Helvetica-Light,Helvetica" font-size="24.0" fill="#FEFFFE" transform="matrix(1.00, 0.00, -0.00, -1.00, 644.1, 246.9)">o</text><text xml:space="preserve" font-family="Helvetica-Light,Helvetica" font-size="24.0" fill="#FEFFFE" transform="matrix(1.00, 0.00, -0.00, -1.00, 657.4, 246.9)">n</text><text xml:space="preserve" font-family="Helvetica-Light,Helvetica" font-size="24.0" fill="#FEFFFE" transform="matrix(1.00, 0.00, -0.00, -1.00, 670.8, 246.9)">g</text><text xml:space="preserve" font-family="Helvetica-Light,Helvetica" font-size="24.0" fill="#FEFFFE" transform="matrix(1.00, 0.00, -0.00, -1.00, 685.5, 246.9)">-</text><text xml:space="preserve" font-family="Helvetica-Light,Helvetica" font-size="24.0" fill="#FEFFFE" transform="matrix(1.00, 0.00, -0.00, -1.00, 693.4, 246.9)">t</text><text xml:space="preserve" font-family="Helvetica-Light,Helvetica" font-size="24.0" fill="#FEFFFE" transform="matrix(1.00, 0.00, -0.00, -1.00, 700.1, 246.9)">e</text><text xml:space="preserve" font-family="Helvetica-Light,Helvetica" font-size="24.0" fill="#FEFFFE" transform="matrix(1.00, 0.00, -0.00, -1.00, 713.5, 246.9)">r</text><text xml:space="preserve" font-family="Helvetica-Light,Helvetica" font-size="24.0" fill="#FEFFFE" transform="matrix(1.00, 0.00, -0.00, -1.00, 721.9, 246.9)">m</text></g></g><path d="M -0.3 -0.4 L -0.3 46.6 L 292.7 46.6 L 292.7 87.5 L 292.7 88.6 " fill="none" stroke="#000000" stroke-width="2.00" transform="matrix(1.00, 0.00, 0.00, -1.00, 393.3, 384.6)"></path><path d="M 681.2 297.0 L 686.0 287.4 L 690.8 297.0 Z M 681.2 297.0 " fill="#000000"></path><path d="M 0.3 0.5 L 0.3 45.5 L 106.3 45.5 L 106.3 86.4 L 106.3 87.5 " fill="none" stroke="#000000" stroke-width="2.00" transform="matrix(1.00, 0.00, 0.00, -1.00, 393.7, 383.5)"></path><path d="M 495.2 297.0 L 500.0 287.4 L 504.8 297.0 Z M 495.2 297.0 " fill="#000000"></path><path d="M 79.7 -0.1 L 79.7 42.9 L -0.3 42.9 L -0.3 83.8 L -0.3 84.9 " fill="none" stroke="#000000" stroke-width="2.00" transform="matrix(1.00, 0.00, 0.00, -1.00, 314.3, 380.9)"></path><path d="M 309.2 297.0 L 314.0 287.4 L 318.8 297.0 Z M 309.2 297.0 " fill="#000000"></path><path d="M 264.7 -0.4 L 264.7 46.6 L -0.3 46.6 L -0.3 87.5 L -0.3 88.6 " fill="none" stroke="#000000" stroke-width="2.00" transform="matrix(1.00, 0.00, 0.00, -1.00, 128.3, 384.6)"></path><path d="M 123.2 297.0 L 128.0 287.4 L 132.8 297.0 Z M 123.2 297.0 " fill="#000000"></path><text xml:space="preserve" font-family="Helvetica-Light,Helvetica" font-size="36.0" fill="#000000" transform="matrix(1.00, 0.00, -0.00, -1.00, 132.2, 140.8)">M</text><text xml:space="preserve" font-family="Helvetica-Light,Helvetica" font-size="36.0" fill="#000000" transform="matrix(1.00, 0.00, -0.00, -1.00, 162.2, 140.8)">u</text><text xml:space="preserve" font-family="Helvetica-Light,Helvetica" font-size="36.0" fill="#000000" transform="matrix(1.00, 0.00, -0.00, -1.00, 182.2, 140.8)">s</text><text xml:space="preserve" font-family="Helvetica-Light,Helvetica" font-size="36.0" fill="#000000" transform="matrix(1.00, 0.00, -0.00, -1.00, 200.2, 140.8)">t</text><text xml:space="preserve" font-family="Helvetica-Light,Helvetica" font-size="36.0" fill="#000000" transform="matrix(1.00, 0.00, -0.00, -1.00, 210.2, 140.8)"> </text><text xml:space="preserve" font-family="Helvetica-Light,Helvetica" font-size="36.0" fill="#000000" transform="matrix(1.00, 0.00, -0.00, -1.00, 220.2, 140.8)">u</text><text xml:space="preserve" font-family="Helvetica-Light,Helvetica" font-size="36.0" fill="#000000" transform="matrix(1.00, 0.00, -0.00, -1.00, 240.3, 140.8)">n</text><text xml:space="preserve" font-family="Helvetica-Light,Helvetica" font-size="36.0" fill="#000000" transform="matrix(1.00, 0.00, -0.00, -1.00, 260.3, 140.8)">d</text><text xml:space="preserve" font-family="Helvetica-Light,Helvetica" font-size="36.0" fill="#000000" transform="matrix(1.00, 0.00, -0.00, -1.00, 282.3, 140.8)">e</text><text xml:space="preserve" font-family="Helvetica-Light,Helvetica" font-size="36.0" fill="#000000" transform="matrix(1.00, 0.00, -0.00, -1.00, 302.3, 140.8)">r</text><text xml:space="preserve" font-family="Helvetica-Light,Helvetica" font-size="36.0" fill="#000000" transform="matrix(1.00, 0.00, -0.00, -1.00, 314.3, 140.8)">s</text><text xml:space="preserve" font-family="Helvetica-Light,Helvetica" font-size="36.0" fill="#000000" transform="matrix(1.00, 0.00, -0.00, -1.00, 332.3, 140.8)">t</text><text xml:space="preserve" font-family="Helvetica-Light,Helvetica" font-size="36.0" fill="#000000" transform="matrix(1.00, 0.00, -0.00, -1.00, 342.3, 140.8)">a</text><text xml:space="preserve" font-family="Helvetica-Light,Helvetica" font-size="36.0" fill="#000000" transform="matrix(1.00, 0.00, -0.00, -1.00, 362.3, 140.8)">n</text><text xml:space="preserve" font-family="Helvetica-Light,Helvetica" font-size="36.0" fill="#000000" transform="matrix(1.00, 0.00, -0.00, -1.00, 382.3, 140.8)">d</text><text xml:space="preserve" font-family="Helvetica-Light,Helvetica" font-size="36.0" fill="#000000" transform="matrix(1.00, 0.00, -0.00, -1.00, 404.3, 140.8)"> </text><text xml:space="preserve" font-family="Helvetica-Light,Helvetica" font-size="36.0" fill="#000000" transform="matrix(1.00, 0.00, -0.00, -1.00, 414.3, 140.8)">o</text><text xml:space="preserve" font-family="Helvetica-Light,Helvetica" font-size="36.0" fill="#000000" transform="matrix(1.00, 0.00, -0.00, -1.00, 434.3, 140.8)">v</text><text xml:space="preserve" font-family="Helvetica-Light,Helvetica" font-size="36.0" fill="#000000" transform="matrix(1.00, 0.00, -0.00, -1.00, 452.3, 140.8)">e</text><text xml:space="preserve" font-family="Helvetica-Light,Helvetica" font-size="36.0" fill="#000000" transform="matrix(1.00, 0.00, -0.00, -1.00, 472.4, 140.8)">r</text><text xml:space="preserve" font-family="Helvetica-Light,Helvetica" font-size="36.0" fill="#000000" transform="matrix(1.00, 0.00, -0.00, -1.00, 484.3, 140.8)">l</text><text xml:space="preserve" font-family="Helvetica-Light,Helvetica" font-size="36.0" fill="#000000" transform="matrix(1.00, 0.00, -0.00, -1.00, 492.3, 140.8)">a</text><text xml:space="preserve" font-family="Helvetica-Light,Helvetica" font-size="36.0" fill="#000000" transform="matrix(1.00, 0.00, -0.00, -1.00, 512.3, 140.8)">p</text><text xml:space="preserve" font-family="Helvetica-Light,Helvetica" font-size="36.0" fill="#000000" transform="matrix(1.00, 0.00, -0.00, -1.00, 534.3, 140.8)"> </text><text xml:space="preserve" font-family="Helvetica-Light,Helvetica" font-size="36.0" fill="#000000" transform="matrix(1.00, 0.00, -0.00, -1.00, 544.4, 140.8)">i</text><text xml:space="preserve" font-family="Helvetica-Light,Helvetica" font-size="36.0" fill="#000000" transform="matrix(1.00, 0.00, -0.00, -1.00, 552.3, 140.8)">n</text><text xml:space="preserve" font-family="Helvetica-Light,Helvetica" font-size="36.0" fill="#000000" transform="matrix(1.00, 0.00, -0.00, -1.00, 572.4, 140.8)"> </text><text xml:space="preserve" font-family="Helvetica-Light,Helvetica" font-size="36.0" fill="#000000" transform="matrix(1.00, 0.00, -0.00, -1.00, 582.4, 140.8)">d</text><text xml:space="preserve" font-family="Helvetica-Light,Helvetica" font-size="36.0" fill="#000000" transform="matrix(1.00, 0.00, -0.00, -1.00, 604.4, 140.8)">a</text><text xml:space="preserve" font-family="Helvetica-Light,Helvetica" font-size="36.0" fill="#000000" transform="matrix(1.00, 0.00, -0.00, -1.00, 624.4, 140.8)">t</text><text xml:space="preserve" font-family="Helvetica-Light,Helvetica" font-size="36.0" fill="#000000" transform="matrix(1.00, 0.00, -0.00, -1.00, 634.4, 140.8)">a</text></g></svg>