<?xml version="1.0" encoding="UTF-8" standalone="no"?><svg xmlns="http://www.w3.org/2000/svg" xmlns:xlink="http://www.w3.org/1999/xlink" clip-rule="evenodd" stroke-miterlimit="10" viewBox="0 0 1024 768"><desc>SVG generated by Keynote</desc><defs></defs><g transform="matrix(1.00, 0.00, -0.00, -1.00, 0.0, 768.0)"><path d="M 0.0 768.0 L 1024.0 768.0 L 1024.0 0.0 L 0.0 0.0 Z M 0.0 768.0 " fill="#FEFFFF"></path><image xlink:href="072BFE9DE46CEAC71952DEF8DFA842C2.png" width="190.00" height="53.00" transform="matrix(1.00, 0.00, -0.00, -1.00, 811.5, 743.8)"></image><text xml:space="preserve" font-family="Helvetica-Light,Helvetica" font-size="80.0" fill="#000000" transform="matrix(1.00, 0.00, -0.00, -1.00, 423.1, 401.4)">A</text><text xml:space="preserve" font-family="Helvetica-Light,Helvetica" font-size="80.0" fill="#000000" transform="matrix(1.00, 0.00, -0.00, -1.00, 476.4, 401.4)">t</text><text xml:space="preserve" font-family="Helvetica-Light,Helvetica" font-size="80.0" fill="#000000" transform="matrix(1.00, 0.00, -0.00, -1.00, 498.7, 401.4)">l</text><text xml:space="preserve" font-family="Helvetica-Light,Helvetica" font-size="80.0" fill="#000000" transform="matrix(1.00, 0.00, -0.00, -1.00, 516.4, 401.4)">a</text><text xml:space="preserve" font-family="Helvetica-Light,Helvetica" font-size="80.0" fill="#000000" transform="matrix(1.00, 0.00, -0.00, -1.00, 560.9, 401.4)">s</text><text xml:space="preserve" font-family="Helvetica-Light,Helvetica" font-size="32.0" fill="#000000" transform="matrix(1.00, 0.00, -0.00, -1.00, 268.4, 337.4)">S</text><text xml:space="preserve" font-family="Helvetica-Light,Helvetica" font-size="32.0" fill="#000000" transform="matrix(1.00, 0.00, -0.00, -1.00, 287.9, 337.4)">c</text><text xml:space="preserve" font-family="Helvetica-Light,Helvetica" font-size="32.0" fill="#000000" transform="matrix(1.00, 0.00, -0.00, -1.00, 305.7, 337.4)">a</text><text xml:space="preserve" font-family="Helvetica-Light,Helvetica" font-size="32.0" fill="#000000" transform="matrix(1.00, 0.00, -0.00, -1.00, 323.5, 337.4)">l</text><text xml:space="preserve" font-family="Helvetica-Light,Helvetica" font-size="32.0" fill="#000000" transform="matrix(1.00, 0.00, -0.00, -1.00, 330.6, 337.4)">a</text><text xml:space="preserve" font-family="Helvetica-Light,Helvetica" font-size="32.0" fill="#000000" transform="matrix(1.00, 0.00, -0.00, -1.00, 348.4, 337.4)">b</text><text xml:space="preserve" font-family="Helvetica-Light,Helvetica" font-size="32.0" fill="#000000" transform="matrix(1.00, 0.00, -0.00, -1.00, 368.0, 337.4)">l</text><text xml:space="preserve" font-family="Helvetica-Light,Helvetica" font-size="32.0" fill="#000000" transform="matrix(1.00, 0.00, -0.00, -1.00, 375.1, 337.4)">e</text><text xml:space="preserve" font-family="Helvetica-Light,Helvetica" font-size="32.0" fill="#000000" transform="matrix(1.00, 0.00, -0.00, -1.00, 392.9, 337.4)"> </text><text xml:space="preserve" font-family="Helvetica-Light,Helvetica" font-size="32.0" fill="#000000" transform="matrix(1.00, 0.00, -0.00, -1.00, 401.8, 337.4)">t</text><text xml:space="preserve" font-family="Helvetica-Light,Helvetica" font-size="32.0" fill="#000000" transform="matrix(1.00, 0.00, -0.00, -1.00, 410.7, 337.4)">i</text><text xml:space="preserve" font-family="Helvetica-Light,Helvetica" font-size="32.0" fill="#000000" transform="matrix(1.00, 0.00, -0.00, -1.00, 417.8, 337.4)">m</text><text xml:space="preserve" font-family="Helvetica-Light,Helvetica" font-size="32.0" fill="#000000" transform="matrix(1.00, 0.00, -0.00, -1.00, 444.4, 337.4)">e</text><text xml:space="preserve" font-family="Helvetica-Light,Helvetica" font-size="32.0" fill="#000000" transform="matrix(1.00, 0.00, -0.00, -1.00, 462.2, 337.4)">-</text><text xml:space="preserve" font-family="Helvetica-Light,Helvetica" font-size="32.0" fill="#000000" transform="matrix(1.00, 0.00, -0.00, -1.00, 472.9, 337.4)">s</text><text xml:space="preserve" font-family="Helvetica-Light,Helvetica" font-size="32.0" fill="#000000" transform="matrix(1.00, 0.00, -0.00, -1.00, 488.9, 337.4)">e</text><text xml:space="preserve" font-family="Helvetica-Light,Helvetica" font-size="32.0" fill="#000000" transform="matrix(1.00, 0.00, -0.00, -1.00, 506.7, 337.4)">r</text><text xml:space="preserve" font-family="Helvetica-Light,Helvetica" font-size="32.0" fill="#000000" transform="matrix(1.00, 0.00, -0.00, -1.00, 517.3, 337.4)">i</text><text xml:space="preserve" font-family="Helvetica-Light,Helvetica" font-size="32.0" fill="#000000" transform="matrix(1.00, 0.00, -0.00, -1.00, 524.4, 337.4)">e</text><text xml:space="preserve" font-family="Helvetica-Light,Helvetica" font-size="32.0" fill="#000000" transform="matrix(1.00, 0.00, -0.00, -1.00, 542.2, 337.4)">s</text><text xml:space="preserve" font-family="Helvetica-Light,Helvetica" font-size="32.0" fill="#000000" transform="matrix(1.00, 0.00, -0.00, -1.00, 558.2, 337.4)"> </text><text xml:space="preserve" font-family="Helvetica-Light,Helvetica" font-size="32.0" fill="#000000" transform="matrix(1.00, 0.00, -0.00, -1.00, 567.1, 337.4)">m</text><text xml:space="preserve" font-family="Helvetica-Light,Helvetica" font-size="32.0" fill="#000000" transform="matrix(1.00, 0.00, -0.00, -1.00, 593.8, 337.4)">a</text><text xml:space="preserve" font-family="Helvetica-Light,Helvetica" font-size="32.0" fill="#000000" transform="matrix(1.00, 0.00, -0.00, -1.00, 611.6, 337.4)">n</text><text xml:space="preserve" font-family="Helvetica-Light,Helvetica" font-size="32.0" fill="#000000" transform="matrix(1.00, 0.00, -0.00, -1.00, 629.3, 337.4)">a</text><text xml:space="preserve" font-family="Helvetica-Light,Helvetica" font-size="32.0" fill="#000000" transform="matrix(1.00, 0.00, -0.00, -1.00, 647.1, 337.4)">g</text><text xml:space="preserve" font-family="Helvetica-Light,Helvetica" font-size="32.0" fill="#000000" transform="matrix(1.00, 0.00, -0.00, -1.00, 666.7, 337.4)">e</text><text xml:space="preserve" font-family="Helvetica-Light,Helvetica" font-size="32.0" fill="#000000" transform="matrix(1.00, 0.00, -0.00, -1.00, 684.5, 337.4)">m</text><text xml:space="preserve" font-family="Helvetica-Light,Helvetica" font-size="32.0" fill="#000000" transform="matrix(1.00, 0.00, -0.00, -1.00, 711.1, 337.4)">e</text><text xml:space="preserve" font-family="Helvetica-Light,Helvetica" font-size="32.0" fill="#000000" transform="matrix(1.00, 0.00, -0.00, -1.00, 728.9, 337.4)">n</text><text xml:space="preserve" font-family="Helvetica-Light,Helvetica" font-size="32.0" fill="#000000" transform="matrix(1.00, 0.00, -0.00, -1.00, 746.7, 337.4)">t</text><text xml:space="preserve" font-family="Helvetica-Light,Helvetica" font-size="32.0" fill="#000000" transform="matrix(1.00, 0.00, -0.00, -1.00, 755.6, 337.4)"> </text><text xml:space="preserve" font-family="Helvetica-Light,Helvetica" font-size="32.0" fill="#000000" transform="matrix(1.00, 0.00, -0.00, -1.00, 394.6, 299.4)">B</text><text xml:space="preserve" font-family="Helvetica-Light,Helvetica" font-size="32.0" fill="#000000" transform="matrix(1.00, 0.00, -0.00, -1.00, 416.0, 299.4)">r</text><text xml:space="preserve" font-family="Helvetica-Light,Helvetica" font-size="32.0" fill="#000000" transform="matrix(1.00, 0.00, -0.00, -1.00, 426.6, 299.4)">i</text><text xml:space="preserve" font-family="Helvetica-Light,Helvetica" font-size="32.0" fill="#000000" transform="matrix(1.00, 0.00, -0.00, -1.00, 433.7, 299.4)">a</text><text xml:space="preserve" font-family="Helvetica-Light,Helvetica" font-size="32.0" fill="#000000" transform="matrix(1.00, 0.00, -0.00, -1.00, 451.5, 299.4)">n</text><text xml:space="preserve" font-family="Helvetica-Light,Helvetica" font-size="32.0" fill="#000000" transform="matrix(1.00, 0.00, -0.00, -1.00, 469.3, 299.4)"> </text><text xml:space="preserve" font-family="Helvetica-Light,Helvetica" font-size="32.0" fill="#000000" transform="matrix(1.00, 0.00, -0.00, -1.00, 478.2, 299.4)">H</text><text xml:space="preserve" font-family="Helvetica-Light,Helvetica" font-size="32.0" fill="#000000" transform="matrix(1.00, 0.00, -0.00, -1.00, 501.3, 299.4)">a</text><text xml:space="preserve" font-family="Helvetica-Light,Helvetica" font-size="32.0" fill="#000000" transform="matrix(1.00, 0.00, -0.00, -1.00, 519.1, 299.4)">r</text><text xml:space="preserve" font-family="Helvetica-Light,Helvetica" font-size="32.0" fill="#000000" transform="matrix(1.00, 0.00, -0.00, -1.00, 529.8, 299.4)">r</text><text xml:space="preserve" font-family="Helvetica-Light,Helvetica" font-size="32.0" fill="#000000" transform="matrix(1.00, 0.00, -0.00, -1.00, 540.4, 299.4)">i</text><text xml:space="preserve" font-family="Helvetica-Light,Helvetica" font-size="32.0" fill="#000000" transform="matrix(1.00, 0.00, -0.00, -1.00, 547.5, 299.4)">n</text><text xml:space="preserve" font-family="Helvetica-Light,Helvetica" font-size="32.0" fill="#000000" transform="matrix(1.00, 0.00, -0.00, -1.00, 565.3, 299.4)">g</text><text xml:space="preserve" font-family="Helvetica-Light,Helvetica" font-size="32.0" fill="#000000" transform="matrix(1.00, 0.00, -0.00, -1.00, 584.9, 299.4)">t</text><text xml:space="preserve" font-family="Helvetica-Light,Helvetica" font-size="32.0" fill="#000000" transform="matrix(1.00, 0.00, -0.00, -1.00, 593.8, 299.4)">o</text><text xml:space="preserve" font-family="Helvetica-Light,Helvetica" font-size="32.0" fill="#000000" transform="matrix(1.00, 0.00, -0.00, -1.00, 611.6, 299.4)">n</text><text xml:space="preserve" font-family="Helvetica-Light,Helvetica" font-size="32.0" fill="#000000" transform="matrix(1.00, 0.00, -0.00, -1.00, 629.4, 299.4)"> </text><text xml:space="preserve" font-family="Helvetica-Light,Helvetica" font-size="32.0" fill="#000000" transform="matrix(1.00, 0.00, -0.00, -1.00, 356.4, 261.4)">D</text><text xml:space="preserve" font-family="Helvetica-Light,Helvetica" font-size="32.0" fill="#000000" transform="matrix(1.00, 0.00, -0.00, -1.00, 379.5, 261.4)">e</text><text xml:space="preserve" font-family="Helvetica-Light,Helvetica" font-size="32.0" fill="#000000" transform="matrix(1.00, 0.00, -0.00, -1.00, 397.3, 261.4)">c</text><text xml:space="preserve" font-family="Helvetica-Light,Helvetica" font-size="32.0" fill="#000000" transform="matrix(1.00, 0.00, -0.00, -1.00, 415.1, 261.4)">e</text><text xml:space="preserve" font-family="Helvetica-Light,Helvetica" font-size="32.0" fill="#000000" transform="matrix(1.00, 0.00, -0.00, -1.00, 432.8, 261.4)">m</text><text xml:space="preserve" font-family="Helvetica-Light,Helvetica" font-size="32.0" fill="#000000" transform="matrix(1.00, 0.00, -0.00, -1.00, 459.5, 261.4)">b</text><text xml:space="preserve" font-family="Helvetica-Light,Helvetica" font-size="32.0" fill="#000000" transform="matrix(1.00, 0.00, -0.00, -1.00, 479.1, 261.4)">e</text><text xml:space="preserve" font-family="Helvetica-Light,Helvetica" font-size="32.0" fill="#000000" transform="matrix(1.00, 0.00, -0.00, -1.00, 496.8, 261.4)">r</text><text xml:space="preserve" font-family="Helvetica-Light,Helvetica" font-size="32.0" fill="#000000" transform="matrix(1.00, 0.00, -0.00, -1.00, 507.5, 261.4)"> </text><text xml:space="preserve" font-family="Helvetica-Light,Helvetica" font-size="32.0" fill="#000000" transform="matrix(1.00, 0.00, -0.00, -1.00, 516.4, 261.4)">1</text><text xml:space="preserve" font-family="Helvetica-Light,Helvetica" font-size="32.0" fill="#000000" transform="matrix(1.00, 0.00, -0.00, -1.00, 534.2, 261.4)">6</text><text xml:space="preserve" font-family="Helvetica-Light,Helvetica" font-size="32.0" fill="#000000" transform="matrix(1.00, 0.00, -0.00, -1.00, 552.0, 261.4)">t</text><text xml:space="preserve" font-family="Helvetica-Light,Helvetica" font-size="32.0" fill="#000000" transform="matrix(1.00, 0.00, -0.00, -1.00, 560.9, 261.4)">h</text><text xml:space="preserve" font-family="Helvetica-Light,Helvetica" font-size="32.0" fill="#000000" transform="matrix(1.00, 0.00, -0.00, -1.00, 578.7, 261.4)">,</text><text xml:space="preserve" font-family="Helvetica-Light,Helvetica" font-size="32.0" fill="#000000" transform="matrix(1.00, 0.00, -0.00, -1.00, 587.6, 261.4)"> </text><text xml:space="preserve" font-family="Helvetica-Light,Helvetica" font-size="32.0" fill="#000000" transform="matrix(1.00, 0.00, -0.00, -1.00, 596.5, 261.4)">2</text><text xml:space="preserve" font-family="Helvetica-Light,Helvetica" font-size="32.0" fill="#000000" transform="matrix(1.00, 0.00, -0.00, -1.00, 614.3, 261.4)">0</text><text xml:space="preserve" font-family="Helvetica-Light,Helvetica" font-size="32.0" fill="#000000" transform="matrix(1.00, 0.00, -0.00, -1.00, 632.0, 261.4)">1</text><text xml:space="preserve" font-family="Helvetica-Light,Helvetica" font-size="32.0" fill="#000000" transform="matrix(1.00, 0.00, -0.00, -1.00, 649.8, 261.4)">4</text></g></svg>