<?xml version="1.0" encoding="UTF-8" standalone="no"?><svg xmlns="http://www.w3.org/2000/svg" xmlns:xlink="http://www.w3.org/1999/xlink" clip-rule="evenodd" stroke-miterlimit="10" viewBox="0 0 1024 768"><desc>SVG generated by Keynote</desc><defs></defs><g transform="matrix(1.00, 0.00, -0.00, -1.00, 0.0, 768.0)"><path d="M 0.0 768.0 L 1024.0 768.0 L 1024.0 0.0 L 0.0 0.0 Z M 0.0 768.0 " fill="#FEFFFF"></path><text xml:space="preserve" font-family="Helvetica-Light,Helvetica" font-size="80.0" fill="#000000" transform="matrix(1.00, 0.00, -0.00, -1.00, 251.9, 618.4)">G</text><text xml:space="preserve" font-family="Helvetica-Light,Helvetica" font-size="80.0" fill="#000000" transform="matrix(1.00, 0.00, -0.00, -1.00, 314.1, 618.4)">r</text><text xml:space="preserve" font-family="Helvetica-Light,Helvetica" font-size="80.0" fill="#000000" transform="matrix(1.00, 0.00, -0.00, -1.00, 340.8, 618.4)">a</text><text xml:space="preserve" font-family="Helvetica-Light,Helvetica" font-size="80.0" fill="#000000" transform="matrix(1.00, 0.00, -0.00, -1.00, 385.2, 618.4)">p</text><text xml:space="preserve" font-family="Helvetica-Light,Helvetica" font-size="80.0" fill="#000000" transform="matrix(1.00, 0.00, -0.00, -1.00, 434.1, 618.4)">h</text><text xml:space="preserve" font-family="Helvetica-Light,Helvetica" font-size="80.0" fill="#000000" transform="matrix(1.00, 0.00, -0.00, -1.00, 478.6, 618.4)"> </text><text xml:space="preserve" font-family="Helvetica-Light,Helvetica" font-size="80.0" fill="#000000" transform="matrix(1.00, 0.00, -0.00, -1.00, 500.8, 618.4)">2</text><text xml:space="preserve" font-family="Helvetica-Light,Helvetica" font-size="80.0" fill="#000000" transform="matrix(1.00, 0.00, -0.00, -1.00, 545.3, 618.4)">:</text><text xml:space="preserve" font-family="Helvetica-Light,Helvetica" font-size="80.0" fill="#000000" transform="matrix(1.00, 0.00, -0.00, -1.00, 567.6, 618.4)"> </text><text xml:space="preserve" font-family="Helvetica-Light,Helvetica" font-size="80.0" fill="#000000" transform="matrix(1.00, 0.00, -0.00, -1.00, 589.8, 618.4)">n</text><text xml:space="preserve" font-family="Helvetica-Light,Helvetica" font-size="80.0" fill="#000000" transform="matrix(1.00, 0.00, -0.00, -1.00, 634.3, 618.4)">c</text><text xml:space="preserve" font-family="Helvetica-Light,Helvetica" font-size="80.0" fill="#000000" transform="matrix(1.00, 0.00, -0.00, -1.00, 678.8, 618.4)">c</text><text xml:space="preserve" font-family="Helvetica-Light,Helvetica" font-size="80.0" fill="#000000" transform="matrix(1.00, 0.00, -0.00, -1.00, 723.2, 618.4)">p</text><text xml:space="preserve" font-family="Helvetica-Light,Helvetica" font-size="27.0" fill="#000000" transform="matrix(1.00, 0.00, -0.00, -1.00, 79.0, 506.7)">•</text><text xml:space="preserve" font-family="Helvetica-Light,Helvetica" font-size="36.0" fill="#000000" transform="matrix(1.00, 0.00, -0.00, -1.00, 114.0, 503.3)">N</text><text xml:space="preserve" font-family="Helvetica-Light,Helvetica" font-size="36.0" fill="#000000" transform="matrix(1.00, 0.00, -0.00, -1.00, 140.0, 503.3)">u</text><text xml:space="preserve" font-family="Helvetica-Light,Helvetica" font-size="36.0" fill="#000000" transform="matrix(1.00, 0.00, -0.00, -1.00, 160.0, 503.3)">m</text><text xml:space="preserve" font-family="Helvetica-Light,Helvetica" font-size="36.0" fill="#000000" transform="matrix(1.00, 0.00, -0.00, -1.00, 190.0, 503.3)">b</text><text xml:space="preserve" font-family="Helvetica-Light,Helvetica" font-size="36.0" fill="#000000" transform="matrix(1.00, 0.00, -0.00, -1.00, 212.0, 503.3)">e</text><text xml:space="preserve" font-family="Helvetica-Light,Helvetica" font-size="36.0" fill="#000000" transform="matrix(1.00, 0.00, -0.00, -1.00, 232.0, 503.3)">r</text><text xml:space="preserve" font-family="Helvetica-Light,Helvetica" font-size="36.0" fill="#000000" transform="matrix(1.00, 0.00, -0.00, -1.00, 244.0, 503.3)"> </text><text xml:space="preserve" font-family="Helvetica-Light,Helvetica" font-size="36.0" fill="#000000" transform="matrix(1.00, 0.00, -0.00, -1.00, 254.0, 503.3)">o</text><text xml:space="preserve" font-family="Helvetica-Light,Helvetica" font-size="36.0" fill="#000000" transform="matrix(1.00, 0.00, -0.00, -1.00, 274.0, 503.3)">f</text><text xml:space="preserve" font-family="Helvetica-Light,Helvetica" font-size="36.0" fill="#000000" transform="matrix(1.00, 0.00, -0.00, -1.00, 284.0, 503.3)"> </text><text xml:space="preserve" font-family="Helvetica-Light,Helvetica" font-size="36.0" fill="#000000" transform="matrix(1.00, 0.00, -0.00, -1.00, 294.0, 503.3)">t</text><text xml:space="preserve" font-family="Helvetica-Light,Helvetica" font-size="36.0" fill="#000000" transform="matrix(1.00, 0.00, -0.00, -1.00, 304.0, 503.3)">i</text><text xml:space="preserve" font-family="Helvetica-Light,Helvetica" font-size="36.0" fill="#000000" transform="matrix(1.00, 0.00, -0.00, -1.00, 312.0, 503.3)">m</text><text xml:space="preserve" font-family="Helvetica-Light,Helvetica" font-size="36.0" fill="#000000" transform="matrix(1.00, 0.00, -0.00, -1.00, 342.0, 503.3)">e</text><text xml:space="preserve" font-family="Helvetica-Light,Helvetica" font-size="36.0" fill="#000000" transform="matrix(1.00, 0.00, -0.00, -1.00, 362.0, 503.3)"> </text><text xml:space="preserve" font-family="Helvetica-Light,Helvetica" font-size="36.0" fill="#000000" transform="matrix(1.00, 0.00, -0.00, -1.00, 372.0, 503.3)">s</text><text xml:space="preserve" font-family="Helvetica-Light,Helvetica" font-size="36.0" fill="#000000" transform="matrix(1.00, 0.00, -0.00, -1.00, 390.0, 503.3)">e</text><text xml:space="preserve" font-family="Helvetica-Light,Helvetica" font-size="36.0" fill="#000000" transform="matrix(1.00, 0.00, -0.00, -1.00, 410.1, 503.3)">r</text><text xml:space="preserve" font-family="Helvetica-Light,Helvetica" font-size="36.0" fill="#000000" transform="matrix(1.00, 0.00, -0.00, -1.00, 422.1, 503.3)">i</text><text xml:space="preserve" font-family="Helvetica-Light,Helvetica" font-size="36.0" fill="#000000" transform="matrix(1.00, 0.00, -0.00, -1.00, 430.0, 503.3)">e</text><text xml:space="preserve" font-family="Helvetica-Light,Helvetica" font-size="36.0" fill="#000000" transform="matrix(1.00, 0.00, -0.00, -1.00, 450.1, 503.3)">s</text><text xml:space="preserve" font-family="Helvetica-Light,Helvetica" font-size="36.0" fill="#000000" transform="matrix(1.00, 0.00, -0.00, -1.00, 468.1, 503.3)"> </text><text xml:space="preserve" font-family="Helvetica-Light,Helvetica" font-size="36.0" fill="#000000" transform="matrix(1.00, 0.00, -0.00, -1.00, 478.1, 503.3)">m</text><text xml:space="preserve" font-family="Helvetica-Light,Helvetica" font-size="36.0" fill="#000000" transform="matrix(1.00, 0.00, -0.00, -1.00, 508.1, 503.3)">a</text><text xml:space="preserve" font-family="Helvetica-Light,Helvetica" font-size="36.0" fill="#000000" transform="matrix(1.00, 0.00, -0.00, -1.00, 528.1, 503.3)">t</text><text xml:space="preserve" font-family="Helvetica-Light,Helvetica" font-size="36.0" fill="#000000" transform="matrix(1.00, 0.00, -0.00, -1.00, 538.1, 503.3)">c</text><text xml:space="preserve" font-family="Helvetica-Light,Helvetica" font-size="36.0" fill="#000000" transform="matrix(1.00, 0.00, -0.00, -1.00, 558.1, 503.3)">h</text><text xml:space="preserve" font-family="Helvetica-Light,Helvetica" font-size="36.0" fill="#000000" transform="matrix(1.00, 0.00, -0.00, -1.00, 578.1, 503.3)">e</text><text xml:space="preserve" font-family="Helvetica-Light,Helvetica" font-size="36.0" fill="#000000" transform="matrix(1.00, 0.00, -0.00, -1.00, 598.1, 503.3)">d</text><text xml:space="preserve" font-family="Helvetica-Light,Helvetica" font-size="36.0" fill="#000000" transform="matrix(1.00, 0.00, -0.00, -1.00, 620.1, 503.3)">:</text><text xml:space="preserve" font-family="Helvetica-Light,Helvetica" font-size="36.0" fill="#000000" transform="matrix(1.00, 0.00, -0.00, -1.00, 630.1, 503.3)"> </text><text xml:space="preserve" font-family="Helvetica-Light,Helvetica" font-size="36.0" fill="#000000" transform="matrix(1.00, 0.00, -0.00, -1.00, 640.1, 503.3)">1</text><text xml:space="preserve" font-family="Helvetica-Light,Helvetica" font-size="36.0" fill="#000000" transform="matrix(1.00, 0.00, -0.00, -1.00, 660.2, 503.3)">2</text><text xml:space="preserve" font-family="Helvetica-Light,Helvetica" font-size="36.0" fill="#000000" transform="matrix(1.00, 0.00, -0.00, -1.00, 680.2, 503.3)">M</text><text xml:space="preserve" font-family="Helvetica-Light,Helvetica" font-size="36.0" fill="#000000" transform="matrix(1.00, 0.00, -0.00, -1.00, 710.2, 503.3)"> </text><text xml:space="preserve" font-family="Helvetica-Light,Helvetica" font-size="27.0" fill="#000000" transform="matrix(1.00, 0.00, -0.00, -1.00, 79.0, 451.7)">•</text><text xml:space="preserve" font-family="Helvetica-Light,Helvetica" font-size="36.0" fill="#000000" transform="matrix(1.00, 0.00, -0.00, -1.00, 114.0, 448.3)">N</text><text xml:space="preserve" font-family="Helvetica-Light,Helvetica" font-size="36.0" fill="#000000" transform="matrix(1.00, 0.00, -0.00, -1.00, 140.0, 448.3)">u</text><text xml:space="preserve" font-family="Helvetica-Light,Helvetica" font-size="36.0" fill="#000000" transform="matrix(1.00, 0.00, -0.00, -1.00, 160.0, 448.3)">m</text><text xml:space="preserve" font-family="Helvetica-Light,Helvetica" font-size="36.0" fill="#000000" transform="matrix(1.00, 0.00, -0.00, -1.00, 190.0, 448.3)">b</text><text xml:space="preserve" font-family="Helvetica-Light,Helvetica" font-size="36.0" fill="#000000" transform="matrix(1.00, 0.00, -0.00, -1.00, 212.0, 448.3)">e</text><text xml:space="preserve" font-family="Helvetica-Light,Helvetica" font-size="36.0" fill="#000000" transform="matrix(1.00, 0.00, -0.00, -1.00, 232.0, 448.3)">r</text><text xml:space="preserve" font-family="Helvetica-Light,Helvetica" font-size="36.0" fill="#000000" transform="matrix(1.00, 0.00, -0.00, -1.00, 244.0, 448.3)"> </text><text xml:space="preserve" font-family="Helvetica-Light,Helvetica" font-size="36.0" fill="#000000" transform="matrix(1.00, 0.00, -0.00, -1.00, 254.0, 448.3)">o</text><text xml:space="preserve" font-family="Helvetica-Light,Helvetica" font-size="36.0" fill="#000000" transform="matrix(1.00, 0.00, -0.00, -1.00, 274.0, 448.3)">f</text><text xml:space="preserve" font-family="Helvetica-Light,Helvetica" font-size="36.0" fill="#000000" transform="matrix(1.00, 0.00, -0.00, -1.00, 284.0, 448.3)"> </text><text xml:space="preserve" font-family="Helvetica-Light,Helvetica" font-size="36.0" fill="#000000" transform="matrix(1.00, 0.00, -0.00, -1.00, 294.0, 448.3)">b</text><text xml:space="preserve" font-family="Helvetica-Light,Helvetica" font-size="36.0" fill="#000000" transform="matrix(1.00, 0.00, -0.00, -1.00, 316.0, 448.3)">l</text><text xml:space="preserve" font-family="Helvetica-Light,Helvetica" font-size="36.0" fill="#000000" transform="matrix(1.00, 0.00, -0.00, -1.00, 324.0, 448.3)">o</text><text xml:space="preserve" font-family="Helvetica-Light,Helvetica" font-size="36.0" fill="#000000" transform="matrix(1.00, 0.00, -0.00, -1.00, 344.0, 448.3)">c</text><text xml:space="preserve" font-family="Helvetica-Light,Helvetica" font-size="36.0" fill="#000000" transform="matrix(1.00, 0.00, -0.00, -1.00, 364.1, 448.3)">k</text><text xml:space="preserve" font-family="Helvetica-Light,Helvetica" font-size="36.0" fill="#000000" transform="matrix(1.00, 0.00, -0.00, -1.00, 382.1, 448.3)">s</text><text xml:space="preserve" font-family="Helvetica-Light,Helvetica" font-size="36.0" fill="#000000" transform="matrix(1.00, 0.00, -0.00, -1.00, 400.1, 448.3)">:</text><text xml:space="preserve" font-family="Helvetica-Light,Helvetica" font-size="36.0" fill="#000000" transform="matrix(1.00, 0.00, -0.00, -1.00, 410.1, 448.3)"> </text><text xml:space="preserve" font-family="Helvetica-Light,Helvetica" font-size="36.0" fill="#000000" transform="matrix(1.00, 0.00, -0.00, -1.00, 420.1, 448.3)">4</text><text xml:space="preserve" font-family="Helvetica-Light,Helvetica" font-size="36.0" fill="#000000" transform="matrix(1.00, 0.00, -0.00, -1.00, 440.1, 448.3)">8</text><text xml:space="preserve" font-family="Helvetica-Light,Helvetica" font-size="36.0" fill="#000000" transform="matrix(1.00, 0.00, -0.00, -1.00, 460.1, 448.3)">M</text><text xml:space="preserve" font-family="Helvetica-Light,Helvetica" font-size="36.0" fill="#000000" transform="matrix(1.00, 0.00, -0.00, -1.00, 490.1, 448.3)"> </text><text xml:space="preserve" font-family="Helvetica-Light,Helvetica" font-size="27.0" fill="#000000" transform="matrix(1.00, 0.00, -0.00, -1.00, 79.0, 396.7)">•</text><text xml:space="preserve" font-family="Helvetica-Light,Helvetica" font-size="36.0" fill="#000000" transform="matrix(1.00, 0.00, -0.00, -1.00, 114.0, 393.3)">N</text><text xml:space="preserve" font-family="Helvetica-Light,Helvetica" font-size="36.0" fill="#000000" transform="matrix(1.00, 0.00, -0.00, -1.00, 140.0, 393.3)">u</text><text xml:space="preserve" font-family="Helvetica-Light,Helvetica" font-size="36.0" fill="#000000" transform="matrix(1.00, 0.00, -0.00, -1.00, 160.0, 393.3)">m</text><text xml:space="preserve" font-family="Helvetica-Light,Helvetica" font-size="36.0" fill="#000000" transform="matrix(1.00, 0.00, -0.00, -1.00, 190.0, 393.3)">b</text><text xml:space="preserve" font-family="Helvetica-Light,Helvetica" font-size="36.0" fill="#000000" transform="matrix(1.00, 0.00, -0.00, -1.00, 212.0, 393.3)">e</text><text xml:space="preserve" font-family="Helvetica-Light,Helvetica" font-size="36.0" fill="#000000" transform="matrix(1.00, 0.00, -0.00, -1.00, 232.0, 393.3)">r</text><text xml:space="preserve" font-family="Helvetica-Light,Helvetica" font-size="36.0" fill="#000000" transform="matrix(1.00, 0.00, -0.00, -1.00, 244.0, 393.3)"> </text><text xml:space="preserve" font-family="Helvetica-Light,Helvetica" font-size="36.0" fill="#000000" transform="matrix(1.00, 0.00, -0.00, -1.00, 254.0, 393.3)">o</text><text xml:space="preserve" font-family="Helvetica-Light,Helvetica" font-size="36.0" fill="#000000" transform="matrix(1.00, 0.00, -0.00, -1.00, 274.0, 393.3)">f</text><text xml:space="preserve" font-family="Helvetica-Light,Helvetica" font-size="36.0" fill="#000000" transform="matrix(1.00, 0.00, -0.00, -1.00, 284.0, 393.3)"> </text><text xml:space="preserve" font-family="Helvetica-Light,Helvetica" font-size="36.0" fill="#000000" transform="matrix(1.00, 0.00, -0.00, -1.00, 294.0, 393.3)">i</text><text xml:space="preserve" font-family="Helvetica-Light,Helvetica" font-size="36.0" fill="#000000" transform="matrix(1.00, 0.00, -0.00, -1.00, 302.0, 393.3)">n</text><text xml:space="preserve" font-family="Helvetica-Light,Helvetica" font-size="36.0" fill="#000000" transform="matrix(1.00, 0.00, -0.00, -1.00, 322.0, 393.3)">p</text><text xml:space="preserve" font-family="Helvetica-Light,Helvetica" font-size="36.0" fill="#000000" transform="matrix(1.00, 0.00, -0.00, -1.00, 344.0, 393.3)">u</text><text xml:space="preserve" font-family="Helvetica-Light,Helvetica" font-size="36.0" fill="#000000" transform="matrix(1.00, 0.00, -0.00, -1.00, 364.1, 393.3)">t</text><text xml:space="preserve" font-family="Helvetica-Light,Helvetica" font-size="36.0" fill="#000000" transform="matrix(1.00, 0.00, -0.00, -1.00, 374.1, 393.3)"> </text><text xml:space="preserve" font-family="Helvetica-Light,Helvetica" font-size="36.0" fill="#000000" transform="matrix(1.00, 0.00, -0.00, -1.00, 384.1, 393.3)">d</text><text xml:space="preserve" font-family="Helvetica-Light,Helvetica" font-size="36.0" fill="#000000" transform="matrix(1.00, 0.00, -0.00, -1.00, 406.1, 393.3)">a</text><text xml:space="preserve" font-family="Helvetica-Light,Helvetica" font-size="36.0" fill="#000000" transform="matrix(1.00, 0.00, -0.00, -1.00, 426.1, 393.3)">t</text><text xml:space="preserve" font-family="Helvetica-Light,Helvetica" font-size="36.0" fill="#000000" transform="matrix(1.00, 0.00, -0.00, -1.00, 436.1, 393.3)">a</text><text xml:space="preserve" font-family="Helvetica-Light,Helvetica" font-size="36.0" fill="#000000" transform="matrix(1.00, 0.00, -0.00, -1.00, 456.1, 393.3)"> </text><text xml:space="preserve" font-family="Helvetica-Light,Helvetica" font-size="36.0" fill="#000000" transform="matrix(1.00, 0.00, -0.00, -1.00, 466.1, 393.3)">p</text><text xml:space="preserve" font-family="Helvetica-Light,Helvetica" font-size="36.0" fill="#000000" transform="matrix(1.00, 0.00, -0.00, -1.00, 488.1, 393.3)">o</text><text xml:space="preserve" font-family="Helvetica-Light,Helvetica" font-size="36.0" fill="#000000" transform="matrix(1.00, 0.00, -0.00, -1.00, 508.1, 393.3)">i</text><text xml:space="preserve" font-family="Helvetica-Light,Helvetica" font-size="36.0" fill="#000000" transform="matrix(1.00, 0.00, -0.00, -1.00, 516.1, 393.3)">n</text><text xml:space="preserve" font-family="Helvetica-Light,Helvetica" font-size="36.0" fill="#000000" transform="matrix(1.00, 0.00, -0.00, -1.00, 536.1, 393.3)">t</text><text xml:space="preserve" font-family="Helvetica-Light,Helvetica" font-size="36.0" fill="#000000" transform="matrix(1.00, 0.00, -0.00, -1.00, 546.1, 393.3)">s</text><text xml:space="preserve" font-family="Helvetica-Light,Helvetica" font-size="36.0" fill="#000000" transform="matrix(1.00, 0.00, -0.00, -1.00, 564.1, 393.3)">:</text><text xml:space="preserve" font-family="Helvetica-Light,Helvetica" font-size="36.0" fill="#000000" transform="matrix(1.00, 0.00, -0.00, -1.00, 574.2, 393.3)"> </text><text xml:space="preserve" font-family="Helvetica-Light,Helvetica" font-size="36.0" fill="#000000" transform="matrix(1.00, 0.00, -0.00, -1.00, 584.2, 393.3)">2</text><text xml:space="preserve" font-family="Helvetica-Light,Helvetica" font-size="36.0" fill="#000000" transform="matrix(1.00, 0.00, -0.00, -1.00, 604.2, 393.3)">.</text><text xml:space="preserve" font-family="Helvetica-Light,Helvetica" font-size="36.0" fill="#000000" transform="matrix(1.00, 0.00, -0.00, -1.00, 614.2, 393.3)">1</text><text xml:space="preserve" font-family="Helvetica-Light,Helvetica" font-size="36.0" fill="#000000" transform="matrix(1.00, 0.00, -0.00, -1.00, 634.2, 393.3)">6</text><text xml:space="preserve" font-family="Helvetica-Light,Helvetica" font-size="36.0" fill="#000000" transform="matrix(1.00, 0.00, -0.00, -1.00, 654.2, 393.3)">B</text><text xml:space="preserve" font-family="Helvetica-Light,Helvetica" font-size="36.0" fill="#000000" transform="matrix(1.00, 0.00, -0.00, -1.00, 678.2, 393.3)"> </text><text xml:space="preserve" font-family="Helvetica-Light,Helvetica" font-size="27.0" fill="#000000" transform="matrix(1.00, 0.00, -0.00, -1.00, 79.0, 341.7)">•</text><text xml:space="preserve" font-family="Helvetica-Light,Helvetica" font-size="36.0" fill="#000000" transform="matrix(1.00, 0.00, -0.00, -1.00, 114.0, 338.3)">N</text><text xml:space="preserve" font-family="Helvetica-Light,Helvetica" font-size="36.0" fill="#000000" transform="matrix(1.00, 0.00, -0.00, -1.00, 140.0, 338.3)">u</text><text xml:space="preserve" font-family="Helvetica-Light,Helvetica" font-size="36.0" fill="#000000" transform="matrix(1.00, 0.00, -0.00, -1.00, 160.0, 338.3)">m</text><text xml:space="preserve" font-family="Helvetica-Light,Helvetica" font-size="36.0" fill="#000000" transform="matrix(1.00, 0.00, -0.00, -1.00, 190.0, 338.3)">b</text><text xml:space="preserve" font-family="Helvetica-Light,Helvetica" font-size="36.0" fill="#000000" transform="matrix(1.00, 0.00, -0.00, -1.00, 212.0, 338.3)">e</text><text xml:space="preserve" font-family="Helvetica-Light,Helvetica" font-size="36.0" fill="#000000" transform="matrix(1.00, 0.00, -0.00, -1.00, 232.0, 338.3)">r</text><text xml:space="preserve" font-family="Helvetica-Light,Helvetica" font-size="36.0" fill="#000000" transform="matrix(1.00, 0.00, -0.00, -1.00, 244.0, 338.3)"> </text><text xml:space="preserve" font-family="Helvetica-Light,Helvetica" font-size="36.0" fill="#000000" transform="matrix(1.00, 0.00, -0.00, -1.00, 254.0, 338.3)">o</text><text xml:space="preserve" font-family="Helvetica-Light,Helvetica" font-size="36.0" fill="#000000" transform="matrix(1.00, 0.00, -0.00, -1.00, 274.0, 338.3)">f</text><text xml:space="preserve" font-family="Helvetica-Light,Helvetica" font-size="36.0" fill="#000000" transform="matrix(1.00, 0.00, -0.00, -1.00, 284.0, 338.3)"> </text><text xml:space="preserve" font-family="Helvetica-Light,Helvetica" font-size="36.0" fill="#000000" transform="matrix(1.00, 0.00, -0.00, -1.00, 294.0, 338.3)">o</text><text xml:space="preserve" font-family="Helvetica-Light,Helvetica" font-size="36.0" fill="#000000" transform="matrix(1.00, 0.00, -0.00, -1.00, 314.1, 338.3)">u</text><text xml:space="preserve" font-family="Helvetica-Light,Helvetica" font-size="36.0" fill="#000000" transform="matrix(1.00, 0.00, -0.00, -1.00, 334.1, 338.3)">t</text><text xml:space="preserve" font-family="Helvetica-Light,Helvetica" font-size="36.0" fill="#000000" transform="matrix(1.00, 0.00, -0.00, -1.00, 344.1, 338.3)">p</text><text xml:space="preserve" font-family="Helvetica-Light,Helvetica" font-size="36.0" fill="#000000" transform="matrix(1.00, 0.00, -0.00, -1.00, 366.1, 338.3)">u</text><text xml:space="preserve" font-family="Helvetica-Light,Helvetica" font-size="36.0" fill="#000000" transform="matrix(1.00, 0.00, -0.00, -1.00, 386.1, 338.3)">t</text><text xml:space="preserve" font-family="Helvetica-Light,Helvetica" font-size="36.0" fill="#000000" transform="matrix(1.00, 0.00, -0.00, -1.00, 396.1, 338.3)"> </text><text xml:space="preserve" font-family="Helvetica-Light,Helvetica" font-size="36.0" fill="#000000" transform="matrix(1.00, 0.00, -0.00, -1.00, 406.1, 338.3)">d</text><text xml:space="preserve" font-family="Helvetica-Light,Helvetica" font-size="36.0" fill="#000000" transform="matrix(1.00, 0.00, -0.00, -1.00, 428.1, 338.3)">a</text><text xml:space="preserve" font-family="Helvetica-Light,Helvetica" font-size="36.0" fill="#000000" transform="matrix(1.00, 0.00, -0.00, -1.00, 448.1, 338.3)">t</text><text xml:space="preserve" font-family="Helvetica-Light,Helvetica" font-size="36.0" fill="#000000" transform="matrix(1.00, 0.00, -0.00, -1.00, 458.1, 338.3)">a</text><text xml:space="preserve" font-family="Helvetica-Light,Helvetica" font-size="36.0" fill="#000000" transform="matrix(1.00, 0.00, -0.00, -1.00, 478.1, 338.3)"> </text><text xml:space="preserve" font-family="Helvetica-Light,Helvetica" font-size="36.0" fill="#000000" transform="matrix(1.00, 0.00, -0.00, -1.00, 488.1, 338.3)">p</text><text xml:space="preserve" font-family="Helvetica-Light,Helvetica" font-size="36.0" fill="#000000" transform="matrix(1.00, 0.00, -0.00, -1.00, 510.1, 338.3)">o</text><text xml:space="preserve" font-family="Helvetica-Light,Helvetica" font-size="36.0" fill="#000000" transform="matrix(1.00, 0.00, -0.00, -1.00, 530.2, 338.3)">i</text><text xml:space="preserve" font-family="Helvetica-Light,Helvetica" font-size="36.0" fill="#000000" transform="matrix(1.00, 0.00, -0.00, -1.00, 538.2, 338.3)">n</text><text xml:space="preserve" font-family="Helvetica-Light,Helvetica" font-size="36.0" fill="#000000" transform="matrix(1.00, 0.00, -0.00, -1.00, 558.2, 338.3)">t</text><text xml:space="preserve" font-family="Helvetica-Light,Helvetica" font-size="36.0" fill="#000000" transform="matrix(1.00, 0.00, -0.00, -1.00, 568.2, 338.3)">s</text><text xml:space="preserve" font-family="Helvetica-Light,Helvetica" font-size="36.0" fill="#000000" transform="matrix(1.00, 0.00, -0.00, -1.00, 586.2, 338.3)">:</text><text xml:space="preserve" font-family="Helvetica-Light,Helvetica" font-size="36.0" fill="#000000" transform="matrix(1.00, 0.00, -0.00, -1.00, 596.2, 338.3)"> </text><text xml:space="preserve" font-family="Helvetica-Light,Helvetica" font-size="36.0" fill="#000000" transform="matrix(1.00, 0.00, -0.00, -1.00, 606.2, 338.3)">5</text><text xml:space="preserve" font-family="Helvetica-Light,Helvetica" font-size="36.0" fill="#000000" transform="matrix(1.00, 0.00, -0.00, -1.00, 626.2, 338.3)">4</text><text xml:space="preserve" font-family="Helvetica-Light,Helvetica" font-size="36.0" fill="#000000" transform="matrix(1.00, 0.00, -0.00, -1.00, 646.2, 338.3)">0</text><text xml:space="preserve" font-family="Helvetica-Light,Helvetica" font-size="36.0" fill="#000000" transform="matrix(1.00, 0.00, -0.00, -1.00, 666.2, 338.3)"> </text><text xml:space="preserve" font-family="Helvetica-Light,Helvetica" font-size="27.0" fill="#000000" transform="matrix(1.00, 0.00, -0.00, -1.00, 79.0, 286.7)">•</text><text xml:space="preserve" font-family="Helvetica-Light,Helvetica" font-size="36.0" fill="#000000" transform="matrix(1.00, 0.00, -0.00, -1.00, 114.0, 283.3)">N</text><text xml:space="preserve" font-family="Helvetica-Light,Helvetica" font-size="36.0" fill="#000000" transform="matrix(1.00, 0.00, -0.00, -1.00, 140.0, 283.3)">u</text><text xml:space="preserve" font-family="Helvetica-Light,Helvetica" font-size="36.0" fill="#000000" transform="matrix(1.00, 0.00, -0.00, -1.00, 160.0, 283.3)">m</text><text xml:space="preserve" font-family="Helvetica-Light,Helvetica" font-size="36.0" fill="#000000" transform="matrix(1.00, 0.00, -0.00, -1.00, 190.0, 283.3)">b</text><text xml:space="preserve" font-family="Helvetica-Light,Helvetica" font-size="36.0" fill="#000000" transform="matrix(1.00, 0.00, -0.00, -1.00, 212.0, 283.3)">e</text><text xml:space="preserve" font-family="Helvetica-Light,Helvetica" font-size="36.0" fill="#000000" transform="matrix(1.00, 0.00, -0.00, -1.00, 232.0, 283.3)">r</text><text xml:space="preserve" font-family="Helvetica-Light,Helvetica" font-size="36.0" fill="#000000" transform="matrix(1.00, 0.00, -0.00, -1.00, 244.0, 283.3)"> </text><text xml:space="preserve" font-family="Helvetica-Light,Helvetica" font-size="36.0" fill="#000000" transform="matrix(1.00, 0.00, -0.00, -1.00, 254.0, 283.3)">o</text><text xml:space="preserve" font-family="Helvetica-Light,Helvetica" font-size="36.0" fill="#000000" transform="matrix(1.00, 0.00, -0.00, -1.00, 274.0, 283.3)">f</text><text xml:space="preserve" font-family="Helvetica-Light,Helvetica" font-size="36.0" fill="#000000" transform="matrix(1.00, 0.00, -0.00, -1.00, 284.0, 283.3)"> </text><text xml:space="preserve" font-family="Helvetica-Light,Helvetica" font-size="36.0" fill="#000000" transform="matrix(1.00, 0.00, -0.00, -1.00, 294.0, 283.3)">o</text><text xml:space="preserve" font-family="Helvetica-Light,Helvetica" font-size="36.0" fill="#000000" transform="matrix(1.00, 0.00, -0.00, -1.00, 314.1, 283.3)">u</text><text xml:space="preserve" font-family="Helvetica-Light,Helvetica" font-size="36.0" fill="#000000" transform="matrix(1.00, 0.00, -0.00, -1.00, 334.1, 283.3)">t</text><text xml:space="preserve" font-family="Helvetica-Light,Helvetica" font-size="36.0" fill="#000000" transform="matrix(1.00, 0.00, -0.00, -1.00, 344.1, 283.3)">p</text><text xml:space="preserve" font-family="Helvetica-Light,Helvetica" font-size="36.0" fill="#000000" transform="matrix(1.00, 0.00, -0.00, -1.00, 366.1, 283.3)">u</text><text xml:space="preserve" font-family="Helvetica-Light,Helvetica" font-size="36.0" fill="#000000" transform="matrix(1.00, 0.00, -0.00, -1.00, 386.1, 283.3)">t</text><text xml:space="preserve" font-family="Helvetica-Light,Helvetica" font-size="36.0" fill="#000000" transform="matrix(1.00, 0.00, -0.00, -1.00, 396.1, 283.3)"> </text><text xml:space="preserve" font-family="Helvetica-Light,Helvetica" font-size="36.0" fill="#000000" transform="matrix(1.00, 0.00, -0.00, -1.00, 406.1, 283.3)">l</text><text xml:space="preserve" font-family="Helvetica-Light,Helvetica" font-size="36.0" fill="#000000" transform="matrix(1.00, 0.00, -0.00, -1.00, 414.1, 283.3)">i</text><text xml:space="preserve" font-family="Helvetica-Light,Helvetica" font-size="36.0" fill="#000000" transform="matrix(1.00, 0.00, -0.00, -1.00, 422.1, 283.3)">n</text><text xml:space="preserve" font-family="Helvetica-Light,Helvetica" font-size="36.0" fill="#000000" transform="matrix(1.00, 0.00, -0.00, -1.00, 442.1, 283.3)">e</text><text xml:space="preserve" font-family="Helvetica-Light,Helvetica" font-size="36.0" fill="#000000" transform="matrix(1.00, 0.00, -0.00, -1.00, 462.1, 283.3)">s</text><text xml:space="preserve" font-family="Helvetica-Light,Helvetica" font-size="36.0" fill="#000000" transform="matrix(1.00, 0.00, -0.00, -1.00, 480.1, 283.3)">:</text><text xml:space="preserve" font-family="Helvetica-Light,Helvetica" font-size="36.0" fill="#000000" transform="matrix(1.00, 0.00, -0.00, -1.00, 490.1, 283.3)"> </text><text xml:space="preserve" font-family="Helvetica-Light,Helvetica" font-size="36.0" fill="#000000" transform="matrix(1.00, 0.00, -0.00, -1.00, 500.1, 283.3)">3</text><g><clipPath id="clip0x7f86a4407410"><path d="M 690.0 19.2 L 992.2 19.2 L 992.2 366.5 L 690.0 366.5 Z M 690.0 19.2 "></path></clipPath><g clip-path="url(#clip0x7f86a4407410)"><path d="M 690.0 366.5 L 992.2 366.5 L 992.2 19.2 L 690.0 19.2 Z M 690.0 366.5 " fill="#FEFFFF" fill-opacity="0.00"></path></g></g><g><clipPath id="clip0x7f86a4408670"><path d="M 690.2 365.5 L 991.1 365.5 L 991.1 20.0 L 690.2 20.0 Z M 690.2 365.5 "></path></clipPath><g clip-path="url(#clip0x7f86a4408670)"><g><clipPath id="clip0x7f86a4408dc0"><path d="M 690.2 20.0 L 991.1 20.0 L 991.1 365.5 L 690.2 365.5 Z M 690.2 20.0 "></path></clipPath><g clip-path="url(#clip0x7f86a4408dc0)"><image xlink:href="../../8F5F7A57-0575-47A5-9E76-FEA79AF723BA/assets/23F4C7E97065443FACE0CA231E79B617.png" width="385.00" height="442.00" transform="matrix(0.78, 0.00, -0.00, -0.78, 690.2, 365.5)"></image></g></g></g></g></g></svg>