<?xml version="1.0" encoding="UTF-8" standalone="no"?><svg xmlns="http://www.w3.org/2000/svg" xmlns:xlink="http://www.w3.org/1999/xlink" clip-rule="evenodd" stroke-miterlimit="10" viewBox="0 0 1024 768"><desc>SVG generated by Keynote</desc><defs></defs><g transform="matrix(1.00, 0.00, -0.00, -1.00, 0.0, 768.0)"><path d="M 0.0 768.0 L 1024.0 768.0 L 1024.0 0.0 L 0.0 0.0 Z M 0.0 768.0 " fill="#FEFFFF"></path><text xml:space="preserve" font-family="Helvetica-Light,Helvetica" font-size="80.0" fill="#000000" transform="matrix(1.00, 0.00, -0.00, -1.00, 109.6, 618.4)">H</text><text xml:space="preserve" font-family="Helvetica-Light,Helvetica" font-size="80.0" fill="#000000" transform="matrix(1.00, 0.00, -0.00, -1.00, 167.4, 618.4)">o</text><text xml:space="preserve" font-family="Helvetica-Light,Helvetica" font-size="80.0" fill="#000000" transform="matrix(1.00, 0.00, -0.00, -1.00, 211.9, 618.4)">w</text><text xml:space="preserve" font-family="Helvetica-Light,Helvetica" font-size="80.0" fill="#000000" transform="matrix(1.00, 0.00, -0.00, -1.00, 269.6, 618.4)"> </text><text xml:space="preserve" font-family="Helvetica-Light,Helvetica" font-size="80.0" fill="#000000" transform="matrix(1.00, 0.00, -0.00, -1.00, 291.9, 618.4)">m</text><text xml:space="preserve" font-family="Helvetica-Light,Helvetica" font-size="80.0" fill="#000000" transform="matrix(1.00, 0.00, -0.00, -1.00, 358.5, 618.4)">u</text><text xml:space="preserve" font-family="Helvetica-Light,Helvetica" font-size="80.0" fill="#000000" transform="matrix(1.00, 0.00, -0.00, -1.00, 403.0, 618.4)">c</text><text xml:space="preserve" font-family="Helvetica-Light,Helvetica" font-size="80.0" fill="#000000" transform="matrix(1.00, 0.00, -0.00, -1.00, 447.5, 618.4)">h</text><text xml:space="preserve" font-family="Helvetica-Light,Helvetica" font-size="80.0" fill="#000000" transform="matrix(1.00, 0.00, -0.00, -1.00, 492.0, 618.4)"> </text><text xml:space="preserve" font-family="Helvetica-Light,Helvetica" font-size="80.0" fill="#000000" transform="matrix(1.00, 0.00, -0.00, -1.00, 514.2, 618.4)">i</text><text xml:space="preserve" font-family="Helvetica-Light,Helvetica" font-size="80.0" fill="#000000" transform="matrix(1.00, 0.00, -0.00, -1.00, 532.0, 618.4)">n</text><text xml:space="preserve" font-family="Helvetica-Light,Helvetica" font-size="80.0" fill="#000000" transform="matrix(1.00, 0.00, -0.00, -1.00, 576.4, 618.4)">p</text><text xml:space="preserve" font-family="Helvetica-Light,Helvetica" font-size="80.0" fill="#000000" transform="matrix(1.00, 0.00, -0.00, -1.00, 625.3, 618.4)">u</text><text xml:space="preserve" font-family="Helvetica-Light,Helvetica" font-size="80.0" fill="#000000" transform="matrix(1.00, 0.00, -0.00, -1.00, 669.8, 618.4)">t</text><text xml:space="preserve" font-family="Helvetica-Light,Helvetica" font-size="80.0" fill="#000000" transform="matrix(1.00, 0.00, -0.00, -1.00, 692.0, 618.4)"> </text><text xml:space="preserve" font-family="Helvetica-Light,Helvetica" font-size="80.0" fill="#000000" transform="matrix(1.00, 0.00, -0.00, -1.00, 714.3, 618.4)">d</text><text xml:space="preserve" font-family="Helvetica-Light,Helvetica" font-size="80.0" fill="#000000" transform="matrix(1.00, 0.00, -0.00, -1.00, 763.2, 618.4)">a</text><text xml:space="preserve" font-family="Helvetica-Light,Helvetica" font-size="80.0" fill="#000000" transform="matrix(1.00, 0.00, -0.00, -1.00, 807.6, 618.4)">t</text><text xml:space="preserve" font-family="Helvetica-Light,Helvetica" font-size="80.0" fill="#000000" transform="matrix(1.00, 0.00, -0.00, -1.00, 829.9, 618.4)">a</text><text xml:space="preserve" font-family="Helvetica-Light,Helvetica" font-size="80.0" fill="#000000" transform="matrix(1.00, 0.00, -0.00, -1.00, 874.4, 618.4)">?</text><g><clipPath id="clip0x7f86a271f2e0"><path d="M 536.5 147.4 L 890.3 147.4 L 890.3 554.0 L 536.5 554.0 Z M 536.5 147.4 "></path></clipPath><g clip-path="url(#clip0x7f86a271f2e0)"><path d="M 536.5 554.0 L 890.3 554.0 L 890.3 147.4 L 536.5 147.4 Z M 536.5 554.0 " fill="#FEFFFF" fill-opacity="0.00"></path></g></g><g><clipPath id="clip0x7f86a2720530"><path d="M 536.5 552.8 L 889.2 552.8 L 889.2 147.9 L 536.5 147.9 Z M 536.5 552.8 "></path></clipPath><g clip-path="url(#clip0x7f86a2720530)"><g><clipPath id="clip0x7f86a2720c80"><path d="M 536.5 147.9 L 889.2 147.9 L 889.2 552.8 L 536.5 552.8 Z M 536.5 147.9 "></path></clipPath><g clip-path="url(#clip0x7f86a2720c80)"><image xlink:href="../../3C668B67-6462-48AC-BC66-6A9BF069F07E/assets/E701529070D10A51F31598C3FD8A7B07.png" width="385.00" height="442.00" transform="matrix(0.92, 0.00, -0.00, -0.92, 536.5, 552.8)"></image></g></g></g></g><g><clipPath id="clip0x7f86a42c7290"><path d="M 126.5 148.1 L 480.3 148.1 L 480.3 553.4 L 126.5 553.4 Z M 126.5 148.1 "></path></clipPath><g clip-path="url(#clip0x7f86a42c7290)"><path d="M 126.5 553.4 L 480.3 553.4 L 480.3 148.1 L 126.5 148.1 Z M 126.5 553.4 " fill="#FEFFFF" fill-opacity="0.00"></path></g></g><g><clipPath id="clip0x7f86a42c8170"><path d="M 127.2 553.4 L 479.9 553.4 L 479.9 148.4 L 127.2 148.4 Z M 127.2 553.4 "></path></clipPath><g clip-path="url(#clip0x7f86a42c8170)"><g><clipPath id="clip0x7f86a42c88c0"><path d="M 127.2 148.4 L 479.9 148.4 L 479.9 553.4 L 127.2 553.4 Z M 127.2 148.4 "></path></clipPath><g clip-path="url(#clip0x7f86a42c88c0)"><image xlink:href="../../3C668B67-6462-48AC-BC66-6A9BF069F07E/assets/FBDFDC542F8F5542970E1474D4E5A76E.png" width="385.00" height="442.00" transform="matrix(0.92, 0.00, -0.00, -0.92, 127.2, 553.4)"></image></g></g></g></g></g></svg>