<?xml version="1.0" encoding="UTF-8" standalone="no"?><svg xmlns="http://www.w3.org/2000/svg" xmlns:xlink="http://www.w3.org/1999/xlink" clip-rule="evenodd" stroke-miterlimit="10" viewBox="0 0 1024 768"><desc>SVG generated by Keynote</desc><defs></defs><g transform="matrix(1.00, 0.00, -0.00, -1.00, 0.0, 768.0)"><path d="M 0.0 768.0 L 1024.0 768.0 L 1024.0 0.0 L 0.0 0.0 Z M 0.0 768.0 " fill="#FEFFFF"></path><text xml:space="preserve" font-family="Helvetica-Light,Helvetica" font-size="80.0" fill="#000000" transform="matrix(1.00, 0.00, -0.00, -1.00, 139.3, 618.4)">M</text><text xml:space="preserve" font-family="Helvetica-Light,Helvetica" font-size="80.0" fill="#000000" transform="matrix(1.00, 0.00, -0.00, -1.00, 206.0, 618.4)">o</text><text xml:space="preserve" font-family="Helvetica-Light,Helvetica" font-size="80.0" fill="#000000" transform="matrix(1.00, 0.00, -0.00, -1.00, 250.4, 618.4)">r</text><text xml:space="preserve" font-family="Helvetica-Light,Helvetica" font-size="80.0" fill="#000000" transform="matrix(1.00, 0.00, -0.00, -1.00, 275.6, 618.4)">e</text><text xml:space="preserve" font-family="Helvetica-Light,Helvetica" font-size="80.0" fill="#000000" transform="matrix(1.00, 0.00, -0.00, -1.00, 320.1, 618.4)"> </text><text xml:space="preserve" font-family="Helvetica-Light,Helvetica" font-size="80.0" fill="#000000" transform="matrix(1.00, 0.00, -0.00, -1.00, 342.4, 618.4)">c</text><text xml:space="preserve" font-family="Helvetica-Light,Helvetica" font-size="80.0" fill="#000000" transform="matrix(1.00, 0.00, -0.00, -1.00, 386.8, 618.4)">o</text><text xml:space="preserve" font-family="Helvetica-Light,Helvetica" font-size="80.0" fill="#000000" transform="matrix(1.00, 0.00, -0.00, -1.00, 431.3, 618.4)">m</text><text xml:space="preserve" font-family="Helvetica-Light,Helvetica" font-size="80.0" fill="#000000" transform="matrix(1.00, 0.00, -0.00, -1.00, 498.0, 618.4)">p</text><text xml:space="preserve" font-family="Helvetica-Light,Helvetica" font-size="80.0" fill="#000000" transform="matrix(1.00, 0.00, -0.00, -1.00, 546.8, 618.4)">l</text><text xml:space="preserve" font-family="Helvetica-Light,Helvetica" font-size="80.0" fill="#000000" transform="matrix(1.00, 0.00, -0.00, -1.00, 564.6, 618.4)">e</text><text xml:space="preserve" font-family="Helvetica-Light,Helvetica" font-size="80.0" fill="#000000" transform="matrix(1.00, 0.00, -0.00, -1.00, 609.1, 618.4)">x</text><text xml:space="preserve" font-family="Helvetica-Light,Helvetica" font-size="80.0" fill="#000000" transform="matrix(1.00, 0.00, -0.00, -1.00, 649.1, 618.4)"> </text><text xml:space="preserve" font-family="Helvetica-Light,Helvetica" font-size="80.0" fill="#000000" transform="matrix(1.00, 0.00, -0.00, -1.00, 671.3, 618.4)">g</text><text xml:space="preserve" font-family="Helvetica-Light,Helvetica" font-size="80.0" fill="#000000" transform="matrix(1.00, 0.00, -0.00, -1.00, 720.2, 618.4)">r</text><text xml:space="preserve" font-family="Helvetica-Light,Helvetica" font-size="80.0" fill="#000000" transform="matrix(1.00, 0.00, -0.00, -1.00, 746.8, 618.4)">a</text><text xml:space="preserve" font-family="Helvetica-Light,Helvetica" font-size="80.0" fill="#000000" transform="matrix(1.00, 0.00, -0.00, -1.00, 791.3, 618.4)">p</text><text xml:space="preserve" font-family="Helvetica-Light,Helvetica" font-size="80.0" fill="#000000" transform="matrix(1.00, 0.00, -0.00, -1.00, 840.2, 618.4)">h</text><text xml:space="preserve" font-family="Calibri,Calibri" font-size="18.0" fill="#000000" transform="matrix(1.00, 0.00, -0.00, -1.00, 94.0, 337.9)">#</text><text xml:space="preserve" font-family="Calibri,Calibri" font-size="18.0" fill="#000000" transform="matrix(1.00, 0.00, -0.00, -1.00, 103.0, 337.9)">	</text><text xml:space="preserve" font-family="Calibri,Calibri" font-size="18.0" fill="#000000" transform="matrix(1.00, 0.00, -0.00, -1.00, 131.0, 337.9)"></text><text xml:space="preserve" font-family="Calibri,Calibri" font-size="18.0" fill="#000000" transform="matrix(1.00, 0.00, -0.00, -1.00, 131.0, 337.9)"> </text><text xml:space="preserve" font-family="Calibri,Calibri" font-size="18.0" fill="#000000" transform="matrix(1.00, 0.00, -0.00, -1.00, 135.0, 337.9)"> </text><text xml:space="preserve" font-family="Calibri,Calibri" font-size="18.0" fill="#000000" transform="matrix(1.00, 0.00, -0.00, -1.00, 139.1, 337.9)">Q</text><text xml:space="preserve" font-family="Calibri,Calibri" font-size="18.0" fill="#000000" transform="matrix(1.00, 0.00, -0.00, -1.00, 151.2, 337.9)">u</text><text xml:space="preserve" font-family="Calibri,Calibri" font-size="18.0" fill="#000000" transform="matrix(1.00, 0.00, -0.00, -1.00, 160.7, 337.9)">e</text><text xml:space="preserve" font-family="Calibri,Calibri" font-size="18.0" fill="#000000" transform="matrix(1.00, 0.00, -0.00, -1.00, 169.6, 337.9)">r</text><text xml:space="preserve" font-family="Calibri,Calibri" font-size="18.0" fill="#000000" transform="matrix(1.00, 0.00, -0.00, -1.00, 176.0, 337.9)">y</text><text xml:space="preserve" font-family="Calibri,Calibri" font-size="18.0" fill="#000000" transform="matrix(1.00, 0.00, -0.00, -1.00, 184.1, 337.9)">	</text><text xml:space="preserve" font-family="Calibri,Calibri" font-size="18.0" fill="#000000" transform="matrix(1.00, 0.00, -0.00, -1.00, 212.1, 337.9)"></text><text xml:space="preserve" font-family="Calibri,Calibri" font-size="18.0" fill="#000000" transform="matrix(1.00, 0.00, -0.00, -1.00, 212.1, 337.9)"> </text><text xml:space="preserve" font-family="Calibri,Calibri" font-size="18.0" fill="#000000" transform="matrix(1.00, 0.00, -0.00, -1.00, 216.2, 337.9)"> </text><text xml:space="preserve" font-family="Calibri,Calibri" font-size="18.0" fill="#000000" transform="matrix(1.00, 0.00, -0.00, -1.00, 220.3, 337.9)">f</text><text xml:space="preserve" font-family="Calibri,Calibri" font-size="18.0" fill="#000000" transform="matrix(1.00, 0.00, -0.00, -1.00, 225.4, 337.9)">o</text><text xml:space="preserve" font-family="Calibri,Calibri" font-size="18.0" fill="#000000" transform="matrix(1.00, 0.00, -0.00, -1.00, 234.9, 337.9)">r</text><text xml:space="preserve" font-family="Calibri,Calibri" font-size="18.0" fill="#000000" transform="matrix(1.00, 0.00, -0.00, -1.00, 241.1, 337.9)">	</text><text xml:space="preserve" font-family="Calibri,Calibri" font-size="18.0" fill="#000000" transform="matrix(1.00, 0.00, -0.00, -1.00, 269.1, 337.9)"></text><text xml:space="preserve" font-family="Calibri,Calibri" font-size="18.0" fill="#000000" transform="matrix(1.00, 0.00, -0.00, -1.00, 269.1, 337.9)"> </text><text xml:space="preserve" font-family="Calibri,Calibri" font-size="18.0" fill="#000000" transform="matrix(1.00, 0.00, -0.00, -1.00, 273.2, 337.9)"> </text><text xml:space="preserve" font-family="Calibri,Calibri" font-size="18.0" fill="#000000" transform="matrix(1.00, 0.00, -0.00, -1.00, 277.3, 337.9)">i</text><text xml:space="preserve" font-family="Calibri,Calibri" font-size="18.0" fill="#000000" transform="matrix(1.00, 0.00, -0.00, -1.00, 281.4, 337.9)">n</text><text xml:space="preserve" font-family="Calibri,Calibri" font-size="18.0" fill="#000000" transform="matrix(1.00, 0.00, -0.00, -1.00, 290.9, 337.9)">p</text><text xml:space="preserve" font-family="Calibri,Calibri" font-size="18.0" fill="#000000" transform="matrix(1.00, 0.00, -0.00, -1.00, 300.4, 337.9)">u</text><text xml:space="preserve" font-family="Calibri,Calibri" font-size="18.0" fill="#000000" transform="matrix(1.00, 0.00, -0.00, -1.00, 309.8, 337.9)">t</text><text xml:space="preserve" font-family="Calibri,Calibri" font-size="18.0" fill="#000000" transform="matrix(1.00, 0.00, -0.00, -1.00, 315.9, 337.9)">	</text><text xml:space="preserve" font-family="Calibri,Calibri" font-size="18.0" fill="#000000" transform="matrix(1.00, 0.00, -0.00, -1.00, 343.9, 337.9)"></text><text xml:space="preserve" font-family="Calibri,Calibri" font-size="18.0" fill="#000000" transform="matrix(1.00, 0.00, -0.00, -1.00, 343.9, 337.9)"> </text><text xml:space="preserve" font-family="Calibri,Calibri" font-size="18.0" fill="#000000" transform="matrix(1.00, 0.00, -0.00, -1.00, 347.9, 337.9)"> </text><text xml:space="preserve" font-family="Calibri,Calibri" font-size="18.0" fill="#000000" transform="matrix(1.00, 0.00, -0.00, -1.00, 352.0, 337.9)">l</text><text xml:space="preserve" font-family="Calibri,Calibri" font-size="18.0" fill="#000000" transform="matrix(1.00, 0.00, -0.00, -1.00, 356.1, 337.9)">i</text><text xml:space="preserve" font-family="Calibri,Calibri" font-size="18.0" fill="#000000" transform="matrix(1.00, 0.00, -0.00, -1.00, 360.3, 337.9)">n</text><text xml:space="preserve" font-family="Calibri,Calibri" font-size="18.0" fill="#000000" transform="matrix(1.00, 0.00, -0.00, -1.00, 369.7, 337.9)">e</text><text xml:space="preserve" font-family="Calibri,Calibri" font-size="18.0" fill="#000000" transform="matrix(1.00, 0.00, -0.00, -1.00, 378.7, 337.9)">	</text><text xml:space="preserve" font-family="Calibri,Calibri" font-size="18.0" fill="#000000" transform="matrix(1.00, 0.00, -0.00, -1.00, 406.7, 337.9)"></text><text xml:space="preserve" font-family="Calibri,Calibri" font-size="18.0" fill="#000000" transform="matrix(1.00, 0.00, -0.00, -1.00, 406.7, 337.9)"> </text><text xml:space="preserve" font-family="Calibri,Calibri" font-size="18.0" fill="#000000" transform="matrix(1.00, 0.00, -0.00, -1.00, 410.8, 337.9)"> </text><text xml:space="preserve" font-family="Calibri,Calibri" font-size="18.0" fill="#000000" transform="matrix(1.00, 0.00, -0.00, -1.00, 94.0, 315.9)">n</text><text xml:space="preserve" font-family="Calibri,Calibri" font-size="18.0" fill="#000000" transform="matrix(1.00, 0.00, -0.00, -1.00, 103.4, 315.9)">f</text><text xml:space="preserve" font-family="Calibri,Calibri" font-size="18.0" fill="#000000" transform="matrix(1.00, 0.00, -0.00, -1.00, 107.7, 315.9)">.</text><text xml:space="preserve" font-family="Calibri,Calibri" font-size="18.0" fill="#000000" transform="matrix(1.00, 0.00, -0.00, -1.00, 112.2, 315.9)">c</text><text xml:space="preserve" font-family="Calibri,Calibri" font-size="18.0" fill="#000000" transform="matrix(1.00, 0.00, -0.00, -1.00, 119.8, 315.9)">l</text><text xml:space="preserve" font-family="Calibri,Calibri" font-size="18.0" fill="#000000" transform="matrix(1.00, 0.00, -0.00, -1.00, 124.0, 315.9)">u</text><text xml:space="preserve" font-family="Calibri,Calibri" font-size="18.0" fill="#000000" transform="matrix(1.00, 0.00, -0.00, -1.00, 133.4, 315.9)">s</text><text xml:space="preserve" font-family="Calibri,Calibri" font-size="18.0" fill="#000000" transform="matrix(1.00, 0.00, -0.00, -1.00, 140.3, 315.9)">t</text><text xml:space="preserve" font-family="Calibri,Calibri" font-size="18.0" fill="#000000" transform="matrix(1.00, 0.00, -0.00, -1.00, 146.1, 315.9)">e</text><text xml:space="preserve" font-family="Calibri,Calibri" font-size="18.0" fill="#000000" transform="matrix(1.00, 0.00, -0.00, -1.00, 155.0, 315.9)">r</text><text xml:space="preserve" font-family="Calibri,Calibri" font-size="18.0" fill="#000000" transform="matrix(1.00, 0.00, -0.00, -1.00, 159.8, 315.9)">,</text><text xml:space="preserve" font-family="Calibri,Calibri" font-size="18.0" fill="#000000" transform="matrix(1.00, 0.00, -0.00, -1.00, 164.3, 315.9)">a</text><text xml:space="preserve" font-family="Calibri,Calibri" font-size="18.0" fill="#000000" transform="matrix(1.00, 0.00, -0.00, -1.00, 172.9, 315.9)">l</text><text xml:space="preserve" font-family="Calibri,Calibri" font-size="18.0" fill="#000000" transform="matrix(1.00, 0.00, -0.00, -1.00, 177.0, 315.9)">e</text><text xml:space="preserve" font-family="Calibri,Calibri" font-size="18.0" fill="#000000" transform="matrix(1.00, 0.00, -0.00, -1.00, 186.0, 315.9)">r</text><text xml:space="preserve" font-family="Calibri,Calibri" font-size="18.0" fill="#000000" transform="matrix(1.00, 0.00, -0.00, -1.00, 192.0, 315.9)">e</text><text xml:space="preserve" font-family="Calibri,Calibri" font-size="18.0" fill="#000000" transform="matrix(1.00, 0.00, -0.00, -1.00, 201.0, 315.9)">s</text><text xml:space="preserve" font-family="Calibri,Calibri" font-size="18.0" fill="#000000" transform="matrix(1.00, 0.00, -0.00, -1.00, 207.8, 315.9)">t</text><text xml:space="preserve" font-family="Calibri,Calibri" font-size="18.0" fill="#000000" transform="matrix(1.00, 0.00, -0.00, -1.00, 213.9, 315.9)">,</text><text xml:space="preserve" font-family="Calibri,Calibri" font-size="18.0" fill="#000000" transform="matrix(1.00, 0.00, -0.00, -1.00, 218.3, 315.9)">:</text><text xml:space="preserve" font-family="Calibri,Calibri" font-size="18.0" fill="#000000" transform="matrix(1.00, 0.00, -0.00, -1.00, 223.2, 315.9)">e</text><text xml:space="preserve" font-family="Calibri,Calibri" font-size="18.0" fill="#000000" transform="matrix(1.00, 0.00, -0.00, -1.00, 232.1, 315.9)">q</text><text xml:space="preserve" font-family="Calibri,Calibri" font-size="18.0" fill="#000000" transform="matrix(1.00, 0.00, -0.00, -1.00, 241.6, 315.9)">,</text><text xml:space="preserve" font-family="Calibri,Calibri" font-size="18.0" fill="#000000" transform="matrix(1.00, 0.00, -0.00, -1.00, 246.0, 315.9)">	</text><text xml:space="preserve" font-family="Calibri,Calibri" font-size="18.0" fill="#000000" transform="matrix(1.00, 0.00, -0.00, -1.00, 274.0, 315.9)"></text><text xml:space="preserve" font-family="Calibri,Calibri" font-size="18.0" fill="#000000" transform="matrix(1.00, 0.00, -0.00, -1.00, 274.0, 315.9)"> </text><text xml:space="preserve" font-family="Calibri,Calibri" font-size="18.0" fill="#000000" transform="matrix(1.00, 0.00, -0.00, -1.00, 278.1, 315.9)"> </text><text xml:space="preserve" font-family="Calibri,Calibri" font-size="18.0" fill="#000000" transform="matrix(1.00, 0.00, -0.00, -1.00, 94.0, 293.9)">n</text><text xml:space="preserve" font-family="Calibri,Calibri" font-size="18.0" fill="#000000" transform="matrix(1.00, 0.00, -0.00, -1.00, 103.5, 293.9)">a</text><text xml:space="preserve" font-family="Calibri,Calibri" font-size="18.0" fill="#000000" transform="matrix(1.00, 0.00, -0.00, -1.00, 112.1, 293.9)">m</text><text xml:space="preserve" font-family="Calibri,Calibri" font-size="18.0" fill="#000000" transform="matrix(1.00, 0.00, -0.00, -1.00, 126.5, 293.9)">e</text><text xml:space="preserve" font-family="Calibri,Calibri" font-size="18.0" fill="#000000" transform="matrix(1.00, 0.00, -0.00, -1.00, 135.4, 293.9)">,</text><text xml:space="preserve" font-family="Calibri,Calibri" font-size="18.0" fill="#000000" transform="matrix(1.00, 0.00, -0.00, -1.00, 139.9, 293.9)">r</text><text xml:space="preserve" font-family="Calibri,Calibri" font-size="18.0" fill="#000000" transform="matrix(1.00, 0.00, -0.00, -1.00, 145.9, 293.9)">e</text><text xml:space="preserve" font-family="Calibri,Calibri" font-size="18.0" fill="#000000" transform="matrix(1.00, 0.00, -0.00, -1.00, 154.9, 293.9)">q</text><text xml:space="preserve" font-family="Calibri,Calibri" font-size="18.0" fill="#000000" transform="matrix(1.00, 0.00, -0.00, -1.00, 164.3, 293.9)">u</text><text xml:space="preserve" font-family="Calibri,Calibri" font-size="18.0" fill="#000000" transform="matrix(1.00, 0.00, -0.00, -1.00, 173.8, 293.9)">e</text><text xml:space="preserve" font-family="Calibri,Calibri" font-size="18.0" fill="#000000" transform="matrix(1.00, 0.00, -0.00, -1.00, 182.7, 293.9)">s</text><text xml:space="preserve" font-family="Calibri,Calibri" font-size="18.0" fill="#000000" transform="matrix(1.00, 0.00, -0.00, -1.00, 189.6, 293.9)">t</text><text xml:space="preserve" font-family="Calibri,Calibri" font-size="18.0" fill="#000000" transform="matrix(1.00, 0.00, -0.00, -1.00, 195.6, 293.9)">s</text><text xml:space="preserve" font-family="Calibri,Calibri" font-size="18.0" fill="#000000" transform="matrix(1.00, 0.00, -0.00, -1.00, 202.7, 293.9)">P</text><text xml:space="preserve" font-family="Calibri,Calibri" font-size="18.0" fill="#000000" transform="matrix(1.00, 0.00, -0.00, -1.00, 211.6, 293.9)">e</text><text xml:space="preserve" font-family="Calibri,Calibri" font-size="18.0" fill="#000000" transform="matrix(1.00, 0.00, -0.00, -1.00, 220.5, 293.9)">r</text><text xml:space="preserve" font-family="Calibri,Calibri" font-size="18.0" fill="#000000" transform="matrix(1.00, 0.00, -0.00, -1.00, 226.8, 293.9)">S</text><text xml:space="preserve" font-family="Calibri,Calibri" font-size="18.0" fill="#000000" transform="matrix(1.00, 0.00, -0.00, -1.00, 235.1, 293.9)">e</text><text xml:space="preserve" font-family="Calibri,Calibri" font-size="18.0" fill="#000000" transform="matrix(1.00, 0.00, -0.00, -1.00, 244.0, 293.9)">c</text><text xml:space="preserve" font-family="Calibri,Calibri" font-size="18.0" fill="#000000" transform="matrix(1.00, 0.00, -0.00, -1.00, 251.5, 293.9)">o</text><text xml:space="preserve" font-family="Calibri,Calibri" font-size="18.0" fill="#000000" transform="matrix(1.00, 0.00, -0.00, -1.00, 261.0, 293.9)">n</text><text xml:space="preserve" font-family="Calibri,Calibri" font-size="18.0" fill="#000000" transform="matrix(1.00, 0.00, -0.00, -1.00, 270.5, 293.9)">d</text><text xml:space="preserve" font-family="Calibri,Calibri" font-size="18.0" fill="#000000" transform="matrix(1.00, 0.00, -0.00, -1.00, 279.9, 293.9)">,</text><text xml:space="preserve" font-family="Calibri,Calibri" font-size="18.0" fill="#000000" transform="matrix(1.00, 0.00, -0.00, -1.00, 284.4, 293.9)">:</text><text xml:space="preserve" font-family="Calibri,Calibri" font-size="18.0" fill="#000000" transform="matrix(1.00, 0.00, -0.00, -1.00, 289.2, 293.9)">e</text><text xml:space="preserve" font-family="Calibri,Calibri" font-size="18.0" fill="#000000" transform="matrix(1.00, 0.00, -0.00, -1.00, 298.2, 293.9)">q</text><text xml:space="preserve" font-family="Calibri,Calibri" font-size="18.0" fill="#000000" transform="matrix(1.00, 0.00, -0.00, -1.00, 307.6, 293.9)">,</text><text xml:space="preserve" font-family="Calibri,Calibri" font-size="18.0" fill="#000000" transform="matrix(1.00, 0.00, -0.00, -1.00, 312.1, 293.9)">	</text><text xml:space="preserve" font-family="Calibri,Calibri" font-size="18.0" fill="#000000" transform="matrix(1.00, 0.00, -0.00, -1.00, 340.1, 293.9)"></text><text xml:space="preserve" font-family="Calibri,Calibri" font-size="18.0" fill="#000000" transform="matrix(1.00, 0.00, -0.00, -1.00, 340.1, 293.9)"> </text><text xml:space="preserve" font-family="Calibri,Calibri" font-size="18.0" fill="#000000" transform="matrix(1.00, 0.00, -0.00, -1.00, 344.2, 293.9)"> </text><text xml:space="preserve" font-family="Calibri,Calibri" font-size="18.0" fill="#000000" transform="matrix(1.00, 0.00, -0.00, -1.00, 94.0, 271.9)">:</text><text xml:space="preserve" font-family="Calibri,Calibri" font-size="18.0" fill="#000000" transform="matrix(1.00, 0.00, -0.00, -1.00, 98.8, 271.9)">a</text><text xml:space="preserve" font-family="Calibri,Calibri" font-size="18.0" fill="#000000" transform="matrix(1.00, 0.00, -0.00, -1.00, 107.4, 271.9)">n</text><text xml:space="preserve" font-family="Calibri,Calibri" font-size="18.0" fill="#000000" transform="matrix(1.00, 0.00, -0.00, -1.00, 116.9, 271.9)">d</text><text xml:space="preserve" font-family="Calibri,Calibri" font-size="18.0" fill="#000000" transform="matrix(1.00, 0.00, -0.00, -1.00, 126.4, 271.9)">,</text><text xml:space="preserve" font-family="Calibri,Calibri" font-size="18.0" fill="#000000" transform="matrix(1.00, 0.00, -0.00, -1.00, 130.8, 271.9)">:</text><text xml:space="preserve" font-family="Calibri,Calibri" font-size="18.0" fill="#000000" transform="matrix(1.00, 0.00, -0.00, -1.00, 135.7, 271.9)">s</text><text xml:space="preserve" font-family="Calibri,Calibri" font-size="18.0" fill="#000000" transform="matrix(1.00, 0.00, -0.00, -1.00, 142.7, 271.9)">u</text><text xml:space="preserve" font-family="Calibri,Calibri" font-size="18.0" fill="#000000" transform="matrix(1.00, 0.00, -0.00, -1.00, 152.2, 271.9)">m</text><text xml:space="preserve" font-family="Calibri,Calibri" font-size="18.0" fill="#000000" transform="matrix(1.00, 0.00, -0.00, -1.00, 166.5, 271.9)">,</text><text xml:space="preserve" font-family="Calibri,Calibri" font-size="18.0" fill="#000000" transform="matrix(1.00, 0.00, -0.00, -1.00, 171.0, 271.9)">	</text><text xml:space="preserve" font-family="Calibri,Calibri" font-size="18.0" fill="#000000" transform="matrix(1.00, 0.00, -0.00, -1.00, 199.0, 271.9)"></text><text xml:space="preserve" font-family="Calibri,Calibri" font-size="18.0" fill="#000000" transform="matrix(1.00, 0.00, -0.00, -1.00, 199.0, 271.9)"> </text><text xml:space="preserve" font-family="Calibri,Calibri" font-size="18.0" fill="#000000" transform="matrix(1.00, 0.00, -0.00, -1.00, 203.1, 271.9)"> </text><image xlink:href="EE61326CD40C4FAF7D3572D6BBFDE28C.png" width="430.00" height="582.00" transform="matrix(1.00, 0.00, -0.00, -1.00, 560.3, 591.0)"></image></g></svg>